<mxfile host="app.diagrams.net" agent="Mozilla/5.0 (Windows NT 10.0; Win64; x64) AppleWebKit/537.36 (KHTML, like Gecko) Chrome/128.0.0.0 Safari/537.36" version="24.7.14">
  <diagram name="Seite-1" id="_8KfVFzlPpd-v9qCQpWh">
    <mxGraphModel dx="2780" dy="1786" grid="1" gridSize="10" guides="1" tooltips="1" connect="1" arrows="1" fold="1" page="1" pageScale="1" pageWidth="827" pageHeight="1169" math="0" shadow="0">
      <root>
        <mxCell id="0" />
        <mxCell id="1" parent="0" />
        <mxCell id="5R3xkIUj5otAu2-43yHS-32" style="edgeStyle=orthogonalEdgeStyle;rounded=0;orthogonalLoop=1;jettySize=auto;html=1;exitX=0.5;exitY=1;exitDx=0;exitDy=0;" edge="1" parent="1" source="5R3xkIUj5otAu2-43yHS-33">
          <mxGeometry relative="1" as="geometry">
            <mxPoint x="484.1239534883721" y="932" as="targetPoint" />
          </mxGeometry>
        </mxCell>
        <mxCell id="5R3xkIUj5otAu2-43yHS-33" value="&lt;div style=&quot;&quot;&gt;&lt;br&gt;&lt;/div&gt;" style="rounded=1;whiteSpace=wrap;html=1;align=center;verticalAlign=top;labelPosition=center;verticalLabelPosition=bottom;" vertex="1" parent="1">
          <mxGeometry x="408.31" y="758" width="120" height="60" as="geometry" />
        </mxCell>
        <mxCell id="5R3xkIUj5otAu2-43yHS-34" value="" style="shape=image;verticalLabelPosition=bottom;labelBackgroundColor=default;verticalAlign=top;aspect=fixed;imageAspect=0;image=data:image/png,iVBORw0KGgoAAAANSUhEUgAAAOIAAAF6CAYAAAAEUoRNAAAAAXNSR0IArs4c6QAAAARnQU1BAACxjwv8YQUAAAAJcEhZcwAADsMAAA7DAcdvqGQAAP+lSURBVHhe7P0HmF1Xdh6I/jfnUDnnQs45RwLMqUl2Yie1ctuyJVseWZp543njZz/Pk/3ksSRLltqd1d3MmQhMIHIGCqkKlXOuWzfnNP/aBZAgiFAACwDJrsXvsAp17z33nH32v9a/1l57LY3T6cxiWqZlWu6paC/9nJZpmZZ7KMoi+v3+S/+clmmZlnsh0xbxM0o2m0U4HEEwFEYikbj012mZlluTaSB+Bkmn0/D5/Nh/6DDOnb8Az7j30ivTMi23JtNAvAVJJlNoam6BxzOOVCqFWCyOru4evPHW23jv/T3o6e299M5pmZZbk2kgTlLE+o15PPjHH/0EJ083IEQqGg6H0UxgHjt2FO99+AHa2tsvvfuTIvQ1mUzCHwioc4yOjk0cY2Pq3z766KFQiMCOIZOZDmL/Jsp0sGaSMjg0jN3vvIe//bu/w9e/+lU8+cRjsNts2LHrHfy3v/lrZDUa/NEPfoA/+N3fvvSJjyUSjaKjsxu/fuFFNDU1IhgMqr9rtFrYbHbMnDkD5aVlqK+txdo1q+Cw26HVatR7puU3Q3Qmk+n//Rd/8ReX/jkt1xOxfH//wx+ivbUVWoMeNdXVKCwsRGtrG44cPYpUOoUlixdh8aJF0Ot16jPBYAj7Dx7CT3/+T/jVL3+JkydOoL+vF97xMfi94/DxGBsdRU9XFy5cuIATJ45h/4ED8NDvNJnMsJjN6lxaAnZavtwy/YQnKYlkAp7xcVLMhKKTAVo1AYjRaIROp0MykcQQrWZff7+iohJBFRC++PLLePvtt3D2zElYzV4snJ/AhnUpbNmUxOaNSaxaEUNJsR8G3TCB2Y7Tpw7h+eefI3h/jvf3fIiBgUFFi6flyy3TFnGSIhHRC40X0dvdDZc7B4sWLURdTQ0CgSABdxChYAD5efmorq5BZUU5RugD/tOvnsOePXsQDoyirs6C+7cbsXGDCatWmrB4sREL5hsxZ5YJlZVW1NZYUVmuJy1Noq11CI0X2+k7BmGx2FBYkA8zraOG9FeOafnyybRFnKTkuNxYvHAhDAYDQuGwCrSIFayvq4HD6QAhgnAorICZTKVIZVvR3t6uAFpSYsSDD5jxrWdjuP8+K1Yty8PShflYtigf61bn4pknHfjd37LhB39gxG//dhybNtpgMUVw/PhRvPzaazh2/KQKDomlnZYvp0wDcZJitphQWlxMGqpFNBKChxZP6GlOTg6Ki0vpy+kxMjaK/sEBRUsPHz+OQf6u02QI1iSeeLwHbkchdFrLpTN+WqwWK2bVl+B3f6cbD96vg4vW8fy5s3jt7bcV8GXJZFq+nDINxEmK0+HE3LmzlUUM+v3o6emmPzgAo8mIuXPmqEingKWltQ1tbR3oHxhAhJbT7daiuioHBbm1BLGJZ7o+tRTaaTKaCfhaPPpoBNu3RwneBBpOncRbO3dhcHj40jun5csm0z7iJEWilzqtDg1nz2FkZBjpTBo5ubmYOWMG8vnzBMHS29sDrUYLK0HZ0tqKvr4egjSEhx40oK46X9HX60k2m0YqHYI/NILTDU6COoWBfgN6e7To7x9XSQRanV6l0wlNNVIhpNNiISf8xmnf8Yst00CcpKjJrtUgkcrQ4rVieHgEHDvMnT0HC+bPox93HG0EXzgUQiQaV2D10EJuWJ/A448aYTY5Lp3p2hKJxdHTN44Dh0fw5ttGNDZZ0Nerh9ebQjAUx9DgIM85ho6uLgK8TyUBSEAok8koKy3H9DLHF1emgXgLouNEz6P1O3v+Arq7u9W/a2vrUF5ehr6BIQwQLIP9/Rga6FPrg/FoFGtX52DjusIbgiSbTaK3P4ydu+P467+x8NxRWr0MXwDBriWl1fNcKQXurq42nD9/BgcOHsS5xibE4gmlEOy0whbLRGR1Wr54Mg3EWxCZ5Aa9gdYoQLrYjwH6gVqDEcsWLyJA81QKWxcBGuRPWfuTKOesWUnS0xR9yOtbxFC0FYePRvHOO1Za2hg2bszFA/cD27alsGgRYDHbCM4EL0BPKmxXRziYIeBHFAXuHRjka1rUVFWqdc1pMH7xZBqItyAywdXifYr+G61fR1cHAj4v5pCeVhEEEvWUSKoEci4vwpeVGFBbY0NZqVX9+1oyMhrGkaNaNDToYbVm8c9+EMHKZU7UVjtRUpKF2z2I48ctxJoB920FnvpKEjPq4yguNmB4iJS2Z4wU1guT2Yq62hpFU6fliyXTQLxFkRxQE63OuM+Hzq4e9HR3kR4mUV1dhYryCpV/Ou71YdzjUcsNZtLGwkIbFi0wXzrDp2XUE8OZM1laPQNqaoz4+jNGFBc5CGwLDy2tcBrvvW9AKqnDujVGbN9mRmmJkZTYCL0ujaHhEMEYQhoazJk5S0VwZTllWr44Mu3d34JcTl2T4KfT6aSlciNKP/Dd997Bh3v3qd0Tq1auwNNfeQrz5i9QC/3Doxp0dqaRyUTlDBMnuo6IIXM4dDy9nhY1gmTaS18xSQpchERcLHKWwDPDYspBUUEe5s+x4rFHrdiw1gKjIYwzDQ04cfK0so7Ti/9fLJkG4iREJrVQzUgkip7ePhw5chynTp/BmGeMlseAaDiMd957T6W6SQDn/u334amnn0JlZRWtmIa+Y4R+4Bgy2cylM35SBGDi1oXDWbS1RdDd14rB4XZ1nD7Xi1+9EEb/YITflYHJpOH1pJHOJJFJ61FR5sTaNblYON+AflLifYcOoo++682qBcg9ydaseDyhfk4D997KNDWdhMhEHRoaweEjx/DDn/4ML7zwPI4fPYzRkWECLaEmcSgQQP/AIHoHh5BNZ1GQl48LTU383BAslhSpqwHFhXaVmXO1hCN+tLZmwLer6GlrSz7OnMvFwQMufLDHSN8xRMuYwOrVVoJOh8IiH8HdjLauDLq6o7S6vL6RNBqbYkhRYeS6c5CXlwe3y3nNaK1crwDw4sVmtT0rHImQUluVbzkd6Lk3Mr0fcRLSRV/w/T178OJLL6KPFtHtSqCoSLJtPp60XV1pjIyRYuitKCstQ239DJw8cRyD/X2oqdLg2W+68OSjLlitnwZGMDyAg4fTeOttI44djyuQCE0VIyVZbRqNltbVjG9+I4DSUjOGh63Kcra0ZBEISaUAwO/L0ldMw+FyYc7ceVi8eIla35xRU4v58+fCaPw4gCNrj7JF69cvvoQTJ04q5bBs2XJsXLdWJaxbrddPw5uWOyPTFvEmEo/HcfrMWby9cxdOHj+I2bPS2Lolik0bTFi+zMXJblZHSUkUNlucoEigt9dLv24YHllLJEqMRlqxQhuWLTUqanm1SFzFbM7C6Uohx53he7MoKwMqKoC6Og0WLtRg08YYLasWZ89p6Y9qaD31tIp6Xp+OPwEfgSilPNJErs/vU0sr3V3diqYK77VZrWoHh0R9RVKpNAZovZtbW1S9nY72NnipkGtqqtVa6bTcXZkG4k1kfNyL/YcOYc/evYiFR/Hb33fgvq0JLJhnRnWliz6a+Gk8KqMoL9cRSCa1K6O3x49wSKhiBga9llbUhBXL07Q2n97oq9XIgjxQUpxCTa0Wc2dbsHiRBUsWm7F0iYmHFnPmjGD/fif27TPB40nw+2Qjcgbz5mr5Oa2K5nrHQdBrUVxMi6oLKFrcdLELY2MegtgCl8utorpiAeUaHA4Hra4Gw6TY586dRXtnp8qbLacW4Ly4dHXTcjdkGog3kfaOLuw/cBBnGk7TqsTwr//YgrKSQuh1zkvvmBBZdC8qNNGipFBVFcfIsIN+XRrxRAYa6PhZHebO99B/s6hF96tFq6G1NNr5ugPFRTaUFFnVUUxL6naZMTbux6+foxXr19NXNOOf/bMktmz2YOXyKBYsSNMa6wk6K/LzrPjG14E1qwVwRrQ0e2jtuuALhhXwSkqKFfUUyyigLCos5LVb0NLejv6eHjidLkWtS0tLLl3ZtNwNmQbiTWTvgUP4YM8HCPq7sHVrPjatd3Hiyhrdpymm+HJGgxmF+U5s3GCFzW6A369RtFGWJVauTKOowEFr82kg3kjoMuLwUQ0VQhIarZ6W1YkHt+fDai7k9/EwphGJRtDZ6ab/B6xfP4o1q4xYOM9NXzaJxkags6MPox4PDEYTZtbXqcCMgNFms8JI6ydZQW2kqVKbp5x+4qIFC64Z6JmWOyPTI30TSaaSimpqkCEAtQpsqbQfwXAXBobb0NQygtPnxnDq7BhaOwbhDQxBq4vA7dbggW1WfPtZC554XOilHqUlEYLw9speiB/JrxZ3j9ZYUu30BIpRWVJZ/kjxOkPBjArwaLWyzEE/s8SALZvsePZZI2qqtaTLXTh27Dj6B4Y+yvwRMJYUF2Hrxo0oLa9AlD5xb2+f8h+n5e7JtEW8iTS3tOL8hQsYGxmEy2kktUuhszuJ02cSOHY8hQOH0jh+IoqGM3G0t6fh82dhtmSVz+d2GpCXp6PPZUBdrQlVlVqYST81mlvNeskgnRnCwcNJ+H1GVFRIACdMS2ihovCgtz/Ka9Hh4MEMFYARq1b6UVFuoV/opsXT8RpSpMkGDA0mEAimUVBYhJkzJqyiiGThmMxmKpVWDA0M8HNWfkclwVulXp+WOy/TQLyJSEGotrY29PT00eIk1Rank6dBumdGX68RY54kxsfTPID+fhMGBkwqF7WsLAmrxQinw0yfz0hraCCNdNwGCMV/zJDm+rF3r4bWSksApQj0CCJhG0HoIQhB2mpWa4pz51oIxCStnB0GnUNZPLcrq+htX38S3d1xXl+G/uUmFcBR5ycFlaO7pxfNF5v43oSip0sXL1KvT8udl2lqeg0R2ibFg6X+jNPhoAUphNZgQXtnAC++HMMHH4QQiSSweo0O/+wHJvzJH9vxgz+00HfTY2QYePW1DFpaowTttTNpblUEvDZzPa1xnqKopxrS+Nv/7sBf/bcw/tvfOPDLXxlx7lwCRYV6WsoMf5YQ9BNLELIZWU9AlpWmCc4M4rEQTp86Sbr9ycwbWch32OxqY7MUOxafcVrunkwD8Roi/tGvX3gZ//Vv/x7/8S//Ejt37oCfJk8yUiR1zGrVY9bMNNavzWDN8iJ1rF0Vw6xZUdLSDDzjYfh8OiSTU5ul8tVnkti2TaPA0t7hxfGTYzjdIBXD+d2zdfiz/0WPJx4Lo6SI/qPmkzswjPRNyT5p+XgP8Zi6lytFlE9XTw8StOZVlVWYWT/j0ivTcjdkGohXiGTQ/PBHP8Wf/fmf4yc//hHeev1VnGs4Tf9whKCasCAygWXHfENDhpYxg/buMfhCrfAFkghHJFmbg0rrIuvmU50tVluVg+99qxD/5f9nxX/6/0bw29834utfs+FP/yQHf/6nhVi1rBD5uUUw6GWnx8dfLrmpXV1mdHQKIJ3YuGWr8gkvi4AwSOvf2HhBVSWXZPb83JxLr07L3ZDpFDeKgEt2Trzy+lt44cUXcP7cSRTkaUkFNRgZyWJkNIkg/cNsNkNfz6rSznRaPfLygfr6KP21IP9mov9lwfCwkRQQ+Of/zI+5s2Rb1CfXG6dC0pkoorFxDA3bEY3qUJBvRHHhtZdEstkUwrF+0lcLXn8zRv+vEF/7xjexZdMGtVnZajGrSOmp0w34y//8l8gSwN/42tfwnWe/qdYcp+XuyDQQKWIR+vsH8Vd/8zfY++H7sFtGcf92E+rr7OjrS+Lk6SQuXEggHk/hqSdzCLoo6WcGYx7JvEnRWmY54WUbkwaVFVps3qzB/dsiyHGVK//sXkkWGVLpKFo72vHTnzmx/0AGevqOGzZt4rW5YLPZkEdtkkgmcejIERw6sA9Ll63A73z/t/DIQw9cOsu03A2ZBiJF8kmPHj+Jv/uHf0BXx1msWxXAv/5XPtitc5FKj+PD/Sm8+ZYeHk8a//W/OKDT92F0VENf0s3DiFhUr4BoMadRXuHHkkVjcNoXkqLe2sL9VEs6E4PX78XzLxrxxhshdHZLt6kMabPQ1izvwww3gSgL+iODA4hFIvi93/sDfO2rz2D+vDlqWWNa7o5MA5ES4QR8+dU38ZOf/pjErBePP2rDb33bTCARYLQqY+P96B/0IBzKxfLFpWpnRDojllTLg5OaIJTQx8RiewYGY+ZSsGSKncRblHhyHJ09zfjzvyhFa2uc16gljbWgrNSo6HVru5+UW23vQIasQCj60hUref+P4cHt20i7ay+daVrutHxu1xElOtnW3okXXn4Vz73wInbs2oVd77yDUw0NnESi1WUR2jQlWjtGi3jo6HGcOnkCBn0Q8+dasXjhRMBDw8lrMhhhthB0GT+On7AhGIridEMCZ8/F6Sd60UX66nYZ4HToeT2SfSM7HO4tCEWEQg+PjtLv1fP6rNi+TYtnno5i6+YgVqwIoKzMwHE20LpLZs5Epo0s2wwND8Pr88PldKl9jZd3bEzLnZPPnUVU/trAII4dO4Z9+w/gzLlzGB4aUpZJYOGibzNrxiwUFRdixsyZqK2pVaUEZbd8a3PzR9FNER1BWl5eiRXLl9EKlF4zx1OsgN8fwD/8+Kd44blfY/bMHnzvO06sWVF66R0TMuYJ48jJIbyzm6+tiaOtLYuWFg1Wr86gvQPYssmBFcts1w2aXCkSxYwl4pzscdJdAwGRgsthwo3K8d+OCBDHxsfwxlsmOOwWzJqZQW1tHBbLROBpcMiGD/Zk8dbOMM6eDZG2ZmHmGEk+alFxKTZs2IBnv/E1zKivVzmp05uG75x8biyiAELthB8ewXvvf4BfP/cc3ntvN/0WL3LcaRQWpJCflyD1k0JJ3ThxogFNzW3o7u1TPQr37t2Lt998DSdOHsaZM2LdjqqSFq3tXcoHysvLhdvtUpNJrK1UzA4EAvD5fKqU/eFjx9HSfBGzZ41j08YsfTw7QuEEMtmQWnsbGjZg97sanD6Vxrx5UdLZDC5c0KG5RUfrGAONB6oqDCqL5kaSSAYx7ouipTWGvQe8tLCyvhejgtHSx5S80albUdJqDbDbXFi2xIYF80woKTYTaDaOoZOHCzkuC6y2hEoYb2mWdc80Zs82wkhq3dfvRW9fv+p8JduiXNfZ7T8tUyN3HYgSLBDAJRJJUh6hcRNaViyhVD9774MP8Yt/+jmaL54nePRYMNeGLVsc2LpFi7VrtZgz20TKZEcspkN/3yiaGptxsek8xj19qKwwY0adhRrcitJiK7LU8LLroLtvAA4iRZqLSkNRsbgqh/R8I86cv0Crex5HaIGHBvppOXQoLbWisDiKcxf8SKb7OXk1GBqy44034yqlbdNGL62YHj6/hSAM8lqSBPBEi7XiIt1VYJKIquSKSnQVGBjuwsnTEbz+hg4//VkUTU0ZvsOCwkJJvs7SKt7dAI/J7OF1BTiGObTQMXzrWS2vxYCuLg38vhAiVFpiEUuKi6f3KN5BuetAHPOMc/K1oIGTvyA/T+3NE00rdVOkldmPf/4zNDddpHXR4onH9fj2twexfnWpWkqoLLMTTCa1S95gSqOjI07wplFUZMb923Pw9a9F8ejDXmy/TxKfbaioCqCv14aRkTABKAvxEZw5ex5v7NiJt3fuwK5dO/HhnvdVSYuh/j61lujzagmcOGbNGsRf/mcnJ2cOr9ONWFSL19+MwB9I8FpMmDkzhbzcBPr7XbSqSZiMVhSVCEDHadnyLt0tFU82iWjcg+GxNjScB15+2UpAa3Ce/qVeY0CMVDqTJoCL/aiuCcBqzr/0ybsjBoMNoaCLykhqtUaxbq2GFtCMeMyA1rYwRskWCgoKUV5RgaLCgkufmpaplrsOxNbWdux69128y2PxooUqi0N2Acgu8v0HD+M9/t1mjeOB7Wk89kiW4CtRZR4MBp0KhOgNUudTSwCGcep0nJbVSB9Qg+98axxzZxcr0EjOpN1ugpN+17gX6O6OKKrV3tGOsw0N1P5NCPjH+L4E6mo1WLoUWLsG9CNtBKOWViKCdeui2LMnjxOSlK4kQHrrw+kzZoyORWmpbfRTXVQWVgTDKd5TmoBNY2xUh8FBC3+nNQkFSZ1TOHg4pTJw9u3T8XwZKoI4fONZ1PIc31iVj0KHEb4Q/dSQHhF+F20nAU5/Uafhv0fh8Q6Qyibp12mosK62tp9d5HyjoyAjiHOMIqivN6G6SkMFmaIPbKCCjCE3v0A126mtqb70qWmZarnrpF8qYXd1dREMjaqAkXRVkt0K0hb7YksL/F4vli5JEhhGTnQXaaH7k5NP0Tz6eBEdrZwGFbScK1fQSs500uex0TKJL2MmWHXKByorl/IRpL2eMYyOdJF6DmHjeg+efnIU3/yGD9/8egrPPGXHU4/n4mvPGPDsN2OqJo10W8rN0SMUkm7BUSqAIGoJWpJoWliCJGyhErGiojzN82uRilPJNGexc3cKL7zkx69+HcJzz/vx8qt+Wt+IqjPT2JiFPqHDyioHvrKiAA8vLcZX15RhVbUDIfqgNNL0jUP8bBhv7ojizbdSePNtDUGSRigyilNnQjh9NoSx8fDEWFySCasbJGhHCd4+jo/UUJ2ciH847pVlDFJkUnnJ1JHor7gAM2ZYqfw0qjFrVCpUTcsdk7sORPEFJVgi0U0J0IgIJZTORt29vervCxYEUV9LC6h1q9evlAxpo0zKxkYNP6enlgbmzzPCYionYD9eyqBnpvzBsTEBOmjFtFiyyICnn3Lhd3/bie9/z0AAZrF1E7BkofiWTqxcZsBTT+pUGzWD3gibXcvrySISEQuhQ3V1miDPIBzKcMKm+HsSVmsGWlovi0GPMqcJZSbSzUGgvUGP4VZeL61fIa34ghIbNs7MxaNLivG11SV4cHEhKopcWFafhwcX5WNFuRO2qFF97te/CuPnvwjgV88Br7xixe7doDUNENBhWmUvKfb4pbuckGRK6p6OYs8+H5WZD+EwndFJiLSB6+3z0xcOqZ4bUr+mIM9Af9CGUl5vdZUsx0xHSu+G3HUgXkti0Zjq/zc2NgqTSda8wqRikUuvflLS6Sj8/n4cOBhGJsWJX8bJU5ggCD+51pXJpBCgT7h3b5qANWH1Kiu++y0rvvG0HbPqipGfMwt2yxxa0AroaEFl3U+vc/NvtTwmKJjEkRJxgi4iADfRV0orypggOIWyJZJhtdtCo6N1pjXZNDsP/9vjdfit9UV4eIEbTy/Lx29vKMb/yr/94+8vxX/7/nz86RMzsGVRCfJovUVkjW5JfQF+975K/MWjlXh2ZQFcOi0GumPooI/W3h7Avv0B/Pv/aMWZMxmYzUHk5tJMXxJZCgkGAzhxMoj//ndWvPteGcdycssgkVg/GmhhP/jQhIGhkBr7JYscqKmaCMrIzn8RSWKfXrq4s/K5AOJlMdByLFzgpJ9noyb+5Daey5LJaEiTJnzEnBwJLCQI3OClVz+WSDRJC+slrUpi3lwz7r/PjeVLJ5f3KVRYqzNw0msw6gmBbi2pqBurl+eQ2poxPJLixJdd+rK2SYgSp1HS670XPfjRnn68fyGAEX8KTosOtbQuFfnXb0BzWSxmE6pKc/Hg8gr839+dhT/eXoZ1dS7kO21UAHZs3ZqLH/zAg+33menb1l/6FBVFegBnzsvG4CLE40mClLTaNLl9kF6fnX6hkdYwRSquoc/uUokJ0dgw77EdHZ1ppFJSccByzTXYaZk6uWdAlAYtHZ1dpHkf+zvCVMUVkQjnZdp6tchf5aVMOkNLqEFxUQFslrKJF68Qv0+Ps2etCPiTWDA/iFkz47R+k7tdjcZE37SAVDQLkzmDvj4d2troC5r6sWyZlbQ1rQJFv/p1Bj/5SYaTNqqyc9qGg9jb7MGB1nG82ziGXx4ZxS8OjGDHqVG09Ho4weP0w65Xdl8sshZWorqQvufaWXlYWe9CTZGJfqgeTzw+iMUL8un3Fqv0OdlVEUt0khlo8NbbWl5fEosXy+78hFp3vZFk6ecmUsMcH47Rea1aLy0vs+Ghh6IoKIrQTTDgYrMNnR0RlY86S5YviqZ3YtxJuaNAFL/v6PET2LH7XeUHikiE1GI209fLorm1jf7OxzQrTXonvkpEFtIz155M4bARnV25BKssgGtotSycwJ+2dLG4FkPDJvV9dTVWFE0i4+WyaDjRTQYnKipo1RyyFSqD1lZS4ez4ROlCexqDQ3GcPRcjtUvSh0yisLgUM+YtwvwV67Fiw3YsWrMNhqLZuDCux5unR/DysWGcaPPAG5pIvL5awtEEBsYCaB/woXMogBAtOnEJcdGi/F2ss9kkC/FWfj5GP3kYR44DO3YCp06leZ+yUTmLqkoH33ttNnFZ6KbTp4zj6LEkOtrTBK4GGzYYsII+steXwsFDWhw+YlRVxKtr6zB37hwUTi9d3FG5o8sX5xsb8cZbO7Hnww+xdtUq2O02+Hx+WsJOatxmBcbVK1eQeuXTqoyohfXuzl7Mnp1CZYVT7Ze7WoaGgQ/36XCxKUXKacDC+ZIx8umJF+HElmigVN/etD5XBR8mK5JKJ/+PJTyqsnZ3tzSJiavK2/0DJjQ1JTlhs7SQFpSUlKKeFmPtug3YtGkjNqxfj7Vr1mDZ0qUEZwky9F0Hx8No7PEiGI7BbdXBbTNAr9UiECH4xqPopEW90ONHQ8c4zvUE0DJAOjwURstQhK/FMOyLw+UUhSMgBALhMNo6fHjlNQcBEyONz2DNagMefECHIpUbOhG0CgSpQNpS8PqzSmkZjRoquyR97CDe/SBFfzKGgQFZLtERbHqlIKUg1od7ZdtXGlq9CVu2bsPWzZtUV2T9dM7pHZM7CsRTDWeosXeh8dwZ1YuhsLBQRTMlqfjchQsEXSc18TrMmDFDWYkuKV7U1ERLIEVuXaiulAn1ySCBx5MlYNOIx3RYv04qXevVeuHHIrRW0sYCqKnpx6LFfmp8N6mwGfGEFFH6+JD3abQpfkSsL/muBCU++r40/+tH80UrqSmt+5gG3V2F9MVkzRAq9WveggV49LHH8Vvf/S4e2L4Ny5ctIQWeoXolVlZWYNaMetXEVLJ6zl5sxfnucWRJyR0mSRrI4lznGHaeGsELR0aw6+w4jnZF0DCYQCMt8IVhWispTEWwRmNptLYY0KOuI0rfN4V9+xz4cI9f+cJbthjwja9ZMLNemtzQ8ksuazxDJZLCD38SQt9AUkVAc3N0pKEhnGvqwt/8tRHdPSlax4zyudvbddi/P40jR2OqCFUimUFuXj7vazvq62pVceIrgSjXL8/s6kPcBonrTAd3bk3uKBClF4N3fJx+yHl4A0FOypnK15A8z8bmFowMDkKjMyA/Px8FPHyc4VK60O9LoLZaliWkPsvHSxIiTqcGy5YY8ciDVvp+dvpMJki5+cuSzsQRjfdidHwEzS352Lu3hFregOMnkzwSnziiiUE4XO2cdLwObZLnkW5IPOQ/TYYWwcfJKm2zxRJGSbVjpIlpzJg1F9/9zrfxR3/4B9hIRVJWWkLrbafFMaoo6GUxGPQqv7WirEy1aGvr6sL5zhEcafHi3XMevNkwjMaBMHi70BjNyCkoxJx5C3Dffdvoi65QdUYNJjOSqTSS9Jv7+4I4dz6EkydjqgmNVBFfv86NJx7Nw/IlpK16o7r2eLIb770fxC9+CV5/GI89GidIpempgWOiwf/4Bz2BJ66CRgWfnE7Z8qWhpZSCV3G1E0PYSoT++4kTx9FEF0KWc+Q+9Xod3QyOcVSi10F4xr3qkN0aQb5f0heVv6vXT4PxFuSOAlEexJjHgwOHDyuQVVVWorysHPl5uZz0OoLuPH3CYf6uVWlUBQUFaKOVlN7wUi6wolKH/NyPa6uIqI69Jg2kq5LRMNHzQUSCF5FYGy62JrHrHR1eekmHd95LoqEhia6OJAZoRQZ70+jrTqKxJYyLPCTL5fBhLYHqoM/nhMebISj90BuisJodtMxWTrIsJ3OSIJCehEBeURG+/ew38eD999PKVKmuvgI+uYerJ578W/olSvOXnBw3rVRCJan3j3gQiHHCmmyorK3Hxo2b8dRXnsQzT30F92+7DyuXL8OCefOweNECrF29CltIeSVPlkZKgSUQiBIstFg5NjzztA9rVmlJXZ0chJTqx//ue3q8tUMKTKX4OQu+9rQLhfmSraOFTh+GK6ePSiIHK5br8PijVjz1hIuU2gSnO83nlUUwKFRcqKwUMM5gfGwMA0NDGB7zIBQMY9/BQ3ymR/D2jh145ZWXsWvXLrzz7jt0QfbQHWnimPmUdZT1YknakGp4EiOQcRIgTwP003JHgShaUcryCUUdHhjgBDciLz+PvlY5CukXttNCdPMY44OO8aHJZG7t6MBg/wASnLTS/aisVNK7ZEJc/+FJJkkgNKx20r//AXBgvwYXG7WIenUoNBtQRY1f6zajmkcJ/TNjlkCmNQj5dejpNaKr14C+/oyyEr19KfqxGhJVLQHvg8kc5/WJn6ilZdJi3br1+MoTj2POrFmTDunLcohQubaOLvpe5+m7+lBA/3Hr1q0E3jZs2bwRq1YsJ2OYxfstVaAVS5rPsRIrVFlRSR+3GMX8jIBDMl2CAT9MRr0q419XZ1Utvv3BQdXe7e0dBn6PBrm5GTzxGBnEYjeVwYSllp0V0m2qpDiXjMJEH5uUdoaJClKvEs89Hg1GxyaWLUqLbeq1WCROReXhGPSik4ryxIkTOE+W09zcRB+zCwH/MLro2/f09HAc+8keBkjn+9FNTt948SLO091o43MVpSwbkJWCoh8roLxSZK74aVlFYfymWdQ7DESdojlCXVqamzkBvcpHlM2mUkVaFsJbWltVDmg/H+DwyCh/9tF6ehH0k44lgcKiFMpLZV3x2gFeAaGc99QZH557zolTJ4FUCKjJM2FJlQub5+RizUw3VtS5sKjKgbnlNtQWWDGjxI5iAtNm0sGgzSJMfthLi9nRqSMYOSG9smAvCdx6AtHECaglFdTju/QHVyxdqoAyWZGdJhKMeveDD9RWKxtprAR1vvXNb2L92tWoq61R24yutwFXFJTk5NbQAufk5PI6pJ13v7JOFovsRrES6HE0nB3F62/kkr6m+Xdg3VoDrZ1YS5s6x8S5DLCYXKrgsRSdslgmqL8kKhTkG0hrU+jtj6tIcXGRidcp/TG0BGgEnR3DBFsXQgEP2YifYJZdJ1p1WPkeeV7e8SCf4YAKyLV3dOJCU6NyNy4SkLJcJdvOxEKKxTRRqVwucizLP+fOXcCJ06chnZnlNaNRrPi1x+TLJncUiCIy0IWknMdPnkRfbzcn0CApZFwFM2bPmIHTZ85Qm3bBMzaqXg8HxxXFkuWLTIYP2OrEskUmRUevFqGj/tAQLa4PP/tFEU6c9MNlMGDL7Bw8syIfW+fnYsWsAtQUk5qRxuU4LcjlpK0sdGBGqRMziy2YX2rConIrSnMsBLuBE2JiaaLpYopWxU2/0Kaqaw8OcpZpTPhf/vRPldUSrX2liMWTtVHxnWRJRna6p5S/JDtLwqoH4UuvvqL84w20qt/4+ldJKVcqansZJDcTUWxC652kof1DIxy3To4ZlUg4TfBk8fIrDl5zmGOlw6ZNBkU7Z9YVTvr8IiaLB11dUVo8qkyCZfu2NGbPEWuVJmPIwGwyoL7Whe3bLXjkES22bYvSKgfodlhopS20epL8QKc3m0TA54XPM07gyjFGl4M+clMrwdmsrKNEaSvKyxTYxj1evPbmW/inXz+H1vY2fo9Z3atsSL6V6/+iyh0HolAMmWyRaAwd7e0YoOUbpeVrJSWV5QopT+HlQ5GJLeUcFi1yYe4cAmWmDbNmGjBnTgqz6i30aT79MCLxDuzbn8bzL7pw8mRQbSt6dk0+nlhehNmVuXA7rCrSdz2KI8EUp52KIteG+mI7ltfYCGI35pXa4Q2m0DLgR1d3jDQrrrY/WTkpfvd3fkf5Y1efU4IUF5tb8frbO/B3//hD/Pr552kRuqlIrJyUwPt79mLfhx9i/foNePqpJ7Fi2RJ+/43X+64lMp4ycdNkGhfIMrykuVJKv7lFktEj6pyPPabDY4+YMHe2JB/c2ndodYP020HLZ+M9R7B+nRGLFxpIP2WRX8PvTWLTZgfPb8DiBTb68A6VhdR8UY+DB+NqrCQ7Z8miXJJ/IxVbCrW1Vmze5MbixUa+L4rhQSrd/l4V4MnLzUdpabGi3OdIdw8eOohOzpOOrm7FnIoKCtWy15dd7jgQZcLK5JGoqJZ+gfgBAwN9GB0aRm83LWAoQB/HhIcf0uG73w5g+9YirF5pIf0zYTEtYX2tCQ6HdD66cuJnVXRUljFk1/wJ2eVOy/PPt5XivoVFqChwwGw0KE16Iz9DXpPzSkaLyUAKRn/SbTejiNaxvtiKItKtFP3CQCSNSEKSvLXIzS9UyyHSW1Du67LIbvbXXnsdzz//nGpvNjw4REvareh2a3sHDh05TCqux7o1a1QJjzOcdGdpJaOkYTIJhYpNhobJNZtI2WQ5ofFiM0aGhmiJIrTIQFGhGV97RouH7nfREtpVlJQfQDpNCx3rpY/rU/cru1OuJ+HYCE6dzlKxyTJIigDSo67GRR9Ti2AwpgJAixbasHSxMB3xkWPwBQbx1ts2glCLZUuz+M63+DwfdGLxkh5aV0nCMKOmJo1HHvZgy4ZizJpFKx6Kka76aMn7eZ5C+rM5vP5CpbRbCURphmMyW1BUXKw2JV/tT37Z5I4DUUTomdApt8ut1q1Gx8ZI9Qbo4wQwa4YRD2x34OEHrFiyWI+yEtLIAj3y83Vq3ctuuxqE4hdmMUa/c/duDQ4dzgBR4MEFuXhqZQnK8u0qiHEjAF5LJkCpVWCwSJqZy4SSHLPyI61G+j+8bgHkCLmXbAkSMEldUAnYyOcOHTmGHTt30sKfVO26hZYGg0H6VmPo6e3FICeczWEnYDK0Cs04cvQIfaLziiUkCHIbtb5Y2smAUSalbNNqow8mwRNRZqUlety/zYTHHrVTedk4bgKSLGKJCAGbwIf7I2onitNphIPXfbVITaBUeozKLYu9+yQ4RT+72oQH7g+itNjJ1zWk7FH6oRmVSrdgroUKSa92fgyPDqr+GxKM27wxhfu387OVLuTl96Gx0Ua/kdS/JIEtm3200uX8XaPGYWAgipYWD3LyC1QEuqK8lOAzo4dKrb2tVaUESiJBXd1ENbk++p7iAlxmBV8muaNAlC1PUjNU1pdkclqo4WQCBwIhOu4dis499oiO1tCKubNctEzSLenG/oBMmHgijvONYby9I4nBHigf77sbSlBR5Fb7ED+rCCiFKuc4zKgusKDYZYSF543ESD87etFDP1fuSWivgNFiMau6qMdPnMTgQP+ls0xINBKhr+QjMCeKWnVzhrfSYvb39ihl1EZ/yB8MIScnhxOxfILKTkJSHFspitzU1IgQgThvjhHf+66FNF72cE5Y6kg0hfauEBVEhpTPxLHJor4ui1z3x9XHZS+jjKfXJ0srXry900RrKEtEWQLHjA3r43A66JP2a9BwJkGqnsWaNXrMmWlW+xZVpbixETz3goEAN9GdkIgsn1HcrHztM2etiESklVwKy5fLslARqaYk1KfpOydw4XwGWTKFubNnE6AlSqlJMOfMmQaMj4+jtqYG8+bOod8Z4fPepfxvWQ6ScfoyZfrcES9YtJasG4nla25po/Y/zolwhA/yrApiSCEnG6mVLEksWOCj5v3kRtcbSUZtCvbh5CmrygwpJn1cW+9WARndVZZzKkR8rrlVuXhmbRm+u74QlXkWjPV3Y+eOt/Cjn/2c1Ph9WjyhVwWKQgnNvGyNRXMb+G/5KVHC8bFR+L3jqgmMEgnwUBmdPXsGp06dooWYfHNQGTuxoFSknNic6OV2Wqlc5UtLEEusbE9vBm++ncX7H6RovUDfO4bCwityewnmIEHc2TOM/Ye8+OWvXfjgg7gK/sybZ8CmTWmCdoZSkG1tOoLKhByXGWWlCbX9S0T0pgTScnNMas312HEzdr1rxe73/Xjx5SJ+hm/QJJXFtlkt6rp1GiPHK0O6moDDqVebxGU9WYJdwpzqCL6cvHw1NlL0OBqln05G8eOf/gQ/+unPsGffAb5/VM2zL4tMuUWUwZGCvfsOHMZLr76GF199lRPhA+UjHT52DCdOn6IWb6JvM6gG+qnHKzCjLu+mlvCyJFP0MYfa8cP/aUR43KC2Cm1bkIeCHGkAOvVAvCziQxblWFHh1sBArT3mj6CjdxAtbW2q/o5UOpNJFI5Gqck9SHNSVdXWobyyWm0j8kkDxeuIjEMlqdmC+fPVGutkRBbLj5EGn+ThdAaxbq0VixZMrGtKYsO5Jj9BCPpuUQLWhG9+cxBrV9vgtFdznCYsSd/QKHbuTuCXvzThgz1pWqEAqquteJQs5bHH0pg900Jfe6KM4t79YVLWMN0LPTZsSNKFsKkI6gR7MPO5S3/GJJqbyVbOJ1Ui+tlzQRJaPdauyZI261BaVMH3T6QtJlPSuyOAhtMO9PeNYd26daoch/jKUsXhNMdUFNfcOXOwbNkyxZ6krm1XRzuk/KfFauO8qVGK8k4+97slUw5EoUxdXb145fXX8OGHH6KvpxN6bQTl1KLIhglA8Q9HaRXiCrSzZ9MvLJWGnpOL7n1UNPclPXKNZqyd6cLiGulrf2crjMnDNpCu5jroO7pJVTmXA+EEeob9GBocJLXzoZjUavPGjbQkm7Bly2aVfSORP1lHlRxPd24erz+pNP+VkpufhxUrVmLVpQT4yYhYiTd37qKfeRbFhWF+Po3iYg+On8wQfABfQkOD5JJm8c1vpLBmlRTBkoymjwM1yVQ/ry0Ff8Cuevw//HCC15zAyuVmVJXnKVdCS9A2t4XwwV5J1k8RLFY88pAW+blWAlB8cVl8p4UrTKG0LEHf3gC7w8r7NpFWmvDkEz5s3QxUVeYQZEK7J0ATT/pp5aI4ccIBqRm7ZfN9mDVrJv1MPZmUB4eOHsUwlbUAcfXqVSqYI9lEAxxrWXMW9rNs2XI46FsLnf2iy9QDkZrrYnMLJ8Nb6O1tQ01VDE8+FsaalS7MmaWnDwNUlEl7MA0thyQOazmBsqSnQrdunqmSTEcx6vHg9dcNqKEVXD0jFzPLJhfk+KwiYDQb9cixGVDgNMNt1SuF4vGLnzSONOlnWVm5AtTC+QtQRSsnk+pCY6NKUpjHv0kxZMnjlEQHoaxOl5sTbTXu27qVFnHuRwvcNxJpGjM8PII33t6BTlqIeDwM6VbVdDFKyyWJ2xl0dQJud5pASNAauVFSlAOj4ZPRUp0uA6vFSkptU+UgV68yor7WiLxcqf1jkxtWEde3d0Zx6PBEDunKFfQb19n4OZMCoeS26rQ6AlmDokIDKbKF1NJCv06i3masWKZRtNlsEsYy8YzEz/f5Y2hqTuPgQT1ZRApbtxCIs2ep83V1deM9sihRNkuXLOZ4riT1dXPOmGh1e+iSdKs1zrlz55GJSP7rJ/ORv4gy5apEJpl0nA2QPrhdaVImE77+tQzuv8+Exx+x4PvfdeMPf8+Fxx8HCvONuHhRggAxWrnJFzy6LA4zJ4DVcFvrcbcrMhnF+s6qcOPBJcX4+uoSbJtXAKc2jrOnT2LHrp1qWUKWaSRaKkGpYWpx6dArebbbtm3H9u3bsWz5ch4rsG37Njzx2ONYxX/n5kyuJ6EseciEHBkeUv5mV1cSb74Vxz/+T+Dd96L8zghM9OFWrjTg2W+YUFPpVjTyajEZC1FdmY+1q8zYtN6C8pIc2CwFBJZdvS6Vv718jo1NKcSiJsVeliwJq8X2T5YmETBakJfjwtzZDgLVjK2bzFi/xkwFIN2L86hkP/7+TEY2H2vR0W6DP5hGSWkFXG63Cr5IQoRYvbGRYeSSTRTS75bgjIBQMpDqZ9RTweSo7XRNqrL7J9nFF1WmHIhCPDSkCkIXCgs0pCRmDrCUr//4q3JzE/RXPBxYauisVMzW4MRJafIpgzp5BzxN0FMx3jOnPY9WcduSUvzrh8uxdU4+bJokzp9pwI9+9jNS8zfwk5//E3btfBu9na1IJeKQimkPbNuKP/rBH+KP/+hf4E/+xb/E//Znf4bHHnkQ5eWfLPF/PZF7FZBfvLSGKL6i0DShzXLIPkdRFrLtaekSJ3Ld5XwWt8cWMrLjY4BW06rF0qV6KlOCe8WYylf9LCL7PNvaIzh/wcBzmdWeR9nTKQpVMm6kml/Q70NVRQWPShWVluR5yU+Wf8s67gRgh8hCblyN4IsiUw9E0hW3ywkXtXtfvxkHDsbQ0+dTvspl0eudyHPPx9p19A1dKbS3p+grhDA41qYieZMVbzgFb0hqm06uatmdEFE4bpcdz6wuwGNL8pHDSdp45jT+5z/+D7y3423oQ2NYUpGDfJtF9fCQBX7xG9etW022sEo1A5VI62RFotGSPHDkxAmVFiiuQL7djDmlbswqcaMizwmb2YieHuD0aT9CkUaylNuzGjpdloD246mvBPDss8NYvy5KBjKf1u2zUcGRUSNBmOF9aFE3aw4efmA7FXY5pAfJiVOn8f6eD5Q6nkOfUXKSzWQgooDicYmYR9TzlqBOHv1GaWP+ZZApvQsZLIluyVqP+GyhSAbnzifw7rtWTqCPI1safq2FtHLLZj82bzbD4dRRC6Zw7pyTn79xBEwqixkMGfokFoQS9DNDCUTj9w6IIgJGyea5b34eHlmYg1KnCdFwCPnmNLaSqj21sgCziw20jG2XFuBDpHeSPzuR1CwWbLLi8XjR2NiEMw2nEY/FVTreMysK8Yf3leAPtxbjO+vy+DcHYiEZe/pghwtIX2/vMYsltVurUV9ThtqqSridZZco5uSv90qRNUt/qAm7d8epePWwWKWE5XLMqKtVmUpNLc34YM+Hap9qWWUVauvqVJBGxkeWfySdTzaVB0NBFaGWtUdJU/wyyJQCUajCy6+9Tud+J3p7ejkZSR8Gkjh4KI7RcfpJqY+L1Or0nLxlDty/LYn7tyfoeGdhs8mO+UtvuI5Ilo3FbKAlsSBA/6DPG4VPkozvsYgPVlfixNb5+XhkcR5Kc2wocRlRX2LDkhoXFpabkQj7cezYcVxouqio1a2KfEbKjxw4dAje0WHMLDLj4cUFeIDHmll5WDNbEt0LsKzagRyzViWC792rx7i/D6n0tctT3lhIdXW0sFY7rGaplzPhO96qCCXv7Pbhgw8TeO4F8WNT6B/UIC8/n2CapbZ9hUJhtbXq7NkGBbwF8xeoxXyHY+I7JSNLepZ0tLepYtGSMC5bw74sGTZTFjWVSt37Dx7C//jHH+L0qZPw+2QXRZoDCASDCRQUBulkG+lvSHqS7IDXkfdL6+gwQSXFey2kIRlqRlnovxEapSSD7JCwoLWTwKZVLHObUZ4vWfpy3tvT1p9V5Hslq8dlNaDYpQdZlMpXnVfp5LXZeK9ZdAyF0TU8jgRpuvg5BfkTBZmud93CMMQSSIRVaJn0hnxrx04cOXwANkTxKAG4kOevKLAhhwxBuklJ8Ep2U45xzLtHEhj3pVBUPM5xFQss35Xid+n5njs9TpIyF0R3bxZnzgZx4LCflFOLDz/Uo6snznlBIObl85lXw2gy4nTDGbz33rtobWlFOf3AJx57DEsWL1QBLKkEr7aRvf8B9n+4VwUD586bhwcfuJ+uzZejS9WUAFEmi+RaPvf8CzjGSWLQZVBarFc5o5J14fNncfyEFS5XAvkFKdjtBKFuoiSFaNzcHBdKimykQRzUm5hEWeIwGFyw2LxoakzTz8hC6uDOKDQp3+jzAEZJjZtfZsKKetLUPJtKQJfAjpHUrLlnDCcvtKrljlkzZyqQXd70LMC7DL6P0gODIYyMjdHn68Xf/Y9/wAecrKZEEOtm5OIrywvQ1B9CJJ5GsdsEI2ma+OgCTFmq7BwMoX0gjObmPJgtcVjtXvqjMY65hRdL9kGLd6fGaqLcYwdefT1LK5jBgQMpjHsTdFGSvLcJF0Yin+3d3Whpa8fLL72sepIUFhZh3cZNePqJx5T/LCAboV+9d98B/OP//CEZ1gDqZ8zEfdu2YeXy5Yri36vnPZUyJUCUTIddu9/Bzl07+WgT2LIlB7//u358/WucbLOl/EIBHfQkJ5OBEyRLgKZIRwQwE2C8VdFoUnTgO/lQ7Ojo06B3OCzBV1pGAymUgSC/txpSJoaJVFUWpy9rax3/VuTi/SczpIoxtPUM4xitQHdPn/J9JL9SQBcKR9T2oNHRMdUda/+hI2qf3g//8R+peBrhkoptdS48uiQHRjKL106Oo9cTRY5NTwB+TB3zbVo4TVo0D8TRPxakXwm0tNpoTYxwuT20V+0wGWipBZR3Qni/Go0Z0o7O5dJh9mwztm7NoqrKQbpppfI0IBJOqS1xPV1dZFA+lJSV4YEHH8Tvf/97qKioUEGskZExvPf+Hvz1f/9blZ/rys3FdoLwsYceguwLvXpDwBdVpgSIsg9v7759uHjxAooKNAqEC+eTeuUV0toZUVZGTm+xEzjk+X2S0SF5hlHY+LfbohV8yEZOIqkhMzrKKdWdQfdoGOOhDIJh0p5UAnpSQaNhopbMvRAB45WaWn6X68m1k7o69LDqaCE8PjS2deHMmTNoOHsG54iWhnPnVOra4SNHsI9jevTIYfpFLdDH/FhcasR2jut9CwpQX+bG4HgE+1oD8EVSapfI/KqPe4VIPR+nRU9AahCOZTHsS2BwmMdQBn29JjResNJPM9OPJM0fjiAWD8Fml56VE1b1s4ooWImuOskOpG/l7Jlm1bdyVr2Z/l8atXUEqFODeMxIEMY5J9KYNWsOtmzeDOkSJq7O2XMXsGP3bir4XWo3hoBw/boN2LZlC+bPk+SH62/n+qLJlACxrb1D7Tzo7u5AYb4B333WpELLkixsNutRUJDlYUSULt3AQJbOexpz5/Bv+Y7bsl7ykKVfhcWSQFYj4NOgfySL3tEoesdjGPDGOUk56XwxVVZC6odGY3wvKd+1FrbvlohScFgkK8eodnTkmrOwaCLIRLyIBLwIekcRHBuEb7iPRy9i44OwZ/yYna/B6loHNs3Nx3LS3epiO5WYSRWjOtYZwrA/pTJ91s7OvfRNE99lNhKMZi36PXF0jxFspITppAF9pPOdXaSu3QnVubi1Tfo8pmHi9bidUuV8aiKRAmg5l+zSEKsoW9rc/Cnry4UFOhQXZTgv/PxeExkBlZbGovasjtM6Hj12HB/u24tDhw6pXSpV1TXKEgoIF86fj1yC8l4p2TshUwLEYdIoiXi1t7dzsLXYusXJwZ+oGibhbqPRQYBmIPWCtdoY3xNXVKUw7/aAeFksliyddU4ed4bfk0JLVwpdo3EeMbQPR9FCH2ksEEXXSBg9tJgj/gT80Qz/lqCVSNK3SiIY+fQhFltK398JkcljpS9b4DKjOt+I+kILKvOsKHEaUETrVe7IqqOC1mJmoRHLa5zYNNuN5XVuzCp3I88lu+7FavH+CbQjtIjdvGextJvmuNX5r7TEYmmOtvnR7YmhsFQqHmhITX2kh1Fksmm6FRqyCh1pMaltRRTlpVbYbHdWWUmwSFLkCgszBJifP130h2VzdQCNTd0qY0ZKcPaSiorPPXf2HGx/4H5FR8USCgi/bBuFNU6nMys+3mcRSbf66c9/gRdefIF+SxB/8icabFyTh/x8qZX2MdAkihaJD9BPDPNBFPK9+XwoHFAeV77vViSTTagiT4PD/fjf/10J6UwY0pZMT//JSJBn5fycnHpOTpOAgAArcesxs4hW266Dge+7WopzrFg9Z6LXg8xpyVzR85CgilgZcUsuT/YrJ/3tigRmJBFcQvRXivg/oqiELl5P+//7F1vw4QUP5pZa8P96sorugOsj5SY5qd1Dfvyvz3eiP5TElm0ZPPWVKKoqx/ks9PTP8jjxXWQyUsQphUcf6UJZcS2t2Kfb4d0pkWJi6YxsXg7jZ78I4/U3Juqt5hUUYsHCRdiyaTPWrVmNyspyVTv2y+ITXi1TAkTZcfH2zt348U9/hlPH92Pt6lz84A/jWDRfqkN//FBl0KW6djabVIMfi/eSiuhgMhQTELfbW0HOSXoaSuGXz0fw4kvjCIzRmhTZMLvEhIaeGHykwlK5WprbxElPsxoplsjPZaRW6afTtQR44mOJWI0mtQexKteIfFKshxfnKXoplEto7o1Acisi0dLryY3A/u6pfrxwdAihRAb/4r5SLJ9VrHxRkVAkjjPtI/g3v25FTrEVX/1qAI8/lkKuayZf1SCTnigRKRFWmd9mc0rdz1T4iLciMi9SySyeezGMH/3Uh9GxFB578il879vfogszS2XRTIzzlxOEIlNCTWUiSukGyZY/feYcfPTPtFpJX4vSVwxzECd6WKjOttFRDAx6ceK0EXv3maiRbfy7tMMOkYZMvkThxyKrZlI3ZQS/+nUWwwPA4nKbCu1vXVSCFTNy6FvlYcu8XKyud2BOiRFzSywozzHAYTYQaHpaRuNHh/xNr9UhkeJDz2oR5AQfCcTQMxZG63AYxzr8ONgSIO2NwBuUqthJmHRSvuGzBYYEbNc7riUCXMnNPdflx7m+sMq7XV5lR1mBKL+J6xj0xrC7YQQnuwKYM8+K9WtdmD2DtE5nI/BkCUkLg2GiYLP0xZhoDX7nJ3uaLCYSHUYg1Ito3ENlnOazl32IE81x+voyWLh4KdatXvXRov3duK57KVMCRBHJkJcyGLLtp6urDx6PrIVl4XBmSVGlhHsU7R1JnDiVwL79Sezdm8XJU1nSWj3fk0B1VZa+4+R2H1wtHm8Kh4+G8cZbSTi0BmyZk4OtC/JV2pnUnSmnRSvPk58Tv9cV23k4MKNE6py6sLja/dExr9yO+iLx20yYTX9J9h66rVrYSEktRh0GvKR7VDS941H0eiLoGY8rvzLHaoDNPDXW8WYiFDZIa3e+24d3z3vQNBCm8gAZgFVl9xgu1YAd9sWwv3EMLSMR1NVb1Lak6kpZd7v7aWGyj9QfGkZffxYtbRkq7DhOnU6ipVXLOSM1TGNKoY6OJUH3EHPnL8CyJYtVScXfBJkyIErOn1Tgstns6OnrQ1/vuFpaSKdpafKiqsPu+x9k8M67Whw6rFHROmFALgJ1Rr0GdbUWOOkD3KpIVLS5JYEXX9agoy2GldUObKYFnFH2yYwL0agS5HBYTWrBXXbbVxfaMbPU8YljBilcXZEZtYUWBcoZnNwziuyYxdfmlDloMXmfZq1adB/2J9A0FEe/J6qakhY4JLNl8gnctyOqYHMgioYOL3Y1jOFgmw9DtNhmUukSlxmLa3I/otWS+tfY48PFQSmzb0Z9XRqVFUm+Prm6OFMlAsIRzzhOnfHi0BHg8OEszpyREoxWNDaaVSPYZDJE9yGNoSGNWvOcBuJnEJPJjOKiQhjoV8mesu5u0tD+FGmjgwOsxds7YrhwQToNJZDL8d12Xy4eeViL1SvBz9EP0N76BJFyCwcOj+PNN9Nwkx4/u65IhfjFr5D9dBIBlSDLZKmN0CBJFZNixHKU5NpQQ+s5i5ZzJoE4u9iIRRUW1BdYaCENGPUnaSXp75LCSpCnltb2TkmKllBKdJxoG8evDo3gGCmnTF7xkXmH9GHNWDcnj6Cc8BGj8RQGx0M41R2kwpIN2HFV1tDpcKj33y3xBYZxosGLX/6yBAcPptBPKm23y/KVFn5/nIo0iLZWCzo7begf0PD9wMJFiwnERXRtpoF4yyLOtGRDyD4yKa035vGio6MfnWrvWYqgSaCwwIzt99nwgx+k+TOBOfThJJ9Qr5cI661PjlMNwK7daQx0R/AHW4uxdk6hquYtG0bHvEGcavcoKyU1Sz+rCKClD4ecv4LWdEGFHavr7LCbdVhcacPcCgdfu0OZKpTOwXG8c3oEr57woGU4hDW1TnxnfbGyhj0egqzAhvVz8z8CIhFK8Cbx/oVxeFWBZBPBaEEFraJWS4p6l8DY0qbFu+9pcOBgGHNm2/EHvz+Gb3zNh40bgli92k/WVIreviR6eyLKT8wrLMajDz6IuXNmq4oGvwkypUAUUYEbWsTiIimb51C1KXv6ByHFaYtJ+R56MImnnkwRgCVqH5/JaKEllOWLW5sUEn09dyGCne+EcfZUEtVuK76zqQrFeVJmT4oCJ3G2y4tfHB5RfS5KSc2mwuFXVch4j7IJV+qfqpKLRQ7U0zfLd1nUutdUigRlJOm5tc+Ln+3rw/5mP2z83q8sy8MTK8sxvyoHY8E0ukZIT/ndy6ttsFn06hqT6bSyoLvOeRCJpeHzp+H1ZqlMpG7sEK2/UHaJkk7tNV8t3T0ZnDolpRjD+J3fTmD18lyUFBfBYc9DjisXVVUmtLVn6T8mOcAG1NTX4yuPP6Zqmt7KXs0vsnzsRE2hSDROol2bNq7Hk088gRXLV6pAjpRin1Fvx+yZLlX0R6J315sEsnUmECRHuYZIQnE41ofTZ6VfYAL6FLB5thvFuVYYLwFBaJw3nEQrJ2j3aIjAjKu/T5UIqC/T2Cpax2JSWMlznUpRVt0Xwen2cfz68CAa+6Oq2/AG3uvDy0oxr9KlwC/pbeKf+iIT/qMs1YgIXR70xhVFN/HaohEtGs4k8cJLYezYpcHhYyk0tYTRP+jFuH8Y/lCv8uemWmQPqUYrJYo1SCSMVCxyTQl+FxAMSdPYiTVUuU6J3EoVc2nRRyNx6QxffrkjQLws0lJM2o0tWbJULW/wkfA/KYV/Yy0XDCVU/8JzjX7E4j7lA10WWXNKkm4NDo/T34whNA7MoKVdP8cF06UgxdUyNB7BeHBqgXinRYIyA54wjjSP4fUTgzjYFkRdkR1PLCvEtkX5pMZSMGvifvPtelTlGWFWrbllXXViTTJEK9g+FFXrp8JG6uttVIB6nDghYDTj+ZdSeO31IFmFF/sP+nDoyDgam6Po6ErSOiUQCEn2zfXXNycrDkeSlDgJi9WMI4dt/B6pGO6nIg3hgw8DeP2NCHp6k0p5yvPN8KcA80Zrq182mXJqerUEgkE64604fvwoAZhFba0PNTV+Wo9casorgSMaMaX28Z1r9FJjp3GxOYl5C/pgtxQoTSky0ZA0gpOnzKpwri1pwLb5eVg7u0Ct5V2mnxKo6B0N4nB7CEUOA2o5icVifhFEJqDHF8bexjG8fHwEJ7pDWFRmx3c2lGDDvAIUuD9ZMl9qqGqRVkssK+tz4LKbFUhH/DEcahZ/MoKFi+nPrqb1rtLA59WjuzeElpYYzp5N4cwZPZWanWPqwOCQDl09KQyPRmCx+ZDnlnbgN9LXE9u2YjGOeSyrjlh8ojW6LF/JR01mMhtNCMNDNvT0yJKFHU0X5fv0ePddDa8hpuaCPLpUWgM7LeKShQtRkJ/3G2MV7zgQxWcUcOzY8Tb8nFw6nR1Op50TIqiipJfBKOlv/lA7Dh3N4IUXpAlKBmZLFkuXmpDjzlE+j0gmS8oaGsTOXQ4+zAzmFFixfX4ufUMp1/+xDyjZPn5awUOtQZD5oIZAnFH6+Xf8BYTSGvvNE8N48/QoBgJxrKx24fsbSzCz3K2o8NW+rgSiynJp8Yqls5WDCmkiF1XyaUUZnekLorjEglUrJUAyijlzZUzd0GstCIdJ4f1RVd5wfDxK+io9LXV8RhkqzRQKcj+2vNeSTCbG5zGCd6gU396ZpHJM4MDBBGlvHEMjURQWGJCfZ0d+LjBzdjfq6sxobwfOnqcVpM8oHGnFSiceeSQLh02LoSETgWvFsqVLUVZWqpbEfhNkSlLcbiSSRyklNP70z/4cp04eh0EXxawZJgLMiBn8KZkdY6Ma9PYlMDzsR2+/VpXSnzNbhyceN+G+LWY4bRPJzCKSV9rd14J/++dF8I8Y8Mj8HHxtdTFKCz+ZHynJzn30Df/Vz1sQiqbw9TVFeHZDKWykR59nCcdSeG5/D945Owo/r3t+uR1PryjEvCq32nFxLVAIncuSkkq6nl6np38dw0WCb99FL/Y00iIOBVFR6cDTTyXxyENZOB2FGB2LqOSLcW8YEfqWl8VhJwhdZuTlkkEUOWldPx77a4lsrXr/Qz/eeDOKwUEyGlpDESEwuW4d1q11Ytt9McyfR6uHHH6XCS3tPRgeCRDwWZjNGpSUuFBUkIfnX0jhV8+nUVpRhX/9x3+imrhKe4bfBLkrFlF69E1k3YxhzBPEqIe0sS+Dzi5Z1ojh1Omo6mff2kZKEzNg3rwMHrxf6mI6OSEsl2jphBXwBVI42RCnhaWVc1mwfnYeZle46IN+MltEllLku/vHwuj2RKgA6LPmmFRQ5fMoorAGaZHeOzuGV44NoG88rpIKFO2WUo3XAaGIWBWxkvJfIBzFvgse7DwzgsNtPlrUNLT0nQUg0v24uIQ0vTrOcbWipEiHygoL6modqK+bOGqrrWoHhlgxi1mSrD8e+2tJS2sC//PHAXR3ZalYM1i1wogli7UEVxAjI1ZIGf5AIAGbLYvyclo9AruoEKiukjqldtTV2FBabEcyqcXRY6TK57PIzc9XzVwrKsowmYLLXwa540AUkehiBWmGjoC0WK2kHjb6Elr6I1n6Ijp4xjP0JROqCG8tJ8Uzz6Sxab0NxYUuTrCPJ0ImG6e1TOCNNwzoaEthXb1TFU0qy5/IZb1SJiYn/RNNEg29QYyHUiqXVGrI3EjD3wuRwMyQN4KDF8fw64MD6KS1qsq3YMvcXKyfkzupvh5CaRPJFM51evD8EVnsDyJtTJOGajGjPsPxpr8ekNqxknIYoCVyQUrgm03SPSoXZiN/8jAapNAv6Shp65Vjfz252BzHj382TuBa8PWvG/DVp53YtMGGmbNitNB8/WICnZ0SqNPyWrxUKPlkQU71PSajmz/5jKHHydMx7D8Qo6U0o65+Bu6/7z6UFBf+xixf3BUgyiSSXNRFC+Zj5YrlmD1rNvILCuHOzUdZeTkcTicno1STDqreCps3hVFVaVTLG1dKnLT0zPlR/Pzneti0Bmybl4O5FU7YLdd+WJKsbzdqcKTNjwFfErk2IxZV2lQE92YT+26IgEf1eqTvvOf8GF6jX3hxKIxSlxVPLc/H9sVFqCqeXCK8BEx8oShePTqMI+1e6G0aAsKC738/gwce8CKRsBEQQGs7lV4gl8rQB6stzOei4zjfPl3v6U3hw/0JWi8L7t+mRU21NF21kdLSws7oQEuLBe0dOt6rbAa302e8nJQ+EeQR5REIjeHll7U4cUrLuVCILVu24qEHttF6/mYs5ovcFSBeKVLsp4jcZMG8udi4bi02b1yPmfX1fFAaVURoeCiG+nrSmDJptvlJWjI4nMSRY3Hs2xtDiduCrXNzVErZ1bT0sgjYpHZM22CYViaKYDzFSa5XzUwv71C4VzJhwZLoHPASgCPYec6D1pEocqxG/O6mQrVzRApPTXbrj6S6DXpC2H3Oh6Eg2cKGDL75DdL8WcUERSFKSv1qI/XIsAXHj4XQ3m5BTm6GwDB9apxvRca9WTQ1ZzE0lOT50rS2Kbhdsh5IKq03IhiyYWAghVAoSepqJSWdKBki+0j9QS8utkq9Izv28plGYnYsXb4C3/r6179UpRInI3cdiAIO6XEglEM1nKQPIGlMEj3t7R9Ab08fwiE9XO4QyisCisJcFmn1tfudFAb6klhcYcfGuQUouclkle+TamhS02bAG0Oh04jZpXbVZu1eWkVpetrc68U/HRjB/uZxDPkTKM8x4xlawm2LS1RS+q1k6Ui1gfYBP94844XJocO69XGsXpWEw5av/DzZEZ+fH6Xl8tN/kzZqFixd6kVluZ4W7NPUfrIiW9sy2QB9/SwGB6V0phZGU5bKNgwNwdjXN0FfpV6RJJvrDbIGnMDR4yk+S+DDDzNUrjF4/QasWrWO1PZpLF60QC1b3Mvnc7flrgPxapHBNhokJK9V5fWaW1uptWN8oElEIjqEwhaC1s9DjxMnM9izN45kLION0o6tLhc5jpuvM2lJizppbVpobfX0e+aWmWGn5blXHWdjBM3FPj+eOzxIEPrgobWozjfj/vm5eHBJIcpJ3241VS5EYLcSiO9cGMfc+XqsX2fAjDpJ95ug93qdgZZPg8JC+uvlpIiFYboBRlovB/3B26emBkOadHKi1dzQoA69vVn096cwMpKmQjXi0JGECsh5PGk+Uw2GhlO40Jjks0ygoSFJnz8LjS6HSmM9Hn3kYaxZtRIul8QGfnNAKHLPgShy2WoNDQ2j4exZVd1scFCLjk6z2igaIIUZGdHi5MkkmpoScFkMeHJ5IWmpAxYC9Gai02TVlqXOkZj6WZFjQHGORaWk3c0HLnQ0HE3gYr8fuxtG8crJMcToI9UWWnH/gjwFwpqS22sxF44m0TEYxF5a11VrtFi53HEp2PUxBRfAmU0O5LiNZBtBuJ35BOhkraHkvKbpX8YwMirJ5AmeO0YgJuF0GehKSHAsAe94Gm3tskivo+VL4+ixiWrv/ChZgAbDw3oqoiKeLx9O+oN1tfVYvWYtnnz8cV7zst+Y5Yqr5Y6vI05GpIp1c0sLnnvxZbz80ot82D7SnYm0Nkl34hxQIhNZfKhV9fn4D8/OUX0KJyOyNHCucxyvHhvAGw0erJ/hwvc2VWBBtWyXmtr80OuJrPFFYgRhzzheODpCX87Le0zTZ7XhW2vzsXVhkUpbu10Z9UWw99wA/tNbXXjya2Y8/YQDc2fbMZmek5MRyWga90naoRenT9tRXR1GbU2IPqbsQy3jOJp5f+1UpDrs2ZOLI0fi6OrxEYBZtXxldziRX1gAm82GzRs3o7a2RiV+z587R4Hv8xbJvttyzy2iUJre3l58uHc/XnntVdUXz5BngZnWzuikw08qadCK1SMaCcTyHBOeWJqHeZVuPuDJPTx5yGIVo/E0mgbiaBwIENBatXs/13HnF/hFEfhDUQJlGP90cBRHOwK0TsCSqhw8vSwXmxcUozTvsxVGisVT6B8L4UBbEAaTFZWVUVRVyc792yk/8mlJZ4LoHwjj3feseP2NID74IEaGYkVnl4u0MwtfIKB6HkpWjsMhfUwMVK5RPjIdyiurcP8DD+BP//hf4vvf+w42rFuratFUVVao+MBvOghF7jkQpY/B3gMH8dobb6KlpQlaPkDDHD6cOjM0JUZoZcNwJX9P0DpGMyix67FtXi4qaT1uJfIpVd0SqQx6R8PoGItgLJRGAYE+s5h+1C36Y7cioUgMF3t9ePPkCN46M6aWJ6wGLdbPzMH3NpbSz81DwRRsn5KUvkA4jobuKMZ8aVisWZSUmFBAgE+FyJqiTi97GgeQSLgRjRgxOpZBVxfvr1lyf+M4ejSJ48dTaDiTID1NIqt1Y9HipXjkoYfx8IMPYME8spicHEibNemFOJGK95vlC15P7jkQjx4/ibd27OBDPIJ4IgpTpQNaaWCaTyto00Jr10Er4e6RJNL076pyjHh6ZSncDsm4mfxDlFxVye4fD0TRPBTFaDCp6rzk2vQopI8jftlUT4ru4SCOtXrx/rkx7GnyoG0kCpdZjzX1bjy8pAArZubBZZNGrlNhEbKKzksx4Z6xGLwhwM5zL1k0NYnuAkQpMCU1ZPPzLSgqSlCJptHRJY1TtXDlzODf5pNmzibY6lFcPAPLlq7AfVu2YN26NZg1o17R0mngXVvuGRCFrknTzudffAkffrgHY+OjMOVbYZjJhyUgNPCBqWemgTaYQbo3hhSBWFdgxTfXV3xip8VkRN4rb5cSih3DcYxHEvCFk2rPXgGtrNsuUdTP3pRFwC6FndqHIvjg/DDePTuGw+0BDPiicBKE62fm4uHFUrE7l77V1GxWFpHeGkZqFtmJ0Ukgdg1IyUotFi4wq2jpZ6G9l0WKRZtMLhQXpVFZlYTPr0V7u573rMPylavx2COPYvOmjSphe9myZVi5YgUWL1ygtsPJUtW0XF/uGRCjsRh27HoHr77yEulNBwz018yzXcjWGCUv7dK7KHQNteEsUr1RaAicGcU2PLai/LYmsKwd5hBwsoY35I9PlOb3xWk90qrqtkRgr8znvNl3SPDossimVqG+nmAMZzrG8NO9fdh1bhzNw2FEE0nYxRLW5eJrq4uwtC5HWaupAqGInEuUk/i+kkXUPx6FNyibb3WoqzXCbJLek5LcLUEwqXMzUdOVl0b/Uo6JrUuJpPjiaVXikCeVREF1/ssi/5bFeovJguFhA1rbUxgdTaKiqhpPPPowVixfSv+0AhUV5ZBW21ar5TdqYf525Z4BMRgM4q/++m/QcvEisqSgpplOZGeb6MzxwV/57GXX9mgayYEo6giirXPysKT29souymSVHfxzKqTEewrD/hh6vVH087jQF4cum4JVn4ZRy+/kNUjx4+uBRTYri1WX1tmSpjXqC6v6OK8eG8LPD47g4mBAre3JZHdbjVhZm4t//kAFZlfkqATuqQThZVE1dcxG1FOpaIi31v44ztF/C0Z0yC/ooX/XT+s1hmRyhMqoV21Tajibwd79Gew/SP/uZAIXGhNIZvrhzhmgT2hWoLsajCLxZDcuNIVx5qwBwZAWK1as+o1efviscs+WL3w+H/6P//h/4f3du+BLB2Ga5YR2nhnZq4FILa25EEOk0YsFbiMtShmeXlt56cXbl6NNQ/jZvl7sPu9RoJBCw6VuA0pyrKjIlRKKUtfUphqP2sxSjfxjrR5PpFUj0H5vDIPS849WRCKxfbRCY/Q9x0IpFTwRsRgMmKPaaxfgoeVlqpDVnQDhlSI1brqGQqq48C+ODMOZo8X8+VmUlmpoGUlf01n0DcRoydJ8DlqEwjokLzVd1tErKCrMYM4cPVYsc2HmzARKi62X9gWKBfVh3JvCoUNZ7H4vjbPnZdtUCf7on/9zbN+6WaUvTsutyz0DYiQSxetv7cDf/93foq2vA6YaBwwL7cg4SA2vjF0IEE9HEWoex6YKG767oQLr5pVcevH2xeOP4O/f7cBPSCGvFLGYkjBQ4jKgLMeIXLv0yDCpSm2XJRhLY4g+n6TMecMp1QF4kNY1HP94X99lmVVsx4MLC/HEyuK7muMqVvpCt0/d3z6OndGig52+sIn3kdVqMT6eQsAXIQBT0FNZOJwulJeXKxoZCgXoa/pQVhLHrJlZlaxdkC8ZTFn4gyF0tMdx4qRWFXyy2ouxffsD+NY3v47qqkp8mVql3U25Z0CU9cOe3j782b/9cxw+dhj6AhNMi9zIlHHCX9kY5gogPjXHjd/bWoma0rxLL342+e+7O/A3O9tVtbPric1ohJPAtJk+BmIkkYE/miDwbty7P89uwEMLC/DMqlIsqM2/9Ne7J31jYbx+pAc/JBhD8Qz0Vj30sjZ7KREi4YkhRctuNplRXVePxx97HJwP6O7qxOnTp1W/er02SZ9Ph9zciWdCHGJoSEerauJ7c7Fk6VJ86xvfoMWdC+NdSo74MsrdUc/XEFlDqq2pRkl5GcxGCydEEtnxpMQRPi2XYiJS8t5xnS1PtyM2kwEu241zVcOJBK1dGG0jgY+OAV/opiAUf21FtQtb5+VjdvntZ8zcrkjgSNrQXRyMkCZTt3HsTMU2WOa5YVrqUoeZ16entZc0OIfDjgfu24Jnv/oUfvu738Gz3/gmVq1dB7M1B82taezbH1H7BenSw2wr5msb8ey3v43vfutZLF26aBqEn1Hu+TpiY1Mzurq64PPLHjoztAVXLl1QUvRMehNIjsewsMSKFXU5aifBVMjweAQ9IyH0+6QV2NSJgDDHbsU313LCzsyD3Tq1EdLJSEPHOF4+0of3mry0+FRi1U4YZtiACqOi/1mrFrqsBukAfdyxCLLpFLZt267q0cqiu7RBW0Frt2nTJuQXFqGotAzLly/H17/6NXz72W/gvi2bsWThApSWlZBuT0dFP6vccyDq9QYM9Pejra114t95BJmFk5b0VBMjLe1PIt4SQCqUgN0g/SVMqtHKVMiQN4rWgSDaRyOX/vLZRQDnshrx7TWF2Dy/AMU50qf+7hAPtdGYgNp3QUowDuFgqxeBZBbmKgd0s61AMa2WidciuOEPDQkIQhlkJbhEX9FosaC+vk4tO8i+UafDiQL+XltdjSWLF2HZ0iUqNa20rBQ5bpdampB+ItPy2eWeUdPLUlNdhXnz56GkuAzpUJwTg+o7TgDKBOmLI3ExgKQviiyplvSKHwnI7JkaKXGbUFs0dTVRJMwvXaFW1DhVG7jS3DubPnelyG73CP3WE63j2HF6GIfbvBhLZmAqpyKYTUtYREpv4eO+4oln7bSK+Ubo3UYk4nEcPnIU456JKLIEbUwmI+w2mwrCzJ09CzMFpIUFKoIqKWrTOaJTJ/d8JG1WK2pqalFbW4dULIWMP4XsGH92x5FqCyPRH4HRYFaRvURaowIlUyWySbi6QFLlpmYYJI2u2GXGhhkuVBc5J7VFaypELKEkKbQM+JUlPNzuUyA0UMkYZtmBMlpC86epcZbMQ5Onhz7XqM7R292FkdFRVc5xWu6u3HMgipNfXFiIcvogEqhJjSSQvhhF4lwA6YE43O4c1M2YpfyUYFKHPu/UWURJ+zIZ9LCZp2aB3ULqLK3RZpVaJ+qP3iWLIdZwgP7u7oZhvNtISxhOwlBghnG2YyJTSdZmrydWHTRuWjda7qDfh4sXWzA4OHTpxWm5W3LPgSjRU6E7tbW1qm96YiiMcLeXNDVJS1mH3/3d38ef/at/hbXr1tO/sWE4MHX+nI5+qJtUsi7PAumR/1nFZdGjptCKGWUunu/uDW08nkTHUAhvn/EjGEnQEpIS15GOik94M5G4l0MHHcdBAmTvvP8eTp5pmHhtWu6a3HMgiricTrU3raKiGposYLc7sW7dBnzvu9/Fk48/itWrVqC0pAQGoxHReAIeX1Dldn5WESrpshlQUyAJ358NiOJTVdMKLai0qSjpVCRZT1akElyYYBwNRlVKndahh8alR/bKnN3riGQyaQhEQ5EZOlr0vt5enD17Du3tnZfeMS13Q+551FREoooGg5F0zgSLxYqNGzbgoQcewNo1q1FZUQ6bzaroUld3N+L+UcwoMKEoV7pJfTY9InRUyj/I1qiGvhASqdsHt53XvrbehS1z85B/VW+KOy3i30n78D5PWKXXaZ0maOn3iaW7qaoVrFJpaAjIzJDUA0rAeSnLpr6uduI903LH5XMCRJ2qYSlWsbKqClu3bFY1UHNzcz4KpISCIbR3dKK/txtus0b1BZRtP59FlF/ISRxPJHC6J4JQLKWsy+1ITb5VtQxfMYPXdZ3yjndKdASSgRZdktWbh2KIJrK0dFpobQSiREpvJuJDyvtGUkiGErCYrKjgc5DW2dNyd+SzzeQpFAnaSMKw9DsoLyvlvz+ZQWO1WtW6FRU/mgepuVO3Fj0VKnstOivZOtUFNswtnuiPfzsigF5YYcWccsc96a0hQSFpmLqsLgcLKpwwR5NItJG+d8QAsfKT0S0EsqHYopIpAoEAvF7vpRem5W7I5waIN5OK8jIUFxchCT26xhOqBIVsQ5qMyPuC4Qh8wfClv3wsss7nclhQnmuARTJ6blEEhJKPunpmLmaW3l1KeqWYjHpUFLrwxNIczCwkbQ+nEO8KQNuX4gBMAonUa5lgBtnPQM+n5fblCwNEp9OBgsJCOJxuhKjxe0cCiMQ5ySYhjT0+7Dg1rEpWjPtDn7CMYk0sJgNmllhQ6DST7t6aVTSR1q2f6VSlHa3mqcuDvVURhWAmGBfV5JIiu1EniQqhDBKtISAqKLv0xquFukzj5f+aYkgMcGw4psFgAK2trTh67AT8/sCkFd603L58LnzEyYj4igODw2hv78BgfzfqC02oKLBft+/FlfLy0QHsbfIinsxgdokZTvvH9W4+soHpFC4OxtTO/ZgkZ05CJOpaQPB+fVURFtBnncy13Em5DEa7SUtllVb1awK8Hx19Vq2V/qKRevcKo6+JUiENJZHuiCLZGULSF0eGlF9KWEajUQyPjKCjqxPjPj+kUY70DJkueXFn5AsDRJEI6WV//wDOnjmNfIcRs8tcyLXfeKOtLHb/+MNenOsJ8TMmLKm2ItdpVSC6LJKaZiYt7RmT3foxeMURnYTIpuFFlS48vbIIRW6e8y7llN5IZCycFh2GvAk09QUx6o1AQ6OoNeugETAK/aZ11NBKZvsTSLVFkO2OwkIqW8PLL+M92OhUBoIhNLa34+y5c+jr68foyCg8Hg/GxsZUX0WpTCC7NuSeJdg2LZ9NvlBAnOixOIr33nuPlJAgqHISAKZPgOpKEQoaDEfx1qkhjAaSqC+2Ye1MF1xXWEQRmbySVxlPxBUQe+iDCoBvJPKdtQUWPLU8j3QwD5a7XDX8eqLuOZLAgRYvDrb6EUskkYomoE0QMEYdtAQpImloepNInPcjOxhBXlaLJXYbvmcz4T5a9SoTrZ5WB29SitnE0NvdjRMnjqtx37FrNxrOX0CYSlHu12iSDr9X7oahWrv3w/CFky8UEC2kRaOjY9ixYxeyGQ3qCgwoJhBt16GEQkX3XxjCvqZxlTmzsi4X9y0qUVr8WnPFadagjyBs7I/wszf2P3OttK5Vbjy6JB/5OTfrM393RIEwGFb5pu+dH1NKRcP71tJyie+npaHX+LJINYcQbvVCE8tgMUH3jM2Cr9FPLuXh1htRTiq7zKDDNiq+xSYdLEaCjYe4B/54HCPDwzjTcBqnz55F/9AwTAYZ/4lEccmU+jyMxRdNvlBAFA08Qmp04nQDPD4favMNqC4g1bxOtW5Z4mju8+Nklx+ZrAbzyp1YNTP3miAUMXDyDdFP6hwOYyR4/cRnmZD1xVZsnJWLlTPzYOYEvtfWUHw4jy+Mt06OYBdB2OtJkGbq8aB0gTKYEOBYhGgpU36CM5TEAoMZm3nd95EJLDYakMN71xOwspdSz8PMw6bXIYfAqqJvuJDgnM9/lxLYDp7Xl0iQZfhJW/vQ1NSIjp5e9A0MqhIosjNDlpqmKpn+N0G+UEAU8QeCaO/sQmtbKwqtGpXbWZIrG28//dClxmj7YACnugIKiHPKnFhRf/0KcGrikJL6pWJ2T+DSXz8tDrMRK2qd2Dw3F1VF974DsUQ1pePwnvOjeKthDOPjpOG83/tIl9eTRVReuj7pQekmk1hCcG23mLGCIKwjwNy0ZGI5PyEEoqKe/KybRyFfL6SlKyEYKwi0fL7dkUmT9kYxQJbSPdCP7p4e9A8MYHBoCEMjI0JS1frv9O79m8sXCojSMaqvvx8nT51CS/NFFXeoyONEyzdfs5nMlUBMpTWYWWzHMgJIliyuZ78cZi39qhT2NHqRvtQI50qRyVmdb8Om2bm0rhOlEe+1SO99afv9+okR9IzGsFCrxwME4VpavBLSxhLerIAtnwCs5zht5DUv4+8FBKFJQMh7uqnwPQaCUc5TxvGr1mkUIAukwQxfTtA69o+NoL2vFy2t7WhuaaUfGVYV5URRmYzGTyVpTMvH8oUAouRSCgil2NQHez7Er577NWKRCBIpDQockrRtRo7z0xt8JV2tbzSEEwRiJJ5FBS3nokqrmhTXm3yywO+LZnG6I6AKRGX43ZdFPiM70qV3v6Sz1ZcS1NewxHdL1D7EeBrvnZ3ovd82FMF8swXf0GuxhICzysTnbWpoyQp4zCKQ5vL+io16dZ+TAuA1RD5nISCLeI6ZPOdynmY2/XQfx8IbjSEw7sHw4ADONjai4ew5BENhtdtfldzn+2XM5By3+fVfSvncA1EmW5QP94O9+/Gjn/wEr7z8MoLUvhIYkN6CUi6/rtiG0jzrpyaWRDZlrXFv4xj6PHG1fDGnxKz6Zlwv0iqiRZoTLYnT3WHEr0ilk5zOAocV31hdhOV1OSpJ/V6JjIts4P31gT68cmwAvWNRzCQI/8SoQy2vy0Brd+V4qIkvTID3MGUIuHRO2bUhvuQyUt3VJj1qhZ3QLx2Ix+AhKM+fO4t9+w/gfFMzXE4X7Hab6gg8HdT5WD7XQEyR1ox5xvHWzt145ZWXcfz4caQifswhxZxdbFUWiywSuTYCrFzKUlw9+Wjh+LB3nRlFnzeOAqcRiyqsKMy13xCIEmG1GjUY5mcCMU74S2CUCnIPzs/B5vmFCvj3yje8HJh588QwdvLeWofD0PISa+n3yfKDBFmuVkpK5E9TBcLLwtPJd0mQx8TDwfEu4nOYQUUwR5OBUUOGkUximMpzkFby3NkziETj6jpEmUptHBnHa17vb5B8boEok21waBh79u3Hq6++iobTp5GJ+rG40oEnlhWhJt+IHk8CI8GUqju6us6h1gKv9UCPt3lpEaMw0amcU2JRDUFvtIVKLJ+Vmt2hQvdauKw61ZdxQQW/e3kxakscKi3ubotYwRAnseoM3OjB22fGOMGTiCbT0JNBV9ESrjEbYRard49EmuFYCax8XkMJx7hAq4ODv+vl2mnBO+njj42PqwZEHv6MS18Qu135jzdSjl92+dwCUUB44NBhvPzKqzh14hi0ySgWVtjx0KJCPLA4X635tQ3TbxxP0G8DllY5SDklY+bTk3DIE0HPWBj+SJKAMmNmmQNG0qnraWH5u/QrLKNPWeIyqi1Oc8udWFEnffvzFUjvhYQJwqYeP94/N4rd58YxGkpgZpFN1WMORFLINxixhv+wfA4sjHy/BIKK+bOUgCzkQ7LzunTIond0DK09Peimzy81ckRkjdhyqSjVb6J8LoEYiUbxwYd78ctfP4djRw4hk4hjcZUTTy4txNb5eXA4bCCO0O+JoZcgCxBgUj1tdoX7mnsU9dkkukbDaB0Sq2jAgjKzygu9UT1OmUgS0ChwW1FT7FCBmdI8Tvp7ZG1k5720/ZbI6FsNXoyHY1hdm6Mye5LpDM71h2EmJVybScPO677XSyqXRXxIuR5ZQllIEM6ixR6hdRzmMx4ZHUFbezsaW1s5rnrk5uSoMo2/iSlzn0su8Paud/D8Cy/g9Mnj0KRTtIQufG1lEdbNJgglPY0gsVktmFFiVVZriPT0xZNjiF6nwluR24LSHBtI4HCi24/mgSDCk9y58XkQAeGoJ4BfHBjGjrMeZLIprKnPxfc2FGPFzAK4nRakhfpxrMY5hxP31hheUyRya7KYUE/L98ek0H9gt2EeLWAsFkVnawt+/JMf40c//SlOnPrNrJdzz3pfXC2yKO3z+bFj97t47fXX0HThHH2LGLbOcmHLwlKVySJJ1mKlRMRfGhwL4rXjQ3j5+IgK3PzpQzW4b1ExCgm8KyUeT2Bf4yiePzyI450BbJuTh2fXl2JelQtm+pWXJZlMIhZPomc0ij1NPjQNBFSDmWuJNKvJsZlQk8ejwIi6IivyXWaVZaOTlkpTIBlat76xCD44N4ZDbeO4OBhFqcuAzXNysGFeMarySOdIk986OYhf7O2BZyyJv7AbaHUssE3RNVwpWSoEqS/7KSHwhUEI2PjLpT9eX+RZezmsfakUWiIRvEmdOEir7sjLxcJFi3D//Q/ggfu2wk3r+JtSP/VzQU0FAAODQ9i7/wBeeOlFXDh/DnnGOLbOzcUTKwQwblLJTz4QefBGvQZjgTg6hiPo98YJoozahyfR0StppyR4JxJJjPljuNAfhYe+lc2kRb7DQDAZFKh9oShOtfvUUofkaUp+ahPpnvSPCISTag+k+Jh+/u4LJVU7tm4CtnMkhPbhENpGIryWBOdkVu1+kO+/XT9NrkeCGF087/4mD147OYKzfSHUFpjx4MIC3L+oCDNIlcXPlXsb9EQ5BmF4fElsMMrCvUFlxHxWEeAl+GzGCZJRHj0EYUMyhXZJlLji6KCyGiY+U7x3fSYLlXl6Awovz1ECOgU8SqnQ3CRmojrHgkGO5YhKY0zxuw28D+kuxTl622P5RZF7DkTRjgLCg4eOqMDMmdOn4NInsWVOLh5bWoy5Vbmf8ss4T9XSxqg/jkZO0Iv9IQzwd284g0KnHi4BgoAvmVY7ETwEa/94jJM1ihb6iWP0r0KxNEzU4BaDFuME5ukOL3Y0jGLX2TGCNQSrUUtLZ1O9DRdWurCI1nNuuUulyUmGTqGLYOdcF0vcOx5XAO/hd8QTKTjNE9XhbgeMAsIwz9nSH6AV9+B9Hs3DMZTnGPHE0gJsXVCIqiLHpXdPSBdBeL43MDVA5NhGsxkFvgECrzkWx9lEAuepGE7z3vZLu7dU+hNHI59FJ3+O8afQaMIGVp5Iks3Vksl1RFwMq1aHOr6nkJYvyX+P8PsGxkbR1denEjIcDofyGwWMX2a559TU4xnHux/swUsvv4JjRw4qYDyxOAePLy/Fguprd5+VpY2hsQA+uODh4cO5vjACsRgnvRYziuxYP8OJxVU2mHkuT3ACKF1jCbSPxlSfC0m7kgkvEcd5BJqR7zvdE+X7Jtpsl7nN2DYvD8tr7KgutKI416a2Tl0OIojykA7BnUNBAjtCEBDgBPkQAW8xarCq2onvbihBTYn7lrZHSRZPlL5ra68HLx0bw5F2vyoWLHsvv74iDw8vL0dZ3qfLcew5O4znDvahpSv8malplADspBU8R9A1poGzyQS8BGI6m1YKUZSPAOgjgBG4xItaayUG+d1m3EfQ3KfNosBm5ftvDMYrpZ3feSCWxF5+f3s4jIKKKjzy8MN4+sknsHDBvC91EOeeA/EXv3oeL73yMs6daYCB5OaZJTl4hCCsL3GqOixXi4BAmoz+7MM+fHBxnNaME4T/SZZNMB5TVshtMSLHaiS10RKgSQSiccRpHVOcMXIICEWklqmBVlHmifiCos3lJWl0s35GHp5cloO51XlwX7V/UUTeK5135bxj40H0eCI40RHEofYg+rxRbJ6Zg29tKFNtwicbkveHYjjbMYpfHPTgbK+P16rB7BI7Hl3sxpYFRchzWj7yka+UqQTiLlLwdyNRXKBii1JhJTkgUqe1gspJqiLUFRqRR0ov64UiMp7j4TTebQqScdCnTqThNhgx02zEX/BZ5EqHr2tc87Ukxe8K8Dtb+Rz/IZ5FN317d3ERtm+/H//yn/0ApSXFX1ow3jNqKksUr721g5bwJeUTCh19aAEtIX3Calo1KflwtSWZWEfz4eWjw3iP1tDLCbCMD+ZhvreWgLoYTyJOjR6nxRQA+khLA6R5cQJG+tjXkWrOL7PhwQV5eGRxAbbQB11QbkcBJ69Jr6dWn+grKMniXlqiDlrRU50hFWUVn63UbVT+jVyXWAVJ0ZLlEhv9VwnUqL2RtIj99B/b6LeWuPT8mxkO641plQSTmvt8ePfMKF475UHjYBgLyqx4fEk+Hl1aiCW1OTw/LTIn9LWMy1RQ0zhBsJ8DsCMYwnmCMExFI9f9xLJ8PElK/MCifKydxfGqycGMMjefkUMdNUVOHjaVYGGiYgslshglmL1UjAN8NqU8by7HSgVybiIypkYqPBfpagkyGOQ1DITpe497eW9+VFdWqnxVyaD6ssldB+LljBlZJ5QlComOSmBG+YTLS1QQ4moQZsVnCURxuNmDN06OYH+zF6PBFBbKuhnf69Zk0UBa00mwpPm8DWIV6aPVF5qxqs6BjXMLsWluAdbOzFXboFbyWFDpxsxSB2oJ+upCu1onnFvuIFW1KX9MpHMsiU5S2e7RsEoI6B2PEJBpSNVFCRRdBqVoaemh4bQaYCXNFb/0woAkpWdRkmtVE/VaIlQ0SH/1AC37bvqmJzoDtLDA2hkOTvxCrJmVR2bgIC2WvMxrg1DkMwGR1zBOq3YsnsZboTBaaJFcbgNW17rwIK/hfh6La9yooV8sy0BuaWMuaXSk3OqgEpL7loY+xbJMlGumMtJiKJhEF58JRwk5VFZ5cv1XPNPryQQYJZCjgZ1UN0QG1BUKoW9oSClDSR6fyMT5fFREmCq5q0CUAMvljBlZrJeMmTxzWkVHJTAznz6hpJ5dHmChkFKJe8wfxcm2cbxOEH7Y6EUmkcFsAnAjJ4KVbz3BB76bk19oW7HLhNkE2Or6XGyln/fAwgJsW1hEAOaqjJqqQpvaSCwV1ywmI5w2k8obnUlfcQkn3OIqB/1Mq6KnWl6LTpNR1eK6xqI43hGANxjjNWWVr2Qi6EyXMnTkEFosdFhHin2hL4ZuTxzleWZV0uNa6Vuyo97rD2HXmTGc6w3DatJiMxXSM6uKML8qF7mXqOjNJlz7UBjnuv08160DMcpruMgJ/nIkhtNkKQW5Jl5DHr6yopggLEBZgUNVQJDruKx4rhb5m2xDE6Uzs8SKUpcRwWhaUfR+nt9MC1fOz1oJrpvdi4i8R5RpFX+3EMpjnANtPi/au7pVVzBp0SAtxiUtbjLn+yLIXQOigGrM48GefQdUdPTE0UMw67J4fHE+HqcllOjo1ZKk/zXqC+Fg06gKXpztDsHK86y22/Atk44g1GAvLdR7sQQnehZ1pEmbZuXgG2uK8fTqEgI7j5TOqtLVJiuyayGPNHBWuZNWwYrKXKNqVKPX6hGm39JEmnq2N6qWMYh55JDWys5+FcCQz5OeWQmGJgKr2xNCaY5e0eFr7Vukt6pqynhDSZTze7bNy6V/XIIc5631VbzQG8SJdj/C4dStAZFjKWt5+2NxvBeNUTHpFB3+ysoSlcp39Q6OyYhcd57DiBn0JTuGE+j1xxBKZuiz6lBLIIqvPdlzim9ZwfcW8DrP8SPDXi8Ghkf5glZ1EMvPy51gCrd4jZ9HuStAFBBGIhG8tesdlcAtllCTTuBJPvQnV5eTFrpURO5KUa3GPGHsOj2Inx4cQetICA4+gM1WC36XVsfN11+nZTpI/0prACloDn5nEx37xcWkUbLGduuT6EqRzxqUlrdhDv3IeWUWFDt1GAvSB6JV7PXE0D+e5HWmUJVv+Sh3Va11arS89hB9zCj9zSzybJyYpL5Xi4BX2rcJLZ5fnYPKQsmBvfXr3n/Ri/fPe2DM4paAmObYCSV9j4zCn5HnUXDd53ErImMg0WKyajSPxNDqjyPFcZpLOm/ntV1WWpMRYSUOPu9q+oznMhpVniMQDMJotmDBvHlfmjXGuwJECcy8+OrreP31N9TeNEngXlLpwrPrS1R09FoNPSUyerTVgxdoCbsJyEI9LQapyEPUkrmcrEfSGuyJxZC26rCm3o2vrS7Cgpo8VXpeLOCVD0d8TF8wiu4hP852eWlhPTjS4sWxNi9OXOOQXf3pVAIxWlobgSLUzGGlD5RjQblbjxx+Z5DWsZPUs89LqkrLLa+JrzTxfaScgQjO00+Utc18J33VGddeipFJKXRWgj5X0vJbkUMtYzw8yupMFohZ+l6naKnepzVsJUjK6Sd/Z30xKbrrM+8skXsQKm4zaTDE8RngIVQ1x2hCNe/RIPd4+T45VmmygkMcwwAVQh4V7CeirHyf1NCx8Xzibw4mUximUhfLO2vmLNVm/MsQSb3jQAwEgmg4cw4//dnPCMIz0CRCahfFE8sKsaw+Tzn+V08+iY6qwMypEZzvDcGt02Mb/bkttFC1tDzBdAa/5AQa5FybV2nHg4vysXJGHv098yd8scvBkFMdPrU4vu/iOI6Swp3gv8+TzjX2B3CRVPPqo31YAjNxNPeHVVW3MAEp5fildmmR24gSgk6WPsaCcbSNRDHqJ2CNWuSSpjoJ2AQn+Cn6tA09QRWwqS+yYc2sawNxKuRwyzhOt/tQRuuwnePk1us/Wl64loiiSNEavh5N4HgyCZvTgAcW5GLzvALlMyurPgUiCibKsRMgdnsTyh9dRUtrEYVz6Tsk47edPvjbsrOfyqGYoHJS0V4pKoDDI5ef8fDfw/E4xsOyHpxGXV3tpUjqFxuMdxSIsuYnlaJfePFlfPD+e4iGQpjFSbl9QT4eWFQAhwDnKm0mn5ElijclMNPkg4l+1AbS0Uf4cOqpqaN8GBcI1Jf4IPLzrdg2Pw8b5+bBTb9KAC2TTGit7MhoHwrRwnnwFgH9/gUCg36bbBAWoEgKlWTPyJpYvtMEu5l+nqxO8wjGM2gapKUY4jEYxsB4GCFO2kxWS6pKikogSnqcXpPFIM/XORaj8kgij0AsyzGprlJv8/rFnyxw6LGyzo0FVe6JG5xiiXCiH6Y1bOoOos5iwTazSVmP64ZYKbJe18LPvcnJ7+UYLKt24umV+SjNdxI8U7M0IM9CAG3QZuAJJNHGMRoMxzGLgMkzGFRWk0iMxwekx/sjUZJPDaqoSEqpbK8WAaPrEnhHOUfaSE+7entgJUUd84yhp6cH7e3tnzg6OjrR29+nNpfLkSZwJVtHgoZySLCMp1XXerUxuNtyxxb0BQxerw/vvv8+/s//8B/gGxtDEWnjQwtz8eSKQsyuyr/0zo8lTUs3Tkr3kz192H12lA8wgbk2K/7YqEGF2Uy6pUMTKcwPQ1Gc4IO4f2E+vrG+AqtnFajPC4wkxO2jD3ehx4/XTgxjb4sfkXhSAVSimi6LCXNLrHCTXi6osGIlaW1NiUtVrm4fCqrc0o7RBPY0BdWapC8SVyBElpMk347/85lq5UNZ6QMNe6N49/QA/mHvIL8jg8cW8d6W5akJ9V93Daik8c2zXfjexgosrJu4xqmWll4PfrSnGx80eLHG6cCf2EmRb+DfCUvwckL+NUFxii5DTZkVTy0vwuMrilUj2KmekMlEAgeaxvDC4QHsb/ZhntWGHzgsmC9g43f5CYa/4vM8Sua0gAD9qtOOlWRJ15NAPIY3+TxfoeLrI0W9LNe6bllvzMnLR+2MGcjNycW6VatQU10FKy2o+JZuib66nLBSgclyyERN1ntjWe+YRfSMe1Xq2osvv6K2ubipqZ9YmotHlhZhRsW18keztGIJPHegF++cH8MAtWgdH8w3+VBmc6Bkk2mGPkQrNeeLpCZRTiaptC0bdsvzLXwSWmq8FBraPXjxyDCeOzKCM70+1cdCzi0ik1AKBw/5Y7RiUYyHUrQoklYWh5MWsSzfgdoyNxZV5+IBWfCfZUdNnqwNTkRMe72krARpgWPCkkrtm6JcK5r7QhjmOWWnfCiWQQ+1/0FSYBsf7gOLS7B1YfGn7neqRJZ1jrT5EPKnsIDWQQoCC427nkSoIJs5mZ/3B2GiYhRG8QAV2mVGMdUiVlF8dLW2OphAP8GzJgOU0zKKL8hhxX4+1wFS5SI+43m0iGXXsIiXRZY1bBxL2Zly/tKzlZxWSciwcL5IEyE5BFDymgQJhwYH0NXZgaNHDmP37t3YtWsX9h44gPMXm1X5x6HhEQQ4Hno+ZztBOlXU/FZkyoEollBAuOvd9/D22zvQcPoUuVAU31xViAeWFKG2ZGLB/mqRB3W+y4NXjntokcKYz4F8itp9GQFs5e8aAq+BA7+TD60pFlOgks2kslRg1pGK0hfcTz/w9dOSo+mj/5ag9ZO0LCsWqqinHbOKbajjv2182CnSTOlx0eWJoHkoih5PEkZdVu3GcNuNsJIGO6wGFBNoUq6xwKFTlPYiqapk30iIXvZCykO3GdL0N4Po9kQxSAUiVNVHQD6yMEdtZJb1tTslUsFNykWaExlsNRtRzckkwY3rySAt0Dv0yRrJHObRV988N1/tbhG2cCdEwC3JD5Kt1D1CUATitDwG5FJJSRU4AeKRWwCinM/CQ0N21E9Aj5PJmAnAVWQ6j5KlrOV8WMljGefYbP69Sk+fnucV5ZTlNUSphAJ0kXw+H4YHB9He2oqGhtM4d+EcegeG4A8ECGI9zJw70nTnbsmUAlH8O9lTKJZwAoQnVbEnAcK3N1SgvsylsjGuFqGTHaSFO06P4miHD9q0BhutZlUEVwIPMq0GCcIPY3HsI9WJEYSyFzDMySfrecO+BH25CPY2eVRGS5oPd2aRBZtmu7F+Vo6q7i3ZIfMrXZx8TlV+sTzXRJ9Or+hsny+lGtBIuQlZMyzja+IrSQqbUFBZK5StVU6LntcXJF3NINemQ0WeCU6rSb1+rD2ADk60QExyWjVYUmHD48sKVK7ptXJmP6uItpdOxzsbZLdIWK213W/WI+8GywNxPp9mfuaNWBJRnQYPL8rDGo6NrJveSVHRYI609LS8OEy/lMpAaqPO5t/jvNajBGLfJIEoIlFXCx+cSZQz70fLZ7WSY7yNxwx+vorKSBRSJYFUTcDX8e+1/L4ZtKQStZWtV/m8Il1K3JgghsZGVaLJ4NAgenp7VfmOkdExBIMhXjuV/V2oWj6lQJQI6amGM/jFL3+F06cmQDiH/thjS4qxek6hsjJXi1ovHAvj4EUP3jpDpzoUw0JawU28+VkcRBHRZMdJKfcRiMPaNOYT2NKFSXZRDAgIR+JoHY6iezyKErcRK2ukl30u7ps/AcC6Uqcqq1ieb+NBC0cA1RdaVFOaEreFk1qDQfp7UoxK9inWkOrKMshlEWshyxcSFT1OwA3646RCULmnck7J0jndGUQPLbnQsLoiO762sgBL6yaWU+4E5ZNAw8h4ELvOjaOLFlgyV6SosIUT51rfJ3sLe2k9DnEMD3PSyxavr6wsxuwy5x33i+R6JhLsszjUFsJoLIUqTRazBIh8fQ8t9CCVsURMJwNEET415HBeSLQ1TlDV8VzzOF+K6ftJzVVhUS4eBXoCj6/V8P0CxBkEZT2/o47+cLHBqFLvpGq5haAc9fvRQSB2dPegvaNDdcGS9nSyFUvL98k8uFNjNWVAlCiUVHf+2T/9Cvv37kE8HMR80sEn6BM+vIwgJLiuNUHCEVmqGMdbp0dI+0JwUot9l5ZnFQdM/AGl+WMJ7KBFPMPvqCo04V9ur8B9c90qRC9VzAbpn6XpMxQ6LfjOuiKVIraiPk81h5Ed+FdqM7kGoRwSsS10W1FNP7O+wAA/rZzkkoZoLVwE3fyropzyuSwf+OBoEG3DIVXYN58Udk7ZRBnHQU8IvVQovFxskw3Nq8pUovad0qRSp+Z81zj2tfip1VNUWkbcfwPNHY8nlS+2UyLGVGZfWZZPplCAXOfd6Xcoa7tmAmXfBS88wbhKBC8iQBIEwFsEooc/qzmOC/i8SiYBRFn+iBNkO+mS+DkvrFRARUYTavg3PqxL77ok/Lf4o+IDWvkduTzK+G8puLySb9/IeTaD4+cjMIMSfwgGMDI0hNb2Npw9f14paukZKZ+XtDotabHMh2vN59uVKQNiR0cX6ehO/PKXv0CcWmQFrdIzq0qwbVERJ73luhd9tHkUr50YxGH6dbKh9Em7HavNZlKsCc0uLUM70im8R00eMmqxakY+vrquEhpanuOkibKLXmRtfQ7++P4yrJ1bhEICUNKzbgYCOb9oOTvpZbFTg/5xaVZKakvIPUwrfrVIwKXYqcXxTj9GAynVpHR+uQUW+id5Vq3aCtVIamzhw1pYPrHr4k6tb0mnq73nR5V/WJOiNbRYSMOuQ4GpHc7Rr90TjaObd7e0Kgd/8GCdWoq5lSyXzyLqWdKn6xgIcJzC8Cc5ngIKPqIPaQ1DpJmrCKKtpBri801G0pwvXo0Ow7T0KT7rIoJxPueFSgi42X3xdQGzWDotFUQOj+Ucv4f4s5ZWNUWKPyKuFq3kuXNn8eG+vWg4e57+ZRiF+fmqSLLMr6kC441n6iRFuPT+QwexY9dOJOkMF+dYsbJOdrQ7CMJrW0KxdBLaPtQWpF8XJdXQYqnNhi18GNLsRIFIrCGf3mmicYjUtNitw9xSM32wtIoUHu/0Ksuwtt6N728uw4Ja2TvIyc/PT3aA5H2SuF1XloNq0lWpYyrLFYFgRAWErhQ5pQSHBJDih8qalFBEEatJBycpqk6jV9FYKa8hAYo7IULnJelBcjmDUfq1yKCEtO+awntI8b0XOH5d/L3QbcADi6TBq+GORXKvJxK0WVln43frEOa19HF4WtJaRKlUOLqwEoB2KrHJipGXv5jnzOHzjvHzIY5LhoC+6rHdWPhQZQ5IXw8Xz1PAZ7jCasb3LEb8AVncIiq4LK3kGP3GUyeP49VXX8GvXnwJ5843qt4eUyVTAsTGi804fvwEujo74eIN3E/fbO2sPFV+8HpWSXIwm/v9KrtFJm4pNdFmasNKaiXzpc+kJDUtmVB1UuJCH4psqkCwNxDD7vPjUK3H3CbVfHRepVNZoGvvcsioDJshDx3zK44Rb0hFW+VBqFQ2fr+wohAnd9ugNK75JJAEdMP0D2OcOMKAZGJNBCImqFeewwS3Va9yUaX8hiiJOyGyi79nJKh8w1iSvhKvofA6llc27vbxOproFyY4c2Wj8RKyFcl6udsi3yn7GV02IyK0Nl20ZMdJl6P83UUG4yQIb8UHE/svfuZqWjBxZYSWSuBGFObtilhJ2bYl8YnNnE8SuX+EbswSUmYzmV5bczN27tyB5196GYePHkf/wKDqy/JZ5TM9jcuL9oeOHEFjYyOMSKpq2I8uzlfRQqF81xKxNGJ19jdJBe4I7JzKc4QaqG1FHMhLmlp2h4+RlnZwEpmtBhUEkfW7zuEgTnYFCQQdllQ7sZjHlfvTZM9jiL7nsDeC5r6A2iIkKXPvnx35xLHn3AgOX/TgfE9ARW2lOJRgJ8LJIVFU2YF/pUi62rmeMALRNBwWOvm8FjPBK98rgHTbOJksWvgiMbV8IvRRdlhMpQiTkPXWi31BDPhipPNa5HMCu0jLrpYsQSiR0hP8vYs/c116VSm9JOfe1GcVJVmS5ySlp5XhzOvnc72QiCNOhTuDz6+Mz15EAkuyJizz60bmTWIEooC20vV5hFZsMcGolYDgZ0HiJZGNzHnKOBjwNM/9BKmobDioTicx0taGHTvewiuvvoY9e/ehnW6ZFECTZ3O7cttAVEEUaoLTZ87hCIEoKUZlpD1fXVGA2ZV5KpJ4PZHliv7RAPZepDUMpzGTlGStyYwCOstX5kjG6CQP8QiQwsoier7TCH8sg8MtXkXNZhSZsKTWiepih3KgRST/cNQXwYUuAq+hHz96tx1/vaMdf/duP368T8pQjKnjp/tH8cM9I/jbd/rw12+34pd7u9DUF0I4fm0rJvcbTaRxqDVIIGZRQktcW2iGjQ9JgHgZjBIdFMo6GkwqyyVgmEpJS+1SWlwprejlGFTRApTSn7mmcIJHONYf8rp9vLbaQivmV9jUrpLLSuteSFWuTQW64qkkry+h/raK4zaLs3GicpwkdscQ5rXLWIrI/6WKQISHKOjL+k1DCzqTYJnP+VYs9zXFCkbmYxUV3TYq3N+2GvE9hwWLLWbEh4fxDl2xn/3in/D2rt0qKUAClnJptyO3DUSxOmMer8pQaKeG0KUSmFHixoZ5RWrD7I2kfzyOl44Oo42WLUmrM4t+13IelxOBRbICKD6QQ/QPZd1wRpEZVflmDIcyePnUOMxGM62vXXUMvlxHVLRoY9cYnj/Yj/+ysx9/88EQdl/w4Ei7Fz3jEfpxGiyuoObkUeQ0kNYl0Drsx8HWcbxymj5Ajw/e8LVphlRnGxj1oZGWM5PRoNRlomWZiKCJSHBIrm8mr1OsatdoHP5wQq2tTqXECO5Rn/iHcVroNNbpMph3Hf9QZRJxTPoiYdjNWlUHtZDXfbMg1p2WXLtWXY9cn1y5RCJLOeFz+A+xjt3pBP6zBJd47Z4Mx0/dRwZHyQTe4pheiCbpC97dAtECeBevc4XZjD8i8J9wOmGPx1SFibfefINU9VWMjnmUorwdua0nItYhGAziwoVGHD58GOPj4yp6uGWOC9Zr7Ka4UqT62dnOcRzrDCPESbWedGKp8G9q7CtFNKOXGvEs6UuaE8dF2peg9uwfDSpaW2ATqmpTfpl8nxRxOtg0gp/s7cMbDSNqSUMKHn1/QzH+0zfn4L9+bz7+3TOz8P1tNer4N0/U4z89Owf/1zdm4/c3l2BJuQN59omGp0OBNH55eBj/+G4XjjYNo6V3jFR2EH+1s0/5flV5RpXEXVn08RKHTG4LlYmsQwohjdB3myhUdekNUyAy7iP0US+QbrePhFBvtqLWYIJTyhZeQwbJJt4iBwzxGmYWmzCnzIFc57XLdtxNkUjt5SkiWUBz6OPl0qqL9ZE1wUFir53+2DgVTZLvUeyLCu00j6NUzt2kgbKGfLdFrlviF0UE4qP0G79H/3EB76O7qxOvvvISfv7LX6OpuQWxmKSy35rcFhCTHAxxUvcdPIie7k5wDmPtDMnRlMad1wfh5crVZ+izSRkFee9Ss0l1sf3oyVySOCezj+/30GpJX0MpgSGL5Z5AlK9kVWffHLtJVbqWByXgfOfsOE50hVRFtsWkYF9fVYjHV5Th/oVF2DQ3Hyvq3ZhV5lTH4hoX1s/Jx/2Li/HEynJ8e2MlfmtjqdqhLjmsnaMJ7Dwzgl8eGsBP9w3gxaNDONXlR4nLjM1z3VhYRY14VXKy0FLZVyj75oKk0MpHnEIkSrHf9uGI6tsYiSUxj5S+gNTUcA0gyvfKLoVD1NBmXufcMhsqeV9GKr57LRLkkkoGIiQpWMExy5PYAJWxOAZRHjGCUBTZZWYv/uI478nDQwpbTTXln7RwnooLUs5rXk+Kus1iwkzO0+7ODrz5xhvYsXM3Lra0KqNxK3JbQJSSFw1nzuDgwQPQJKJYVWNXuxgkL/NGIgGUtqEwNXoYCVq6GdQskuXgvsoaivg4nYc46AI+sWyyB1D2+kl0Uk86mOSDkOilRF/FpxjyhGhlSRt5S0sJkseWFODBpYWqtqiUwb+WiCIQX7a62I2tBOs31pbiO+sFjIVYUmknxdbgJCf9m2fGcahNdqiksWGmi6DOQxUp8dUiUUGbWa8CTiOBhEoOkLKLUyVDpNeixCQ31kULItpY+ttfyy8Kkx/3E7h9VGS5VGQS6JLtXp8HybXrqUgnyovIZuZ5ZPduUWC8lxTxFZYF9Evv/TxLLq99DanqQ1azyuzpam3G2zvexnsf7EFHV/ctBXBuGYgysS40NmHXO++grekCqugnraE1rCu2f+SrXUvkggY8EZzvCaJjJK5adH2V1lBSs64lw3wYnRktH5bUGZU+E0aU5dtRV+KEy2riRE+hbSCAUX8UPtLFc93070JCR41Yz+sR62ci5bkVMfN6ZlXm4YlVpfjDrcX49hoCkn6o26RTVNnEybJh9kS6nERprxahpkKVpZZnv1fawCWmbC1RLMLJDj+O098N0U+qoTZeoMnCJcN3FZvgYKOL33sukVY+aqFDr/ZQStuCz4NIimEBfXQpPuwktc7j9RqE5/Aeg/QFO0hNM7wnefa3ZSnukogCLDLosJ7z5utWC4rpQ7Y1XqDP+BZ27HoHQ0PDlwI4NwfjLd/nGB3So0eP4gh9Q6lLsrzagipq2xtFSeVCRDtc6AtRmwt1TKPIZsVCPgjXp5W5Elkq9fPhSJi9kA9NUtKkA1QVQbB5lpPUL04rFVD7DrtHghP7B2klzbRiEiRp7vOja8BzW2FlWXZZUFeEh5aX47sbirBxlpuKwMLrzqChKwhf+Nr+iVBTWfAXP/FqbHwWERD6/CF80DiOi8NxtYXoEX6Pm2CUzJCrRUpPNHJ8jnCcpeyFZPmIgpiq5jifVdxUqrJmKz6h5IRaqKsk3pQhsxmMRPFeNAIdaXc+Z6edyuZzLbwHN5/HSoLxUasVJbzu9rYWvPbqK/in51/8CIw3k1sG4tHjJ3CatDQVj6Aiz6qad0qqlxT5uZ4IECTz/lhHQJWWKOAk3U6L4iItvdYCvIgEPKSgbq7divpii6IyQiWl58Qm+mjiH14ciuCnB4bwd+/3o6EngFgihWb6UK+TSv7tB4P4z2/34d+90I7/4/kW/O2OdrWJd3AscFO6KJRJikHJIr/0XNw6P1d1JOYV4Vh7RC25XEsEewLAazDF2xYJSkjXqx99OKgUWQEf2Wo+cBXg4vhcyycf4ZX283NhAjGfCmzT/AIU0Lf9vIhcs1y2XLk8fXUHxFsHfzvORyMVxqsMRhRr9aqc4uddZL44Of/vo3KRTBwb51dvby/27duHU6fPwO8PXHrn9WXSQBQwiQN6uqEBnZ2d1MY6LKMfJVWfZWsTh/bSOz8t4se1DYRIScNIJrKo4SCv5ttVpPQaE0lkTLQjrZmdGl0Wzi83ILXzu+ZX5eCJpfmkgEbVe0Jq0HjCcdIwOvThif2ATQNRnO2J4GCLD+9dGMObp4bxq4N9+Mf3u/CjD3qx9/wI+kaDymJeT2TCOMj/F1TnYPXMXJUD2TWeUFk3Ut/0ZtJGX27Ae2tO+5UillA6WB1o8ihrGI9lVHBrk8WEXIJQJsCnhM/pLMe7lWMhrvHsEquqyC1Brc+bqDo0nANGWsVgJo1T8TiOJuK0jlnU8f6kpIZBK27BxDLMAK28ZOF8HkWYm5T4eICKbyWZip5YaWttwc5331GunIDxRsxs0kBMcQDEAW1paUHI70VFrgXrZzpU3dAbJTbLl0dpqQ600J8LxFUhqFpqc6lXeeXi/dUyRoD082akq5ORD+uy4ZTvku+8f74LMwr53TyH9L2QgZD0umKnEbMKLVhR7cB6Uspl1XbUFAgtA9qHo3jjlAc/3tOLX+3vwbsNQ7jYR0t6qZTGtUTAWOAiJS60q468oaREfkNqUf1qEWDI9UpEUG5NIpxS0+Z2ZAKEUZzu9GHn2XH0eSOYpdFhA8dutuThXWPs5B4iqTTO8ujiIXsm15PGy/aza1nOey1mKu9SPliJ+jbzek/EYujhc3cTgPN4uS6x+Hz2l9dD+2NRJDguMts+f3fDa+K9SOL4Fomk8hlFAn7s379frS50dfeotffryaSAqB5wOIJ33vtA5ZNatWnMKbFjWV3OTXMW1cK/L4L3mvwYDaZRyIuVbBADJ9SNJodManlVHoJkV1zGieR7SpQ0TOsg4JTIpoU3LfR4WZUbD5CG/daGYvz545X4/3y9Dv/uySr8i22l+NbqIty/oACLKt2qLMbJ7iB+QVr7/MFB9Az7VRbMRBOaTwJSKRICVSK+EniRaxLQX0uJ6DkWdosebutEkOmziGQOnWofV41Yj3b6oeMzfIInXXmDE8tjHkrFMUgFJiUxJPtn67zcmyZY3Cvho4ONwy1boN6PS4u3LOzUmLNI71bQN8wRvnqVSLVw6a14IyV+r2WeXoNtJrpVnOeeoUEcIBAbzp1DMBS69I5Py6SekKSy9fYP4PDRoxgeGUFtnh6r6h0TW0FuMiDSFu1A0yiGfSEFqjJeZC1Z0idqV15DzAZZBjBgPJrEkD+hlipEpG1aa78XPz84ikOt4+pva+tz8Xsbi/FvHq3ADx6swfZl5agoypkoEOS2Y+mMInxlbRV+8EAN/i3f80fbivEUqa3TqsOBVi9+tGcQR5oGMToe/JRjHaZv29A+hn2NYwjGEzDxfktzzHDbPx2BNBmNyKO1rsgV3/f2J4pYQ+mP+EGjB0fpV+vJRh7mWJc7bNDdYB1QRmgko1VlCYXCV+Q54XbZ73kmzfVEdurv5Xj/Zw75wWhUdYKSfYISiMqxfZwxdaUU0nrKliUdFfnnVdyk0ytMZnzXyvnHOdzW0owjh4+g6WLzpXd8Wib1hMa9Phw7dhytzRcRDgXpc1ixsNp9UxCKSM7l/uagKqwkF1WlN6DsOpkgV0ohNWM5byhCv0CAKIvjIt2jMfxk7zCOdYzTb9RjE+nn19cUYfuSUlQVu+F2mFXB4stboWQSSuDFSh9JdstXF7uwbm4xnllbrmq2jARiOEgw/nTfMP7+nX783a4u/P2ujo+O/767Bz/dP4T9rT7eb5qU2InZ5S5avk8vjcj36XhvQk9vV1RtlyGfSk441RWClv7efJsN9/OeZCPttSipiIT+o1QUJ/j+sVQGc0rNpKWSg/v5BKFINJ1CdySMFh6yLWoO/d/7aQ3nUwlLV6jL/NPPez6n0SPJP0hekGS3XJkO+XkTCUDKzv9lVBjLeD8GKpmjx45i5+7dNGSj1wwW3vRuolHy9t4+HD1xAmOjIyi06elziW948zonssVIlhZaR2QHvQYzCZxaDrIs4t5M8jihJf9Quv72jCWUTyZbl853e9VexEgii8WVNmyam6valklpfFm4v55yUInE42G1Dren0YvD9Fn7xwlwUudhgvE0qep7F0bpQw7h1eP9Hx07zwzjTE8IZmrpJ2lFH11WhIr8O1PQVhLWh8dDKg9XOl6FQinMpZV9nCCUuiuWGwBcAhriK3cSyGmOc02BFbNK7n0627VElpfCpKJpgi9G623mfNhMC/4kldtaHrIccOVzFELXxkO4ioy6GvnrD8XnQkSRSNbTCs6bXP4+Qop69swZNLe0IcXndLXcFIjSZ6CzswvnL1xQOXSzi60qq2Qy+8YEPAJEXySpsmFkm0otj8n0yiukf1DJQx7WoD8Jjz+GCwLCFo+iiLKTYOOcXCyiZZayhtfyNyUrR8L/kpFyUgoNn+zHrw/04sd7emhVB3ChT3bTS29EHb8ng9FQHN2eCNpHwqr7k/RIlG1N0iHq8aXF+O7GClWHRqq7TaWIHyoBIxmrd8+M4LWToxgZj2EGx/h+TsxNtOiyVHE9ayiS4FiNUdOOSKSZ1yeZSDn2zyd96xuPq21i4ue5yZDWm8142mLGfWYjKnifV1s7sZYdYkX4d0lgsHze1xZFeG9SRHkhn50UsDJS4fT39eHg4UOqxOPVsYibIiIUCqvaj/19PYr+COURH2gyIv0OhJpKVW2hpbPJ60smaUmKOLFq6fUI1ZPNr4FYilYrgiPtETioPbfOdmDFjDwU5dqvCUKJ8kr+6cBoAO81DOC/7ezA/39nD31CP8YIOK1Gghlm3k8OZpe6UZPvUDVv1OZgXqPs2p9Z7MRvbyzDv3+mHn/0UB3qyvI+se9xqkSURe9IADtPDeL/3t0HP69vNv3bJzhBH6TiMnKS3uw7gzQRF/meIdKgQqdOBWqEkn8epY9MZCyY4kTVo9pqwW/xMufR8svy0LXS9QK08k3xOKTzch3dxqIvAhApomhkC9UiPkfZazk0PIxdu3dhcGgIicQnl81uCEQJXKj6jzyBlMuXMgbS1HMyOYuSWtU9FkNjfxQanmcxP5tzC7xebsJiMMJNji0J1C0D0ix0oruSnYCWOqVS3vBaIsGOUV8U7zcM4i/f7MUPPxxA20hcVereMjsHv7uxGP/7ExX4q+/OxP/4/fn4u9+bj798thb/fGsJHpiXj5o8m9piNOhLqiwaCZ1LwvqdEDlv15Afb9AKvnZyXD2geTY7vkmavUqyTwj8m4lKDeNkbc9qkaUVrSk0qZKQn/fOunpiTtoDGLI3WoXmPOT9hRMJTlZaGWLQ8MXA4UeyWJfFDMmllU0Lox58uO8ARsfGLr06ITdEhix2D42MKIsofR4WVVhRlme5ZoHgq8UfimLYGyO9S0Hs5yZdRmXUTFaEvkozkhpOLG8womrbNA1FqRWzmF9uw8yKXNWl6VoiG4OPNI/h+cOjON4xrnJA75tLAG4uxu9srcQjy8uwdEYhqgodkELBUrO0jlZx6+JSfHdzBb65thgzi+wYD0ex+7wPh5r9qmPxzUQUVygqtCv50a6B64mAJ0z/e9/5IbxweAR7mrwIhCZaDHyH1zuHQJR1S6E4NxMpNxmg39HGc7psZtRJo9XPwb7D60konlEsRwoFS31Tk9l0XXcllkoilIxzEkMtB+TSKopP+UWSUo0O5aTgNgk+hsNqd8bVSxk3fFIqUNPTg47ODrVIPafUonIWZb3sZjI4HlX+li+agoVUT7Y6San0SQspqZMDXs+HJc5t51iEFiqKfLsODy7IVcEiiYxeLRJlbewNYC8n9sWhMIpcBmyfn4vHlxVh07wCzK10qeRxl32ifZuI0D4J9BTlWFVEVJraPLG0ANX5Zlr1CPZfHEdDl/+measSWJJAhKyXXi4qdS2RwFHXcBCvHRvGC0eH8GGzFwn6wav5sJ7mOC3ktTg46Sa72zxDTRviOYeSCVTmm2gRbSqfc6op9FTJgD8OD/1vUaO5EmUmhb5eFNRL13CYLEhuxcHxkLqt10uL/LyK1FmtoAKp5M9EIo7Ork4MDA4ifEXvjhvekSxbdHV1ob+3l9pVQ79johS9hoN3IxFqKP0fhEomEmkU0t9xkJpKtv1kRSahnW+vpyqUxGBZP5RDqo+tm5P7UcrblSIgGfSEcaLDjwv9EYJQj4cXFeCRJdICLleVWbxZ4rNEQ8tITR9cXICHFhYoILcOR7C30UvwhFRywfVEgOgVIIZSqsqbXKvUthGRT4nFHPJGcLbTi90NI/jVwQEcbgvBRAu6hg/qcZsFW2kNpdfGZEEo4ufJBzjm0UxKlQ8pzbVAKpR/XkW2iAWooP+f9t4DPM7zvBI96DMABr1XAuy9N1GiSKqQYhFpW5ItyXZsxy3Nzk2y8c2WJ7mb3N0n+zw32diJ13HWaztu6r2LKhRFsfcKECDR+xQMpqPdcz4AEkQBIEgCBEjMsX8NOPP/M3/5ztu+93tfC68xg893pDnXOl5bWU8EeEeQI4HJMTRZBcxwkLbX+sVZHLJd1PBNzY2or29Ah7ujf4+rEFGJq3Xcgn6fGfhKvDYLX0e4ESYCSK1UZw+glTc8if9eFhsH0rd/j9EjgYdM5zjOsVpMExppZeW1JtlUHe7T36ff7SRRT9e4cYqbpre3LlIb6hxT6l+FhkcLkTEn3YYvrMrCprnpRoDsr3DijRP0lSlYhoOqBLgo6SXtpRHn5fdN7svfVG8P5baa7lG7a/Dve5tQ1+IxE9SPUzt/JSEOSyyxiKKZZsT/NeAifaxj/B7lk6qdgNoADJTwmEwwwohmtIJTGkOp1IQl9J+GO1MlgFR2d+Mktzg+g8V8/inXPowmBbJ43tN4rRqnylJzOp2mge8ARiTiubIy1NTVI9ESjTm5ySjJTuDDHvkBawDa3T6adEHTI6KQJ/AwSXE9bVhiqL2yLfG4k0TWvOIMmlzLi5P7P/00TKlDpwevUNOUNwUwI9uGu+emIDUpwRSyvRZokJiVH6k2LC+1YVaOFW3Uci8ca/k4w2co+EhSVbF2ej6piarUuHOX2/CLdy7he/9ejn9+u9akrMVRZW5PSsbfUhPq+lTh/Fq04AA0f3iZJnNZTzeybVZTN0e1WScjlJRfWWenb6zAC0xBaRvHxnBn66EZ5wgE4CFxJYRTuKNqmd6KSOIYzOBzJhPR4XIZjag+MQMY8YnJLG1paTZJ1+kJMrOir5o1ItOtyRlEFU1EDdpUSngVbr0ea0KH6PcyebAms0NdGux9A/xKqAiVqrCppotcR5VjUK9DdZhqaHHRHld5xM9OpA4H/baCHTkpFmSnxJm5Rm+gC+0UMpp4vxKas1SDUpev62MSflTegZ++14R/eqsOzx9tNpXAs2kb7OQ9+UP6cJ9PjENhohVWmqKjyVIaCm3dNHVUkpBmaSZN4bz0eBOcmozo7OrB+XqPMUvlbqhhTnoEr73/8yvRQE3fyueqz9M4iKfTxTFNWG9B6PmqLUCOxWqKcDe3tsLZ3m5mF8zn5r/DwN7WCne7yyRW56Roca7VaIrhYMxDDlJN2MpXiud4VKMP5ZVe3zDry6LIjeyBjQ9Og7yWg1ldkPRbg6FWaYcueeDwdJOsXdSKHXjuSAt++UEtnj3QhN0nW3HyksMUFZZpdOXxwyEtKY5+Is09WgWqoaIlUB7/Z5dOmeR2muJNrk8+O1XXgb3lTpyr9SKafvl6ar2d1jg8EG/FapKxmPclRoGK6yShUMaBWsvzslBVFGfEIpVacTyyfsYCEpaazlJdWAuvWU1irApKDXP99SRiG59TAkePSm6mcv+RWs5NdihZPV+WD/35VnKrlWT0UUEIQxJRwRa73UEStpuydRqEKm+QwEE0UsRKg1uLc2vtQdNBVystFCkaVS+CYaBfS4+gaUvTRFXfVL3sbLUL/oCmCPrIFKBJqE5MR6o60B5Q54peeLlvjSOAE9UevHnaiecOt+CFQ01473Qrjl9ymcCLyxMwpBwJqh6uDBWtujf1St0B4wteCZldEhR2b5eZA83mDU+j9i6gVbCcKlrke5iC7F76gbNiYxBPbTAWOEcBVMvbkGQKMNMs5fdP1mkLnqopyqXasUm8R+k8z4ihhAavR6Uxa6ktWnnPkzV1Fq3lUv2f36KQWa10Nz2ddpqldofj48jpkE9Mk8rHT5wyNqw6sarMYMEoVhTIT1OqVhWJqH4Gmjcs5C/cSIKuflEDW5JQ6l3R2F/vbcSlRhfc3qAxF6tJzreP1/MhdxjpqoyY7Uuy8a0NBdi+OBNptlieUwBvnnXiZ+8344evXcaz+2txpKwFDa0earguswyqiyNlQFOaayHBZQprAGl06PrzUuOGNP10nJINJPW1QmO9zYbfS7Hh+0nx+F58LB6n5psbR0LfgFAaDJ2leuFr/Z6D5yoiTsuIu6rrMFGQ0FRU2eHr6x+ZzTFRPMy5at92P92bYAh2KoUk7qbarZM3Djw6iAWqk6CrVpqbSpIOlF4ckiFqcdbQ1GR2iqE0V7AmOV5+TP8Ow0BaoZ3kOEGTrLsnyvS5y6c2u5GBJ/LlxMQhjz6CzFN1+f2gzIEfvlGPZz6swdMfVuHn71bjmaNOhLojsKzIhsfuyMHXNxbhvqX5+MY9xfgvu4rxFw/kY/P8VHMNJ2vb8buDzfj71+rx/75QhV+8U4nXDtfgUr2dmjZoLIIOrw/vnazD/36rEs8ebEBFq8/MW87IT/tMGUVBloDmTS9RUCRQeK2I7sHSOGop+gRp3KKoqcaCgANQDm5NKAA3iagMlZwkKxaUpF11fehEoYPj4nxVC62GoDn3BJ5mkmbph0CI13MoIgqX6YJ08lnIPyykiyOBfCsji9e7MaoHyktraaxH9eUqmqd289mQT00T6OfLykzCd7KVkiszHtNyU6EOuiNBTVdMZj19qDja98kKqQ8VZOT9V2aJigV1c+CH1CuC23FKwed9ITzN7Z87fPhP9nb8RXMbftDqxAdump0cdFpC4g6EcLTKiScONuI3H9VjT5mdPmnA1BzdNC8NK0pT6Nv1zaXptTgnGXfMy8FXN5bgrx+Zhb97aAa2LUpHYmwkzjV48OLxVvxsTz3++rkK/PHPT+M7Pz2O7//7Wfx4dw1ePtFCE1fl/RPxzfW5pp/gUPfBR42qKYoI3oMiiwXTaPEm8f0BTT6WJBR0W1toIfuoDTNt0abx6nA9KCcD2ml1nK71oIMuhZDJLZ/nfiU0LoLUhOf46uLnCynM1ZI8RmZs/z63KpSel0GLSfaUys4EAn50dvaVUhmaiN1duHTpkknH0YR0VnKM8ZWuFtlTNOyMapbSBEml6pFzrXokfaDn1kVTj2Rq5I+fodmnTrFPkny/8Pjw724PnuT2Msn/GrXRh3wYJ3t7cJonf5pHd3Dwq9Gl+uInxsXRLItAnStk6tO0doRMyH7XskysnZ2G7DStDumb71SVM1XvTichZ+TZsGZWKu5bkoMvrC3AQ2uySdxk5NPcVPylojmEE1VeHL3UgdM1PrR4ekwr7/Wzk6llc7F5aR7ih0nvU3Oayy3UhhwuMxVYuMYEhmuFhvMFEtFF4qebNuKT1zeU2a72cSqjqaSMWJ5nMu+Rsoc+Be7n5UCt4Pg5GwxCZe7ncb9FEnyTVMBcCyI5li3cBsaFLK8BV2jIJ6fuqA6H3WSCaCBm2kZnnXcEulHe6DPFf9N545IVEaNPpAWgLfQZy/kQDpF4u31+vOz142n+/WsS7kl+/nZkDy7E9MCrCcfkCOTnWrCyJAnrZqZ+Zls7IwXz821IookosiXERZl2Yw+uyDQNaWJjhp831P7xJPNimnE7V+aYgsJfXJ2DLYsysX5O2qd+Z9O8DOxakYPH1+Vhh9YhZqnN9dCD/RDJW97kRzzHSyFvdAy18bgtXuXDU5JAGZ+Tm3+rYK/6cExWKKXP5dECb/rhPOdMEiyFgiryCqGmOdFWjrn3eW3VHBe5HD+zuJ+COrcDNPZUDEtCWsJoMEa8Qk1VZCbHUmNc+0MmRdDLH3aQ9ZUk3gf0DX5NDfhjmib/2xPAGz4PKrr86I3uRXFGPNZMT8fmhVkkRS6+flcevr0xF9+9J2fI7ZsbsmlaJplGMoriFlCjPbgkHVlpNvpIo5+8T4y3YGYhf3d5Ab+3AH94zye/+Qfc/vjeXDxyRwEWlmSY4sNDQQJNUzY1Di/a6AfF8JoTScbxHDoSlMpecvA1xBNIT+IzSrv6Qu2JwkCLPJWh5HDAHA5GCasr0dndjSpe1+vcOnlfV9CqmskxGHENz3QyQwkbankwjWNJUxmDMW7jpYw39UX6cj+kz/h3vi78b5qce+nnNdE2VgrWymlp+O7GAvzggUL8h635+N6WfHz73iI8encJHlhRiBWzczCrKGPITeRR3ZioiB5qxRgsLE7Fhvnp110kSelyNlsCivPSPv6NGYUZyMlIoVk78iDQuseLtW30D4MmmGOjT6N5zyGC8mOGAJ3+Fl67q7vTRE6TE60UQon9n04+aN6wyRWEkz60IqKrersxm27Hlaii8D7BtzVPXBxvxXwOVjVQv56Mo1sNY0pEf6gXdU5VQ+tFG238kx4PDnNr6gwiKcmC9fNS8cf35JvKan9wfyG2rsjH3QvzsLg0E0XZychIiadPGmNyJrUwV6sjrtw0haAmOBca/Gbh8YysOKwpTTKpbFfzYUeCyCgifeq3+v3MkaDmpQcvdsDh6YQtSh2P41ASTU3d//l4wEP/uFxFomjql9CaKEi1GstgskKBmkYS0UtzU4t/VSt2KAFXSQ1/gltsRCRW0HzNVZBmBDfjdsINPz3Toandh0Plbdh9qsUsV5L5ISmWRN9y/rREfH5lJr6xqQiP3VWE7SvyzHKkpdNTUZCRgEySLymhrx3aaMpvmNoswU7UtNHxJwky6B8VpseZBzYSaeQUqyjwwbJW/Ns7Vfjl+7U4XX31CswjQd+pUovHqr1w0uxSK4FLNKue7PDiZ64OvOQNYA9N8ZOhLjR3dvK8Q6YcvqLFClwpQnjN4G8GaLapgatalc3JtZpki8kKlYWsafXhcmtQ0QlTeUCBmiv9Zyd9w8sU3i3dXcin6baGQjCdwnA0ZVVuGfDZyUdW309raiqycnKQlKzY+g0SUWaGCkQdqbDj2f31eP14MwKd3aYExYqSZGxdko3H1hXgmxuL8ei6fNw5L4uaL8kES1R68HqifJqD0lRBnTPI46NMpyOt1L8aCRUsOFXlxFP76/Avb17Crz+oxbnaT5ahXA80d1jfRl+3xY9AV18ks7yrE7+hT/xztwe/ISGf9vjwYocPb3u82MN/H1B5RpL3LI+9yM1JQiqY1aUKADzPq0GRNi8HbSMFkumWm2NFXsrkJWJ7hx+Xmr0myUNJ3nfT38u8wtTUwuYTFFIXSMRoXt8iEnEW3YxrWr96C0CPt5PPujEUhCWZRMzORkpS3yKGGyKi2H25oR0vHrHjvfMueDiw5ucnY9viTPzJ/QX47v1F2Lw8H0U5KcNGG68VZrLd34nyZjcSaL4WjqJIkrSWqr+9crQZr5/heVJL2eIiEc/tRuD0hHDoosOU+1etm0L6aTOyklDKLc1mgR1dOBfy4b2AFz8lIf+WBP1vPJd/4vZv3H5DH/qQ349ybs0ciJ6uHtOeWsJmOEoqMNTGfS9SG6qko5ryqMrAZIU6YjW56R/SPFVCxp3oQcagq5Mwl8n6OgXUSQrxbO5zR7SeTez4RZ0nCEq+VPfrIDWiertE0gQfmBy9oSvt7u5FVVuAN7sTOckWEjADf74tH9+8vxQLp2eaqORkwOGLbXjmUBPeueAyE6nSkIuKrKYU/43AE6Qp2hIw86brZiTi9+/OwJ9tycGf3p+Db6/PxlfW5uCLq3KwY0kWVpemUUilIIKSvioQwDG3G++3u/EPzg78HQn9Q6rUZ0nOwz6aZ36fkZxDwc8nZo9QjZoQZmRbTMR0siZ5qx6PyoY4aY1YZJYmaGUILSENwH6oIcHungjU8x5aaOGU0HRdSgLe6ulsQyFIq601OsJUZLfGWRAfH0/LsG8M3hARlU41v8CGL67JxLc35eALq3MwuzDNlGmIlX1/A8GTsYAIcuB8M54/3IJDl9qpST9ZtVGcaTWdpa4XpvCxXWUXQ2ZOb/n0FNw1LxtLZmRi2awsbFlegIfW0SS/a5rpRvytTXn47j25+KNN2fjuRt6rVVmYU5CElPQEOHu7cZym68skpkza/0nB9nNqkje4lfOcu6kxBsxWP0VoO13LEImaYYum5ogygabJBt1nZWg1OIJwdHQhlWNhOS0YFX8eiIIGSdTaYADvUjA1U8PPjIrAGn6umkgTPXbGA24+wnPdkaY+a3paGrKzqKxsfbVnb4iIimAWZNlwx9wMrOM2My/ZtDKb6JuoJUnq1b+/rA3PURMerXKbiG4Sz01J7Do7OyW1oq7XixZXAOfr3Gjg6+LCRMzOS0J2WoIJPKUkWpBHgqlxTUkOPyPhlk5Pw5pZGbh/cQ4eXJGHh9YUmESBr6zLwdbF6SaoFZ0cbZqxHCTJ3zK+pQfPev14nT6xuv+qmlwLzdcaBcMies38rioWTEYiCqZMpENlMXqRSRLOjexFjM6V46OH19lMC+B9XttF+oaJUdFYTHN0gSHqDQ3LSQuldzeSjBp1CQkJsNlssNACEEa8YglhWhRmOmIoiHBWOtYZKYlm+mCoLrrjAfFcD0unpdUO8lUlgXsoVVV2XoV6955rxdMf1eL9C+1m/yVFNpqHKWYliQbupWa/CalfL7ToWRPQJVmx+PzKHFP9e6jgk+6RosFWiwW2RCuy022mNcCikjRsXZaNh2hFfPnOfBPU2kmCaj50foGVtotqtXRhN6/nCRLzTa8Pe0jOj+hXquWaFhMrWqqE/KvVEJoIaMw0Ov2oavWjiwo9nyZpPp+DSdzms3KQiKdojivNUX6x+j2u4FhSq4XbFfIPGzlm1A05Vtk1MRKifc9u6CfYP9A1NaGWap7AdYTZxwka2FoRYrPGmuVJanKjVfm+AH2RDj8q6p147VgzfvFBI3arpyBNuDtmJOMbd+XisTuyUUqTVEuFtHbQo7WLkjbXgazkONy3MB1//kARdqzMQ1bKtfnDegDK1kmk3zRvWobpTvwnW2fgR19biP+8sxTbl9LMz7UhzhKJ2lAAP+vw4a9dHfgNTdgGmnTJJHZqQowpIjwZzTizUPtiOyooFOM4hkqiYmDjpgGnxQGnSdS3SMYavx+ZVgu2xlEjat52kmr3sUA7r/t8iFKJQlQacXBr+SGJqAebkKBMjb71fxebr96U82ZBk+4ZKVZsmpNKEnXi3fNO/O6jZuw+UY/f7q3D379ci98eaKbJGMK0jCTcPy8dX1pXhNXzcpBDc3E6NZhabFfaQ6h3BOjHfLKi/lqQQu02PT8Dc4qzeEPHzhyPpkaYU5yJb95bhL/cVoivUXisLElFcXqS6ZCl/F8lTns4iBucfQJIAnOyQYkOx6t8aPf1mgXihdGRiNTkPO9TNYXjIfqFZ+gfqrbpZroLuTG8h7exNtScscaauiGnpGVgxvRSZGak939KS4Gs/Ju/+qu/6v9nH0I84HxZOaqrqhDVHcAsSuaVM1L7P51YGFOPDzYuqtsESmodQdTYvThX78GpOg/aOrpN7umGOcnYtjQdGxdmojTHZrpBKfSvwsdn6wNo93eaPobaV/VMrxU6D2k1nctYaiR9lb7TQk2Xopo26WomE49Z2ZovjaKGjzBVCDo7u+GVfCQJVfDcRhN1skRPlXBxucmFX31YZ6yplSTanQrU8LWWY+tZnvh+P90CXuySeCt2Urjm0q2ZrGspxwJOmqSn6WbspxBNTc/A+rvuwpzZs+kn9qUmDklESd1Ll6tx7txZRIQ8mJufNOmImECTTb6hthD9NZmp1phILC22YSP9rPVz07GwOBkFGYmIi6X5xv/J6tFYtbtpztKklWka6uw1wRutgYuK6DXa8noSDcYauk6Znbb4WBPdzU21mMYyWqDNUzQDvIkmuZq5aImRxrCWq8kfHUvBcK3Q2FHZkjeOt5h2d5k0R++wxJqS87V8Vq/4A9hHEkqGLKSftIPWRF9V88lpYo8V1MH5EAVUOV9z8vNx3z33YNaM6R+bp0MSUbmcFysqceLEcXT73JiVk4jlpUnGb5wMt0oPTG3SUuOjTOUyLQiewXNcUGjDPQvSsHJmGoqVwUMfTKQa6Kwgs1YdfSNo0lbQ3JZGlXmnlQHNrgAcHkX4qG26e0lqBVnGVttdD/T70nTx9IlzSMT81BheM8lIwpluWzx/Fevy8LwT42gpUBiJwBOVe6pMq+OXnHjyYBvsniCWcKCpcrmM592BIF71BUyK3kIS8H76hut1vjLtJ4HwGy/0UhueCHXjA2pDJ5/nzFmzsfm+e1BcVPSx0B+GiJ04d6Ecx44egb+jHYVpFiwu0uTjxE9NDECRQrVHK86Kx8KiJCyZpo0aMCvJFLka6jz1ntGmMb04X+9Drd1PzRjApdYATtFcPVjZgRNVbjjdfmTbSNr4vmJZk+eaI0yZDlVMWJBvRU9PBFw0saUZtSj5Qr0f1shOk3EjQaVnfCOJ8NcK1fmppTbcV+7A++XtJqp9J0mYxlM4xkH4JEmorBK15n6QJLyH7oLp/DtJ7u94QXVc99IS2NvVaTp7rV59B9bdsQZZmRn9ewxnmtKZrq6pwZHDh+Gw25Fhi8PcXIvpQzhRknYoiIySKOp6pKRvFRK+mlmpqQsRNZFkVEW2S61+EzlVnZ4gBZDTGzS5o2oBV5waiZSEmD7TdhKRUdcoDTm/OAWrSxINIbUouUnJ95faca7GY6qgZdmiTWWFm4UOjw/vnbHjleN2tFCYxcfEmO6/ZSSfUtgULZ2ZmIhvJMVjtSl/QT/h9uagCdLs6erFHro+mrpIy8jEF3buxPx5c03r+wEMOWql+datXYOM9DT6Xr3wdXabROvrC/SPLzQwB2+jgUzORSXpmJZt6/s3j7PRhCqOj0eRxYrYnihUNnfglx+24PBFB1zUmpMJuk4JRM0hTstOxhfvyMP3NhdgBa2CmMgYnG/00DRswhP7m9DY5jZ1fsYbSmerafPhYpPX9LYwwo3bOz4/DtAn1PmuSkjAt0jA+TSrVdf0tichrz9Ic/wCBXwd74+FlkBJaSlWrVqBtNSU/r36MCQR5X/k5mTDlpyMbt5Ad6ATWm93E57nTYMyUyIVnOH1pVHw7KIJ9WiC1Wz301yyUVrLTH3/nANl9R0I0rSajNCK7+k5Nty/OMsQcvvSdBTQlWh0hfDuWQdeOdqCmmY3z3/k+q03AiVuaxX+iaoOXGj0oiPIe8X3lPDQwlfVptlAf30XSbiU55t0G88VDoYyaOqpyKo7Q3DJQsnKwv333Iv8vDwzoT8YI9pxqalpiLPGw+3r6/CqG367oLzejXr6iFYSbobFgs9ZYrBdGwm5ja/rOHDkZB++3IGjl1xodX623fJkgQRndmoCNi3MxsNrcrB1SSZ9+kQztfFRuRsVDe20aMZPkCilsK7Vg6MkYiVN/RAHnbS2jdsCDrj74y3YQd/oDuWRkpT8sP/I2xgcKyGa4ip81qT7wfswvXS6CdIMVXZlRCLmFxQiLS29r8uRv/vjVLJbGTp9zSd+cIG+VL0PaTRTl5rqcPR/FfqPjkIxB8wXoyMwPSHedLQ6Vu3GuTqaePSdh1+gNLHQwFePxznFGXiIZPzG+hxsX0LzOyMO/pDS8fp3HGOY7CuS/NhlNy40dXCchEwJSVXwW5mQiK/Fx+IhmtBzeG59E/r9B97mEFdcgRAOdvagjX9n5+Ri4eIlKC2ZZmIaV2JEIlo5ODXPoTmriqYA7I4OM7VxK0M1Zi5Ut+I8NaLdq/VvEVgf1W2Kvg5AhMzktT8aQ1LSdFWZ+GNVXvj8ASmZSY8UWwKWzsjCI+sK8Z37C7F+QRbSrrJm83qhxIJmhxe/O9yG6taA8bdLee9+j27NH5KEC+lzxytrZoqYowaU9naapHu7e3HK44GbGnHp4sW4b9PG/h0+ixGJWFJcjGzatd5QNy62+E03I+We3qpaUREstdZ+65QLlc1eZFI8L6HpnRsb15eM3A9pF/XjW0BCLqPZGhPoxqkaF45Wukzkb7JDkWHVhFFX5MwUrQiRth/xUV8XdD/L6RP+8M161LZ5TRR0BU3QL9AU3UDzXisu1ElstEG02wWqstdGhXWAQr+D9yiJLl5BYRGys7P69/gsRnw6xUWFyKNj2RMZjaZ2P7WIFy6vImK3XtRGwsPlDeJYpQMfVbbD6evGbJJtLU1RS1Tf0qjB0PxbCk2IRRxMufy01hnE7rN9vfTVWmCyQ4Nf0xzS7nodDzK0uPzmfiqDRkkQy0n+zSTiWksssicwqWCi4SU/aro6cSEQQCfHnVy8gsICJCYOX2lvxDuVlZWJoqIiM/fhob17osZnWo/dCgPxSiigUE+NvuecA5dafabnoiJ4s0cwmeQvzoiOxGzuFxWKxP5KN45XOk0RKk1eT2X4OB5OVbdjX5ndLD0rpvm5kQRcTV8wuz+5e6qimmPjOM1RZyiEOJrp8+fNw/SSUrMUbjiMSMR4fokiPbNmzTYS70ydHw0OPwLBW8tPlDZ0+4K41OTB8Rqtj+vCppgYLKMJZZrDjADVUFHrcc19tbT78OSBZrMgWINvqkL3s7pJUzttOFDpRRItigc4VpaQjKlTVAsOQHOnx+k3v0d3Ljo6BgXFJVi7ZjVmz5phVukMhxHvmhb6yq4toHmqhZ4tHR4cu+REddsnvb9vBSjaWV7fgb0XnKbR6ayEBCyNi0POKAaNlubMj4rAXcq05v7HScI3TragrN7Tv8fUgkioKuMflrfTb/YgimbY7MR4bIyLRhbN0ds5Z3Q0aO4MoTHgh7ezE4m2RKy/8y4sXrTQJMeMhBHvmsKsRbRtly1bhllz53FQRuP9snacrvP273FroLrZg71lDhy87EYMB9KGmEjk09zUAuPRQOU11OHprlgreijpTtV4cabGDXv7rXUfbhR97eoC2E1B9MEFO/1mP4r5/u+TgBk046eqT2jAcdXlC+B1bwhHaHFZKexnz5uPbQ9sRnFh4ZBTFoMx4p2Tg68iNwsXzKN6XQtbUjIa3Z30DVy42HBjxXlvBiS9Vb79o3IXDla44fN0YR7NzGXUcikaNKP0YxR6zyFx74vv61lQ5wjgQIUTR7ipn6J+53ZHn3kfwsnLDrxwtAkXGj2wdSvqbOE9jUHsVJqeGAJ+Woy7O3uwjy5La2QUCkm+TRs2YN6cvjWHVwuWXVWEKQugqKAAd91xh4n+xMTG4lytGx9daDPFgSbrGFR+pfpRnKAp/f45J2paAyggATfRTi+kdFJX32uB0rIW0/xaSp8yqqsbJ6kR3zvrwOVGt0kQuN2pqI5O6sz8xsk2k1jeHegxS5zW0DccWHk/VRHiWGvgGHixuxtVNEk1XbFkyTLct3EjkpOTTNT6ahiVLaEvW7x4IRYsXMi/U1Dl6DSpX3anx6xamGxQRNND6X2hxomfvl1H0rgQjwgso1DZGNFXeOl6JpgTONh+P9GCBSRju6cTB0ny3WfssLsD6OaDuF0hbWh3+0184PVTLuhS55CAd/N+LlW74ikMmettnd04RMvockBrLXsxc8ZMbCIJFy6cj5iY0RVUGxURZd9mZmbg7nXrkJuTY+oyXqJ0fP1EKwe8QvmTazrD7fXjaEUbfvZ+E45Te/f2RmEdtdkWSxRtd1LyOqW3Jv3VQvq++HjMj7OgpaMLL5xw4JUj9Whun1wrNMYSCs4cqXDh7dNO+IJBZFqs2EH/ejlJGHkV3+d2R6C7CxeCATwT6EQHtWEc782ihQuwZuXy/j1Gh1ERUQPXwoG3cvkyrKGJmptXgHpnAK/ywbxzqgXNTi/JODk0gtvjx8FyJ1480objNe00G3rxYGwUHqAWU0m/G5nY1pFqIb08Ogp38vsKo2PQ5PThuaNtKK9vN01mbidIE3p9frx1shWvHG9FebMXKfQHdyp31BqLhCmUOzoUlFl0icP+cFcvWkJBxFJA33PPvVhHhZWe/klhqNFgyIXBQ0EDOIHaxGKNR1tbGy5eugx7ux8ub6cp0aDOwomWmBsa6DcCDRoVvdp3zk4/prWvsjfPbZnVgu3WOMymbxhHH3EAF5UjSZuePEXitUT7eH2qPKap2SAfxIUumiaekPnulPhoZNhiaEHc+tXITISUPvbes214lSQ8QZ84OtSDdfFWWhaxyCUJJZR0P6Yq7PSbPwyEsMcfhJu3Ye68Bfj853Zh1coVSE3pay4zWlwTEU0yNE1UtUazOxxobm1DbZvfZN/LbFOlNJFSuY43i5AioMovtNI0PFXVjhcOt9B3a4ff14kZlN67KDzm0pdJHERC4UCwCyd53l6aFvkkjlYMjPac5V/a0Esy9qKJx6jddJO702QcpVqjkJxIMnKQTpRQulEoC0l+r6k9c4DmPUnYG+zBYt7HnbyfM0nCOLO6fmqSUIE5Hy3A/f4A3qNrVhURicKiIuzY8SA23X03CvLzDFeuBaMm4gDUGruwoAC5uTm4XFcHR5sdFU1uXGr2wR/oQl4KJaVqWGpgjyMhFZDRUhMJgbrWDuw504x/fbcJJ2vbESTJpAG/mGQzJqRNk/FXnMclasQP6fuo4GsRP7fxZqrt9mhrvOhGJ5HAeRG9OMtzafaFUGMPwuHtQlEaP4tX/dRbrzJZN60E1exRZQIVaT5S5URXJ0lotWJrYgLWWtUuXfez/4CpBrIw1NuDMvrKv2j34AzvTR75sGXrdvze44+RG/mjDtAMxjUTUdAPpVD1FuYXoqG5Ge0uF81UD8pIxo8qOxCLbppqPbDEqAOvNMM1mH5XgTSgpibaO7yobmqnP2jHS8fa8DT9tCaXl4MkCqs4aHbRhFpLDW0xv//ZUZMTIoEDAXxAIp6mja/jMvjd6n8/2uyQGF6X0rusvZGok1akUHDSHG519yA/iZ/RXJ+slbiHg7vDh73n7Xj2SAuOVbt4ryOwOCEBOxLjKdSo6W8xwTLWUJZWm9ePn3f2GvfGmpaGJUuXYee27Zg9a7pZeX89z/u6iKgfUt3+1JQUpPJEYuMs6BQ5PD60OT2ocQZQ0xaij9EJcgGpiX1lDW8EqiznoqSuaNAcph17zimU3oa95S4zuRwI9GC+xYLNHCz30CecT02YOMISnBhqwTJKt1M0w9r53ZoHCpKMSTzP9FFqcu0hLZpBzRdNUvr4TgsfTmuHChir4UoPyUhz3To+awHHEhJwio6+eaIVr5xowbk6DywR0VhPoSYfe3FsNC2LsROotyIUg6igAH+6qweHaZIGyAEFLx/+wuexmn6hikFd7zi/LiIK+kELB35Gejoys7KQlZkFW6INAfprVQ2t1E5Bs1JDXZdUc7O3p8tciEw/aYmrQUnVDrcPjQ6/SdY+cbkdhyvbsf+i06RXnartQFmTF3ZPF1IRibviYrCJ57OSryX0YdQUcyQySev5aGe4aIpd5m+1U5C4OBi7eEwiCZXOf0dq4F2FkPpUnW1TjHaU5dKL+hB9RzXn9HXBG+jmPr2mqrjM2euRluMNb6ATlxp5b8udeJVEPFvnRWI3cK/Vgk3c1KEpZQShNhWgcvkXQl14m9ueAMc1Lan5ixZjx7Zt2LjhblM+/0buT0RSUlJve3t7/z+vD6qS7XA4cbHyEg4cOoQ9772Ly1WX4evoQAI1onrcL5+WiIzEGORnJCI/PQE2C7WIfLdBkBOsLksq8tvW7keT02tKVTS1h1DbRmKTdKrj6fQGTF6jNFFRbAyWUPtt5Gsh35MPO9rJegel2zteH/7R7TXmrm5kQWwcyRyL9fyOnAQrsvlq5fde7TsVwHJT2JzXw6KvfIpmr5eDNzMl1pQ83LYsC3MLUyi81Khz8gxo9c6oaHRj94lm7KdbUdniRTIfxF0k4E5qwvzovsCTkThTFLIWqqgBX6Pr8RbHjJ2kzM0vwGOPPoYd27fSJJ3Zv+f1Y0yIOACVW3e52nH69Dk89/KLOHz4EFoaG41ZKQ0kFzbdGo1pGbGYnauWYlEclH3HCiqb3+ii5GkIoLG9E16aeUofUp1VZa7ohggijIXEu88aj3voAy6gJkrUWi/5olcbMPwOfY0asvko1fbzBv8Pf9DUNNX363AFWVJo62+gyX0PhcU02tdW/p4MTH0+vOTjd/MiOviwnuG1vN9BM53fa0uIxZrSFPze3Tkozk42pqqE0ERqGF2rX5UX6l3YfbIZTx9ywOHzI5nCY3uCBbsohPJIwqm+msKY7Bx7v/OH8BbvTw2VTlJKMr7yla/h4Yc+hxmlpaam7o1iTImoAa7V+yKeT73hyyuoIQ/jwOHDOH/+LNxOFzqDAaCnG1ER0kA6avBgVCBGeaLcRe9zB90IbZrX0qswmIgq2T4nshdpESS1HGUxe8gBzu+h1hJR1IH3A5qzb/Ecj/l96DDn3ffdgo42JjQ3TXssop+0nibvSvl8UdQQMjFHMFtV7U4LxU6Q4C/Rsd9Pwsdw13SbFQ+tTMem+ekoybF9qi3XzYSu1evz4bVjrTRFm80cIYW9mf/8PjX2+ngLUnhug8uHTFUoZW2fL4TfuN0op7UTn5SMhUsW4z//4AeYM3uWaa82FrdpTIl4Jbw0+xxOJ9rsdrS2tOD4yVOGnM2tLRwIfUuI9L7TYUeQpBDUX302zaLZlDJZHOvkDry9EThBbVvNAe0jyYUB0zSdN0FLcIotVsykWZpP7Zge0YsEHhjbn3nXTu2jngNt/HcNiXiOv1VDKacyd+30EUeCSJ/E38nk72XzfObEJ2Iaf6+Qv5NJcZHI79TEdiQFw5Xaw02JUhkK4mggiENd4N8hZCRFY15eItbMSMXd81JNi7k4Ov03Q/OEqKk9/oBpwnOE/varJ1tMFy3wlip3dAd9wSUUOOm89zcaXLsd0EmF0RgM4h+8IZzjM4xNS8eKlatMcGb9ujuQlGQbs/s0rkQcgCSwtGR1TS0aGpvgcrcjQB/KR6K+9OqrOHn8ONwuJ2J5UaoxqjqYKtWeQu0mPRWgjjrFQbyHg+gUHeUACTQYOk5FgvNI4gzelzQSLykyCtZ+bdvW2w0nSeEiaVp5LjIXQyTgYC04GkhD5FFTqN+fhEQWtaI0cTKJmsbz1XnoscTxZ5MoDGJ59iqyq1LrR7sjjJOvKZPY2EjMzE7E2hkpmJ2fYDo9ZSbFITUxFlaTnTQ2D5f63xQyUlkLNXRVJe7LzT5UtQVwts6NihYfLF0RWEy/+B7+rsrgWylkxkTE3+Lw85ld6gxhN62aV70B9ND6Egl3PrgTD2y+18wYjKWwuilEHAqSzmfOnsM//NM/Yd++D9Hl8aAoJhbbEuJxNwdFNgfE4ACJkzdlLwfUa7TVT5GQw5WR1xGx1IxW+jdx/cd3dHaZ5NyxTE6XRlax3CT+Thp/J5PkUdqb4k8J3DL5R7wqifM96XAntbpyEi9TG3soCGJ5femJVpRkxqA4w4rp2fF8jUdGstWQMjZa5ncUt2vTTpqQV3sEdexVPdp2byfq27y42Oyl7+1DhVqWuymIaGZlU5CoUsHdcbFYxfOdCg1hRoMgNeFFjs/3qAVf8tPNouCfO38Bdu3chQe3bUVJiZZDjy0mhIgihKKsP/35L/HMU0+iobYG0yiVtycmYgedqQQOvqFMNR/JqLSiH/mCcNCpUSDn2nTazYHxL2mqam5x8LDu4vlqDaeEyODz1iRwekIcsm0xpnHMnbNsSE2IQk5qPLLTEmERQYi4aDVGNX9+jFA3/Wpu+j5peC1Urm1xGw2oKHNlcwDnGgKodQXhpnRX9fIE3ts8Crz7eI7rZNZzM2sKwzD+/eVgAC8HOvEmt3a5ExmZePzLX8b2rVvpF840z2usMSFEtNsd+HDffvzjP/8IleXlsFECbeTA+LY1FvEaFMNIZQ20Dg7ksoAfPwsB5T4fvFeYqZMFw0VEhzKHta+Ut65b0VQbTXPVA5WZaKVQUl9HYcOcRNMfcTAOX/Kh2h5CkNqWX27qrvqo7QJ8DdEPDvBv5eKqmZDSAgvpj25PtGETeZdGIqpBqATGpyTGFIVI6Az48NNANz6k0HKQhIk2G77//T/F5vvvw7TiIhNgG49o94QQsa6+AS+98hp+8q8/QYfdjvs40B6yxqE0wXLVizQRSUr1yxx3F+lv7aO5eoyDTUGca/X5JhN03TJ3RbqYqGjj3w1cj+6I/s5IFDE/fX8cHpqindpX39GngXWUNmlgJVHoWL2fy0Gk+cEvWqh9++uOjnbO9XaHAjNNwSB+Rn/wGK0tF7394pIS7KJP+PnP7zKNY1StYjxIKEwIEdWf/yc//RlefukFzKLv9gVe4Ia4GERS+l8LnJT454Mh0xL5qFZgkKAeakjTo8MMxckPPdgE+pl59DdnyEwUQUhGzZsq66edJJJn66L5aeffCqdfCSWsp5JQ8k01TuL5twJcNbwnZ31+8xuZNKfu4LbZEmvKfahmaxh9kKCq4716nffqWY8fAT6L6TNm4r577sVDX/gcpk8vNYki44kJIeLR4yfwX//73+PI/n3YRSm9zRZvivheD3o5YOu5qc+Apjdq6GS38t/tlHBuDuTJqCVFDJX0V7Q1mSQqpok4n37gEt6DOUpS5/s9HBh2nr+d+2uCpa0nAvW8FqXlDUYvhU48X1XGQ3pQk0CksSFueagbZ+XjREaZ8h4b6QeqqLJaZYfRB80tO3mfP6IwlzZ0UDFMmz4Dmzdvxg76hAvmz71qBbaxwC1LRBFM6+EjOC41WS74vT6c4zA83xuBs52KrvrpO3XDz31V+HUyII7Es1Lj5VI7LbFaMYuEXEadl8Xr11zkaKBrl2es6w/RNNf0SDnfO9stsvagieao6mqqLdrc+HispvZbQZJey29MCfCe+Sjw9lNgvUKf8FAwgJzcPDz80MPY+sAWzJ87e1wCM0PhliSiBqJId7A3Euq7Olehfvo+el9TBQpSqDHkJUq38u5IvNHRgVoOzImGkr7vjk/AirgozIqKQFEktROJIbfPGIpGq40MlWdQOL2O13aA13axqwd1XSG0UvN5Oaj4I8jkPV1C7XcHv28hj0lItJpyh6P9jSkBjhVZHW+GeoxJeiYUREJaGr7+9d/Hlvvvw/TSElg5psbLJ7wStyQRpd1a/D783N/JAdmDBZT42zjYCmJi+tKy+LlpOU4t0EETrTLgN2XQj3Ir68/guVlQH/lCStWlJMgCaqvCeCvS6AfaSAy1r75aRo2fxGumELHTNK3kNdWShG38t5tEbOG1qduQTFn1m1hMbavfSOLf6SR4huY5eTsi+Xk4KvoJZI76eR8/JAlf9dGKCgSRUVyERx75IrZtfQCFhQWIt8ZDlSZuFm5JIipy2h4M4t8DnfiAppmWWK3hwFuXmIi5HHEp1DaRCkb0k1KT+XW8+Rdpglyi9CunlXpJWpMmXRcHriBtqu1aMFhaXnms8jazSYSF0TFYRuJNJ+GKuY8m8k2e6iDY+VkLX92DvqKD+7oosZXIoPN0k4hNfK+Nm3S76uxk83U6B0sWr13BmL7f6EEM3xM5r/ydMPicKLjtfPZHeG9f8wVwkfc2u7QUm++/H488/AiKiwqMOXqzNOEAbk0fkQO2hxLtcGcPdvsDOEgt56ZmWEEptoZjbzZvZG5cX8bL4DWFMus0r3aY3BvIXVUTSY1/L4nq4Rbkv9RKK8RtOJj6PNxsHPh61b5uHqt2XFogrSOVGK4lWqt4DnPNO8OjgZqshgKkbdBuDv4tzeft6jSpc7o7ifwtrQvMosbLi7MY4i2n0MkcgtxhDAEJMj7/o8EQXuSryqTkTyvB9m3b8LmdOzGPPuFE4ZYN1giy8c+SjFoj9j5NDDcHbg8JoArUm0nGNSRAQoLF9LiQf3SllGvg8Y08RoGP2p5IVJFEbdykgewk6HBI4G8UUNvNJAEK+ZWu3ghc4HGq8mwncdQ7XfmwMqHFLUU9u0YgtiBy6xwH6KSqcJpsT4yKJtFiqAEjMI3Emx/Zi5kxEUiLHb7FVxhDgPffz+fyQbATL/qDOEVzNCs3F49+8Us0R7dg7uxZNyU6OhxuaSJqlHfyP5quOEVTVb0HZO8rmCH/aK7VaiKGcyN7TPk/tZAeDBFlYO2FaEeXC10kp3JBWyOGX5WRzI+SSXRrXKwhjyjWSY1opxmpim4d1G613RHw8QOVHVaieQXN45Gg1R0F3JJ4rL4zh4TL0EaCZkfR9+X9UTtVRYh1pybT4uJJD95/CW2Nj1e8PpzhM0rJziEJH8XWLfdjxoxS04JwInFrE7Ef0jaaM2ykz3iBA/5kVw9t/x6084ancfCqXdh0EmcBTUWRMs2sKfzEZB0MOfLdNDFlog6HGH6kVeufSsbme506juciyvmpJfvI3RcYcNAcGgkJFBw2CotY+Xb8t0o1Kpoq0aE+HSMFdZQ9o7KQPu6TRZ0qyR7OmOnDQGBmT6gHb9BqKqfQTi8uxs6du0jCzSiZVmzWFN7MwMxQuC2IaCCpx5vs4Gs1SXhOvmAgZDRlDweyKasRHYlp9KlStGIiJgZ5JGMhN630GDfovGi2StOOBEU2TU2bqwwI4+dyU5ZNQ08Et27TmVZpf1oNsoXXkklNHcPvmurQvXJSKB/nWHjRF8D5QAD5s2ZhywNb8OCOHWaKQhXsJ5qEwu1DxAFwgEoKOkjKkyTk+z4/qulDqqq3h58pHzOaNz6Tg3YmSTiXA3caNaUGroIvKqdo49ckaV++Gk0kjSTtOV7PS+fMre/vvv8oMqy3QvxdF3/Yz/cclOx+EtrHa1GWTQWJWMG/Vfgqmde0NC4Gj8VFI4/aPzZyahNRq0zsJOEJkvBVCuSTFMjZhQV48MEH8fnPfR6zZk6fUJ/wStx+RBwCH/g7sdvvN9rRS4KaOjgcyH1eoAhHLaksF2rJGSSeSgHN7e1GDN/XhHscTVsR9UrJqX/JYKQrNyTIE8OrkVZBmiQECgwlaEuAaP8uDiJlBPXQ1LVTcJyIiEId9zvs8aCNZDS/SYKqxqiqA6TyHJU/+kicIrWWKV97VELM7Q1gH4n4Ku/XSWrCtPQMfONrX6cm3G5IONkwJYgov81PrViv0DVZUc5BX07NorzCIDf1/hsY2DoLJYGZjT5bicVCrRmDUpq0qcqnGwT5cekRPUik1XnFRwbe6L4SHR76i0NBh6gMSBX/aOY5eXmeWs1UGQzAy/NVyzvV7tG8oYRGD0lnpbBIoyTPpMZTgKeEUkC+73RuVv6Moq9TmYYDS5meCPVSAAfRwvualp2Dxx97HNu3bkFpybQJqxU0EqYEEQVpGzWNcXKYykRt4mBvo+Zp5MC/RCK1UvvU09dSxHTATFQwRotojcnKf8dcwTbN7yWTFEmR0R9POwxGe0+XCSIFuA2HbhJR1Xu0qkJepH7BQwJ283wlHOT3yactoUbO549MI8vy+Z7NEmeCOAk8Qk1U1cl4qkMr6+v4DJ+iBaQ6QS4KK80TPrDlATy4fZtZWZ8Qf/1t+cYTU4aIVyLQ1QkfB7/mAJu6+7JYLneFTG0bEVUpZe0c5MrM13SITMcrIaKoLIdlGBIoqKLaOFcr0WH8U24ivQaJtHEex0o6tXAy30sn0QviYk0F8kyek/zBaGrGMD6BglWVFKK76Q++7QuazKQZs2bj3vvuMyvrZ8+cYQpiT4bAzFCYskT8GFRBiq71aDKeGk9zgO3kTQOVWAu1ZBMlrIufhUjGXpKkk8/RzmO03u9aoL01FaGiUhYeH92vdQWZm+mxsWZZlIioHNSZJGE2zc5E7pdIoRBHIvYFjvoPCuNjaFFvOZ/TuyTha4EuuOgTzpg5C1tJQGXNKGNG/VomoyYcQJiIQ0CmqdY5muAJfUgtNNZ8oIIvLvp9+7sj0TyM3zccFMNMJ4vmRHUjj98Vr+yBfphyjFFaLd8X6dQUhhbuTuaBM1mg59IQ8OM5kvAVklDLvzQv+N3v/AEefHA7ZkwvnVTR0eEQJuJwMDzpI8vAn3oV/1QlfGRjc2jIgJVBKbp9yt3kd36acp95I4whIBK2Bv34sTeIA/6gCXylZ2Tg29/6tklbKy4uGveV9WOFsId/BaQFVX5R/e9qOoNop5nTFVLcstf4FwMJ30rAvtZNxw30YDRar39TafPOYAgBXwBefwCV/G0n/1bjkzCGAUnYQavlJyThUZIwGB1Dn3AWHn/8y9h8/72mxsytQkIhTMQrIH9D0we/c3vwmw4fnvF34s1Ql+kwfJzbaW6NJKajM0TCdhoTdlSQacvjOujL6Ng2bvU8/iS/70N+/+vcnuP2bLATT3R48Q5faykUwvgs5NM7OrtxiPfrEE1Sj0g4Yxbuv/9+bN/6gKm2pkJPtxLCpukVCJAc+31+/E9PAE4+cBV2yorSnB21Gu1F5X+q3L6NIswaEYnMqBjExET1aTwer89FnxDNJEVflWFqTFr+rZqjbTRqlceqqQqZUjVdfUWhtOqjg+9JW3bzHO60xmFLghWLYsPR0cEYyJo6QUH1Cq2I47RYimf2kXDrli1YtGDepA/MDIUwEa+ANFwVpe3LoW585POaJqZKCBhYo2jm9vigVYpQBaA0ua4opzJyiknOVFma/B5HTwQuctA4eUw3iSef0sF/a/2jksNFTk2JqAuVfEaZrJoGUZbMQrUd4O2Yzb9tV6wYmdLgvVSNmY/4bF6iOXo04Dc+oczR8Sz+ezMQJuIQEEHUEs7Ph11GYp2nJjxFM+g4iak5wQFpq/8af4+vSofTynjTX56g22dS6UTCAcjSvLLQo44vtloxnwNoCQ9dzD0SaVbFk+CqMxOOnPaDJDRLmUx5Cz+O+32IS0y8KcV/bwbCRBwG8kN6u3vh4XN189/t0m6aS+T7bd2qocrPaFoqgnqY76t2jKJ4A8PAkI3/Ee2kObNIrHl8HZDXWmk/S9fMA7TQWC3DVQgrhfsro+dqtWymEnTPVb383a4evOX1oYL/ziiedtOK/94MhIl4rSDZ1MpNxPSTRcoNLe/pho+DQ3mOQyGGvqQm64s5UKL6x4p8ynz6lmGMDPnWdlonRwIhvEh/sIrCL3f69Jta/PdmIEzEMCYtFJhRiqFaKjxHN+FCKITCCSj+ezMw4faPooqDkkzCCKMP1IRaWa8po1d9QbOUKTU7xyRwKzCjtLXbhYTChBPxHE266mFMujCmKDgeFJhReQutrD8ZDCAtLc0sZdIqCiVwa4ridsKEENH0A0xLNysI1Djmau2zw5g6kDmqKQpFR1VjRuUtsgsL8Y2vf8OsJ9RSJq2iuN2iyRNCxMSEBMwoLYXVajXr8Do61Y47nM411WGK/5KEH9AnfIUklE9oy8nBnXetNzVmtKhX6wkn61KmG8GEEDHJZsP8ObMRn5BoCjt1SCuONlUsjNsTio5yDJjiv/4gTlATRtiSsHL1amzZstmUt7iV5wmvhonRiInUiDNKkZCYyBsbiXa6iG0fz8CFMeWgwAy14VES8cVgJ05QG8bQWlq0ZKmJkK5dtap/x9sXE+cjpqchTpOw/LezuxfNWuwXxtRDf2Bmr6KjXj/O+P2Ip/m5bNVqPP7oo1h/xx1GcN/umBAiyrxQ1Cs9PQMxsTEm6bmRWxhTCwOBGbVGe9XrQxl9wvjkFCxftQZffvQxrFqxHGlpqbetOToYE0JEIToqGtNLpyOBfqJWOTSohkxniAIyTMipAKWtqfW6moSqP6FaJUTYbFi6bBm+9MVHsG7NamRnZVJgT41Ej4kjYjSJWFJqIqgePpBaOumVoS7TQyKM2xx8xB76hOfpD77sV0MYPyiRScLl2LVrJ7bcew+ysmgtTRESChNGxKioSOTmZJk5IdUWrSYJ3+mKQBtJKcddS46utqlIsKmITfJe6ybfJIyJgVrXVXb1YA+F70GfFxFxcZi/aBEeo0/42CMPw2ZTEG9qxQwmJNdUkAkaDAbxtW98A7t3v2OauqTQb1ybEI8lJGkmRcTV5KEqoqWQVIMLMY0WChRFS+JOsQc+GVBBAj7v9ePtQAhdfOaLl63Et77xNWOOyiecipgwIg7gT/70z/DKK6+gw91uFtumREUhhdxQoYOrccSqfelrJl5Hn4diDoBUEn6yGz9K5LLxPqRH9iKWNp1uSQyFWDz/ssTEmiVTt8rMj5aJ1XV24imPHwdIxmBSMhYsXoJHH3kEa1atND6hGvFMRUw4EX/445/gySefRNn5c/3v9CGG5IqP7lunNxz00OK4nypuDwUtwm0Jdfb1lZBjMggqV5/AETzZH3s0SZZAiZTCP+L4tzinPolaRpUSG9e3eJjvqZmbPs/kazwtBd0RJaCIyGm89Cj65FfrNDWe8PMZ1HZ24XV/wJTCDyWnYPGSZdi580FsuOtOpKelTSmf8EpMOBH37T+Il15+GXv2vI+Ghgb4fT5jtsZx4KRQ4mfFRsMmUnKAaVBeDdIaNg5StZ1UJe9XO7zooA9qiSbxYkladfq8CngYyduLjoBKWXTxXCKRGBc9qmPHCqHOXniCXQh09vRVj6PQGehroVX9qoWqKuCx/FvCRJuqxBVFRFJ49Zp7JTJa+JrLv+I4yAfae4u0akknQgu6Z8l8VWu4/rfGFKp4XsX7+A5J+LIvQMmSiOUrVmHH9u3YfN89SEtN6dPsUxgTTkSfz4/LVdXYu+8jvPDyS6iurOB7PnTShBEjrCTk7DgLCo0GGxp9uo7/5f8zqA1UJbuAA9LZ24O/8vhMAKgozYr5uQnITb16TRP1nWj3d+FotQ/1Ti8yE2IwPz8JxRkDRYnGYbRegbaOLlS28vddvv53CF6f6RxFn1j/C3b19v0tyUGIphrQA7mYOldTyoOkE/ki+/ez8r2dFot5FTL4/kLaD9EJVsRyX9XPkW5SQ1Zdqtmrf99rhQJq1XyW75CAv6UmlDu/fOUqPP7Yo9i2ebMJzITB2zvRRNQg6urqQpA+g87j4KEj+OjQIZw8eQI1NdUI+v1GcmsgDTcWenu6TQ1QNQON5ADVINJKeAVH2/n9UfQH75+fikdW52BRaUbfQSNAlb3bSICf7q7F3nK76WW/eWEmvrYhD/Hx1o8H+niCp2AEgrYBhEIhlNe3o6KxA35qzPfLPahs7oA30NlPOmrImChqw8hB5OmLLndTK/Xwu3S/NYenglcDOkivZlER31uemIhZsTGYyeMWUpCpg3Gkqo5ru0atpd+ppGugpUxvyRylUJ2zYCF+8Bd/btLWrNbbbxXF9WLCiTgYKszkdLrQ5nCgtbWVRKxF+cWL/Z8Oj0AggObmFtTRtO2iGSr0cCT7/T60trSgMxTE+hmJeGxtLu5amGc+Hwk6D7c3iBcO1OF3B5vQ4OLxs1Lx11+YgYxU24SZUTovj78TTk/QCIrfftSMjyqccHo7UUDybIiLxWwSxyIzdEBYkMddJHC9juU/XSTjRaol1drRomwP31eZD/nRKiWpkh4D3a9UkS6NmnMGBVkpzfNCXnaWhCJ/q4/kw0Pkr6JwfZYkPBTsRCDRhvmLFuOrX34c69auRkZ6ev+eYQiTioiD0UVz0t3hRmNjU/87w0M95Nvb3bCTwOopKHRSO9rtduzZ+yHOnDyO4sROPLw6D4/cWWw+HwnG7At14djFFvz0vUYcvdyOJcUJ+B9fmo2sjGQT3Z0o6Loa7F7su2DHi8daUd7kAU+V5nscdlHDzKebl0BzYKC6XBSJaCXxXCRmgO/J0G1QhTm+iiyerk5T4lHdkxpo6qoWq8o+Ongf1U5ObeFyeb25PF5tzufExmIa/fY8vhfPfw+lJeUT1vM7X/D48RFJ2JmSisVLlmLHju24f9NGpKTwHsofDeNjTFoi3ihk7ra22fHM8y/h17/6JXrbG7BzeS7+YEvJqAaBmpeer27DT95twgFqnQUF1gknojRiXasHH11ow/NHWnCm0UOB0W3adKtd9zISJJunlkAGKlgjIsrkzIyKNeZ1AokjP1tTQzYSTpq9k2Tz95CIJGlNT99KmAbeu1oKNzutC5cEIonrJjEVLFLj1oX8nvnUunnUlGnUlJn8voFAj6Kj1bx3H/gDeNYbQHRSMpatWImtWx/AlvvuDQdmhkFUXFzc3/zVX/1V/z9vH+hhx8bEGj/l4MEDcNtbMS0j3mg2hclH8k3kT3X4gjhU7sC+Sjea3SEUpsbh3oXpSIi3GG0zWgQ6u+nDdVNr9fA4nhePvV6/yNnhx56zImEzTtR7qLdJrIQE+sDRJEovKrmdo394ih71MZLnYIjXTnV5gn+fIKHqeC5a99lOLRhLvzJE8vTIp4yKQaI0H8k6kyRbyG9eTq4sssSYVuDJJLm0p5PkbOR2lts5sq6amjbE78zivyN5Dr28rBqScDdJ+CR9wp6oaCxZvhKf27UTm++9h+ZoWtgnHAa3rUYUpEE6Orz41re/jZOH9+OuWWn47j05KMlP5+AbXiprwB+80Ix/fLsRtTQDo6lx7p6Tjr/+XDHSUq7NR3znVAvePtmCuJgIfGFlBqbnpyLBcn3VqH/xThVeOtqEMpqj3STczDnz8LkdO6gVQ7hwscJoQEFj3W53oKb6MuprqknXvkCXoqGxPE5FkK28fmUz5UfHYA41W0k/QWahC9kklZaqkb/UmOrx3402kvcINeVzoV7U+rwm6KPviyeZc7nvTqsV+VSK+3gur9Mv9PI3NVn/R9/9Lu5cuwapYU04Im5rIgrd3T34y//4n/DGa68iM9qPL67Oxo7VBUi0xn5KOvco8kpt0eKiX1Nmx6/31eOyoxPzcuKxfk4a1s3JwLzCJMQoejjouMHQ4BT5A/SL6u0evHrSiX1lTjS7AshNtuJbGzKxYnY2Um2a5bw6BiLKDncArxxvw2snmnGRJPQFu00wJtGWZIrrFpeUoKR0BmaWlqK4uNCs5+vt5XkE/PB5vPD5/aiqqkFLayvqGxpw9sJ5BPmZgjjRvOZ4XruVZNNvJfI4C787jgRNjqM/KK0W0YNsXleQZmstiVzfFcQH9EvLqP3c1IYy9PNISPXwV4sBf6INc+bNx59+70+weOECpKakhH3Cq+CaiagQutfro6bpQAcfsqC1hUm2RCQnJ5k6NJMNv33iafzmt7/BxbPHsZhk+uqduVg4LRUpiX0dg+QPNpA4ZQ0+nK1142iVCydqPJidk0i/MhPr52agONs27GDSAPbR1HN5Q2hyBVHV4sfpunbsK2+H09eFglQL1k5Pxq5V2ZiWnYR4mnxXg0jY7vHjYkMHPixrxzs0SZtdIQqCCCTERYL8gZemp5+mYWpGJoqnlWBacTEWLlqEObNno7ioEJkZ6X1J9cEQmlta4HK1o81uR3VtDQIkpyLNDoeTz9KNdjdN8JZWPt8gQsEgujr5WzR1k4MBFNOHTOf5pNAyyLTE0e/sRSu36s4eXOB3q8CTzlcaLy09A0uWLsOuXQ/iwa1bzXRPGFfHqIiom6wJdj2shoYm1NTVoba2Fk2NjeZzkS+/oADTKZnz8nLpkNP8SoifNHUnL5RdxO+eeALPv/gC/G4nNs6yYfPiLMzOE7ki0Ojw4WilCwcuunG+kRqHg3tahhU7lmbinoWZKMxM/My16J7IP3L7QmilFm1w+HGpxYvKZj+q7Z1ocgdpnPWgIN2ClaUpuGdeGmYVppFIozPPRJ7T1U68fqKV2tABdyBEwZCAhRQkOSkW+EPU3vRd2zqCZnP6OuHviUFu0TQsJhmXLF6M+fPmopTPRNUQrgwwSXg0NDahrc0OF5+/0+VCbX2DmfLReHA4+Jt83i1NTRS8Xng8HvBD5PDYLGrNYoVjI6Jwkb7vPn6uVTCpaelYtnyFaZf94LYHzMr6sE84OlyViBpwWiXR3NyKI8eO4eDhozhz/iyqL19CM80cIc5CIhYWYfbsOZhLaXzH2tWYN3cO0tNSJ4VJ4vcHsHfffjz97LN4/93d5npWFcWTIIlIiI3EkUseHKv2oY0aiMYlZmQl4KGVOdjOTWbkldegiXEfidJE//FMjYvHd6CiuRN1Th+CVFU5SVbMyrWiMC0OCwoTML8oGbkZSf1Hjw4tdjeeP9yMpw62oNbhQVZSPL6xPgf3L85GXkai8QvbXF4KgACq2wI43xDAYV5HjaMDvVGxyCkoxDJqpns2bMC9mzYgKWl4jT4YxhR2utBC7ehwOlFdXQsHSXqx4iLO06Q1xPR0mHla5QLLT5R5qqipVtZ//nO7cO/GDSYwE8bocVUiyhStvFSFV15/A6+9/hoaqAklHTvpvPfQrxAk9fSQY+i0JyYkmuyJh3btwvq71qGwIN/sM5GQMJFZduzESfz2yacNGUP+DiRZYhHLwdTq9pqghAg2JzeRmjALj9yRj6REkfCzGszRrikEO3afceFsIwnc7kNSvAUlGRaavlasKLUhP92KFFs8rPSzYmMUILm2QMW5qlb8+4f1ePFYG+LIn+9sLMADy/OpnRPMd+madL7KvDHBlHY/Tl5qw1un3The5zEmsTUhAaUzZuDrX/kqNm24G9nZWf3fPjLk53bzOwdeFUVuamoe5Gc24lJ1ldGanRwfmkvMysrC9gcewIplS5CVmREOzFwjRiSiJo/Pl5XhzbfexvPPP4+6ulqTxTJAwKEgQtqSkrF6zVoTttYA0NzRREMDSlk7J06fxv/84Y9w5vQp+ClQNJ2grBL1PLx7TjI2zUvH8hlpKKI5OtxganVwsF9yGjM0OSEG5DJs1likJcYiMzkOGUkWfl8Uzdmo6x6QJyta8PMPavHmaSfy0+Lxd1+YhgUlGSbIdCWUgNBJM9nlCaDe7sdrx1ux54ID1c4g3YZ4LFi0EF96+BHcfdddKCi4embRUJCp7KdpKmvCQ1NUWtNHM1ZjQZX45IoUFxWZwMxUXkVxvRhyHpHC1pgoZ86dx+vUhK+/8ToulpeZwZybl4983vDMzGxYVCCYD0eScwB9pmzA+JMiZQad93z6jRqQE+Uv6Jx07u6ODly+XI19H+2Hva3V5KcmWqKN77VtWRYeWJKNZdNTkcuBHxk5vBmnq7DERaMgIx4LaXbOzktCaU4itWA80kRCakFd+41cb5PDi+OX21HvClFL27CV/mqazTKkhlYOjd5XECgjSQIhjqZsLGIie3G52WP8QD0Paa4kCkn5btf6PCRUFPjRsclJSSYQlJubg4K8PBO5zc3Jhi1RvvTVzd8wPoshidjd3WXyPF948SW8+tqruHD+HKVcLAoKC7Fi1WosWbIEJaXT6ZynGYc+QB9Mof/B8Hk96OLgT0lNw8L588y81EQRUWZpdW0djhw9RvP6dZw4fozn50U8yTSbg3zX8mw8vDYXs/KTYYtXEduRtZgkfkqihdrPigRqKEuc2ndH95Pvxk0yCQ6lsR2v6ksmmJ+fiDvnpCIxvn8h8DAYcBGyU62YmROP1Pgo1LT5+V0dqG9shNPhpEvRhXiarIpwq4DX9TwTnYOCV4qWD2z690Q939sBnyGiBkFHhwfPv/gynnrqCVy8WI7YOErY7Bzce/9m3LFmDebOmoVpRYXIy81FINRFidtmiKdjB0N6Mi093WTay3S5XjPteqBzkVYPBIKGgK+/+RZeee01HNi/7+NzzaSGuXN2Gh6/S/4gtQ214GQYSzq3yoYOErEdrR2dmJ6dgNUzUkj6mFHfQwmGJGs00iw92HfRBa8/hPr6OpNE3+7xYXppqdFu6i0YJtDE4zNPVWsBy8ov4tkXnkNDY4ORdDk5ubhr/QasXLoUGdSCek+Sl/4lli5ejKJp0xBPs+RKuOx2NNTWmHnHK0k63tB1XCivwBNPP4cf/suP8dvf/gYnjx01pvTAubR6QjhU6cKrRxrRSq0h4k40+gSIIrAB2D1dsMZGojAtFnHU3tdKGEtsFHJTJWA+Oa6ttQVv0cr599/8DhfKyo3PH8bE4zNEdNKMUyNRhakVMRXBNFm8jOZoSnKyIeEAJE2LCgowZ84cZOfkGHIOhnxHDe7hOumOFzQxvWfvPvz0Zz/Dr371S5w+eQJOp8Ncz2CB0ElzuqrNi6cOt+DHu+vx4sF6VNS7jGk+keju7oXbr8n6HsSTiEXpcYiLJRGv0aJoozbde6Edwa5PfHj5yq52F3a/9TqefvZ5HOGz1uLsMCYWn3qyioxp2dGxEyfMFIUWmhYUFGLBggXII9HkCwyWyvpbmRPZWdn0OYbOJVSA5FxZmYnAjifEL/2GtPmrr72OJ558Cu+/9x7KLpynH9s+ZKRXpPQEeEyjF++ca8Mzh5vw3KFGHKlw9e8xMZBv7aQ29AR66Mf1ZdJoyuJaDUhN+L973oEgCT0Y3RSO9XV12Lt3Lw4cOGjS3sKYWHyKOUp1ulxVxcFcjiBNlqSUZKPt5s+bB4v6VAxjGmVmZJhsGhUouhJaJ3jqzFmTmTMekNaVppOU37d/P56hlH/iqafw7rvvmIQD/e5IZrE+UwCjud2PY9VuvHy8FU8faMSe8204V9OOdm/QzKPdLMh60Ir75vYAOgKaGtDawv4PrwHNriBO1yhTqG+O9EpIM9ZUV+HgoUPGh1Z2zeDodxg3F58iotbvVVRUoom+ocwzRUbnzp2H3Ozs/j2GRklxEfLy8syE/pXQA5e/NhIZrgeGQEq7I9Frautw6NAR/Je/+X/wv37yYxw7cpi+oI+D+toGls61wenDC0cb8Cf/5xT+5fUKHK9og6vD/5mo8HhBZmldm58+ohc+CggLTdK4mGvThro3B8vteOlww4jk8vu8OEHr57U338TJU2fg788ZDePm42Miyperq28wZmS7w24e4HyScFpRUf8ekwcaLH1BpQq89Nob+Pv/7x/w5//hL1BRXmY0+Y3CfH+wE++X2fHPb9fjpUNNaLJ33BSNoaptb55yocnVifSEWJRmquCV9VMBl6vB5w9QoPhRz++4GtwuJ04eP47nXnwJrfStJ0PAairiYyJ6PF40NjWjpaXZDMQ4i8WkKqmp6GSCAgsi4G+efAY/+vGP8ctf/AJ797yPluZmk241VhJd3yNSlDe58cbpNjx7sBkHLjRTO3qN5hwvyIw8Vec1VeRs9A2zbLGwJYyuQafOWRHXo5VOmqXt8FCYXA0SLoqk7t/3IQ7QqlD2URg3Hx8TUVJUfkKHgjSRkcjIyobNlvSpKOlEQzmO732wF7998kk888zTeP/993Hu3BkOpNZx01beoII5HrxJMj51oAlvHGtBfZt3XDSHWcfY6kaDS6Z8BPJSLZiebUG8RckQ/TuNAOWeajnXR+XtPGcfQqM8R/nYDfX1Zp61kQItjJuPj4no9XrgoEnqJhmVSS8iSitONEQwpWedPX8Bb7z1llnO9Oxzz9GcOgY7JbnS1MYbHYFOlDd78M45J56mZvzwfBsHvG/MNaOHv1PZ4DIrO5KsMZiTl4g5BbbPRKuHgu6Txx/CsUoXjld3oLE92NdsZ5QIhoLY99GHqK2pMdHzMG4uDBFl0rS1OVDHh2CnaapEaLVLi75iXvBmQOeiQSWNIzNU2f5HjhynGfoT/PO//Bjv7n4bzQ3142oeDgWdlwhyqt6NZw614INzbXC4+/Jsx8IY1vd7g92otoegmqb5qbGmIoAWEo8GWtzcSG36ztl2XG71kljXJqBU26fD5UJFZaVZRKzzCePmwRBRg17zfcqA0d+ahphWPM3kJN5M6OHr95UbWll5GS+9+hr+5M/+A77/p9/Day+/SPOpbtymQUYLEe9cg5uasQnP7G+Ew9mB7q7uGx64uu6qFh9eOtmOzt4oTM+yIC8l7jNJEkPBkDjQhUstHlxo8lGDd123cHjj7Xew/+AhkxoYxs2DIaIIWHbxIhqa+lbcK+dSUxbWm2SaanArefz8hXKan+/gX/71p/jb//7f8ON/+WccPXQQLZTQipJqInoySGqVvb9ErfPWmVY8S+2oiOqNTG/o+s/UUJudbkWrOwBrTDQWFSehKHN0ZSZ8gRDKqKlfJYlbqKV1fteLiotlZqJfazfDuHn4WCMqUOPlYBfkjqgcugg5XpBp2dTUgkuXqnD4yDG88vpb+PXvnsCvfv0rvPTSS/hgzwc4d+4cfVaXGaiTDb5QNypbvHj9VCveONGKersCONdHRlWNO13djhP07TR/W0iztCTbhtT+mjojQRZCWZ0b756x42iVm+bzjQkrxQhOnz2LI8eOUzhqyiZsot4MfBysGS8oIieNdpqkqqquMQ1nFHg5fPQY3nx7N1565VU88fQz+PVvf4Pnnn8e77//Hi6rEY1XBeInN+TTXWj04IVjrdh3wWGWLik97VogIVMjk7Leg3pnEDGUfXfMsJm5w5Ei1uKaUvoqGzvw3jk73jvvQCsJfaN5vUoFbGxs5DM6h9q6vsSOMMYfZhnU97//fRymBCwrK4PL6QDfw5o1a5Gelm4idqOB0uJU00QVwAZDvShU8+QSCWh3OHH27Hm8/c67eOW11/n6Dg4ePoQTx4+j+lLlkEupJjs08FW8yeHpm/dTgrZ1lHVLda1++mIfnLfjw3IXiRhAdlIs/nzrNFMhYDj/UHdIhJdJrPnNN0+1meT1sYJW/MdbE1BcXIzSkmmjHgNhXD/GXSNqkr2VEvbA3g/wy1/8HL/85f/BG6+9gmOHD6KhluRsaUbAN3aDaKJQ3uIz6/6U3zlaqOvUxXoX3jnnQFmTF3kpsXhoZTZyM5PNesLhIF+51enBr/Y20U+1myVTY4lQIACn3W7mbVUXNozxx7gTUVJf5o0/4IfD3sbNDk9Hh9GcGlAyhW41LTgUtEBaPtpzR1pw4DyFizrDjAC/5iZrHfjFh6043+A1jUTnFybjngXpsGrJ0zDzhrpXDmrgA2V27Ktwoqk9YIpHjSVkLtsd9DmPH0Pl5ctmGimM8cW4E3EAfYTsNtvtQLwroWuSiXqy2o091HANbR0k49ArPzTnV9nUgScPNGM/yeQOdKM4w4IVJUkoyko0S5+Ggr7L7Q3gfK0KDrej1uE3vTXGA0rwqKi4iHr6iYEr3I0wxh43jYhTAfIX7Z4QDlS2m3KLKjx8ZcRX/1ZWjtqqvXLCbnodpiXEYtm0JCwnEePihq/t4/YFcYEk/PCCA4erOuC/wQjpSFCQzdHWCqfLOeFzt1MBYSKOMZSber7BjScOtuFcrduU4h/AgEY7UO4wARa3P4C42CisKknE+tmpmJmXhKGqx4lrgVA3zlU78ebJNrx7vp2E1zKv8bMs5DKorIgWA2h6K4zxRZiI4wAFYSqa3Xj5WDNOVXeY90RCZau8e7oVr59sNcEddfZdRr9w25JMLJ6WjFh14h0CQZqf75+sxy/2NuG103bUOW7O1I60dyt9epNMMcZ+aBifRpiI4wDpKWW3HKly02d0wtXuQQc14e6TLTRHW3G2oQOx9AOXFSfj6xvysbg0DYnxQ/eTt7sDeO9kAzVsC05Ut8NBU7brJk2ySxNWXq4ynZjD5un4YkgiKmStOph2p8NIw7Bpcn1o6wiZyfZ/e68Wv9hTj6cPNeJUjRsub6eZqnh4dV9B46EKB/f5kl7sPdfC45pwsqbDkPBmlu3Qc1fARr0Wx7vm0FTHkETs7AzhxInjOHDwAE6fOYOa2lojFVXvVGlwYek4OsgcPV7txs8/aOBWj/0VLji9fYuXVf4iK7lv4n+wfpPbp0Hf4vRhf1kbXjrajH0V7fQng+PqEw4FJQ3U1VabekBhYTy+MESUSST/RBk1qjsjf+D4kcN45qkn8dSzT+Pt997DgUOHcfb8eVysvISW1jZT30SRNe3bFxm8uYPkVoFIF6Tg6vAHEBUTY+6v1ntebgngp2/X4UKNEx5fiPew1+yrqQ1lzOw920wfswX7L01cvdWBpVEd7W7TfSqM8YNJcfvBD/5v+Lx+Mwjkf4hSQQ4cTcR73G7UVlebsvsXKyu4VZpVGnan0yQFK/1JLbpUQVpVwa9McQuD0i4yEtb4eMxbuBipmZlmwa6b1oWdJmpzexfSEiKQlsj7yBtfUefAbz9qxqunnabM47WuKxwPTJ85C6WlpcjOyux/J4yxhukGpfZardRyNXX1qK2rQ3NzM9r472qapNU11TRPaJq2tiCapNNaRavFikSbDbakJGRn5yA2LhY1VVWopD8RJuKnIe2XlZ2NVavXYuuWzcb6OHr8OPbs2YOKC+eREh+LRYVJpqy+ugHXtPhxotZlSKpoqbTkRGP12nX49re+iZ3bt/a/E8ZY4+O2bDIv1XLL6/NTO/pMy62GpmbU19fj0qVLOHXqNE6eOokOd7tJTZOUl5llscab5GT1a1d5vmspzzAVMHvOHGzYsBHr16/H0sWLoELBShvb++E+vPnmWzh75hQsdBBsFrVwi6AJ2432CfAHR0J6Vhb+r+99D9/99rf63wljrPFxExpJapmZqtytTkEZGemm3dbM6aWYOWOmac0tzZeWkoKExEQj6U2/PPqKIqDRhGEOGgFlmvZkZWPe3HnY9sBW7HzwQUPC5CQb72+8Kcicm5OL+IREY304KAjtbh/a6SsG6B5MttsY5HNevmwZ1q5dM2zWTxg3hs90gxoMaToFcFJTUzBr5gxsvu8+szxqWkkpYmmeKmATHR1jQn19wYapm6nfJ8hiYaPJrjbm99x7P773J39EIj5g+kNqNcXAINZ9TU5ORkmJypGQjLQ8XC7npI1Myjxevnw5Vq5cOWzSQRg3hhGJOBRUVGpacTFWrVyBTRs2oHjaNETHWUxkUBqyq3NqRtesJFQh78Vd6+/G7//e1/DwF3ahqLDQDNyhtIjMUPWMlNURHRtnKiSopqzM/smIIj7z6dNnjLr9dxjXhmsmovENKd1VSkMmrErtTy8tQXFhMaV7vImm+n2qyzk17FQFsGbMnoNNGzfiwW3baTXcg0ULFiAtLcWssB/JlNO9VJJ3WloqLLQwlDzR2DhymfyJQn5BIWbPnm0WCocx9rhmIg5AA0wmlppdZqT3tXHOzMjkwIyFj5pRHXlv54l/1XxVG/MVK1Zgy5YHcO+mjVixfJnpA2KzJY5IwMEQGWVlJCclU7hZTYHn5uamSZfbWURBu2DhQuOihDH2uG4iDoYkv0rza54pNydHowtOasaOjo6bUgD4ZkFtuRNJMjVunTtvHu68805s27oVm+6+2wzQ1JQ+LXitkEBL4vemU6CphKWmkLR4ejIJMgmd+fPnYf7cOf3vhDGW+Hj6YihIKnup2WQyDYYipuq/HhXNVw48NSyVZBd0jIoOqSDUm2++YRrDXOuAkjZRU86hdIoxeGn2DmX6mlSEESziIbWUfsu8fPLZQJBqALpGbXqvmH7SSmrBdWvWYAHJmJLS15ZgtBpwJCjH1+ly4ZnnX8KTT/wW5WUXTPbSZDDzZ82Zh4cfeRh//J1vmaCS3x8wz7UvQBfxsZkdS39Xrovu4Vjck6mCEYnY0NCIn/2fn+PJp57sf6cP6ZlZKC4pRXFRMWbPnInZs2bQtEoygQlpRj0ADajX3ngLzzz7LM6dOU2/Z/SmlgIf0gyaBrgSIrqmTLo0QPvfEzRYO0MBDFfsVwNFyQgxHCiDofc1HypTc2DgKIBy9113m7+FaTQ351ET5GRnmu+IpfmtQTdQCn8sB5yuT12bX339DTz33HM4fOigIeNEI4nafuPGTfiz73/fNAF68eWXTN8RPwW17mFyWjrW3bEOa1atwgJqzuKigjETUFMBIxKxtrYeP/zRj/DzX/y8/50+iCAJIkt8vPGHbCzISiAAAAtXSURBVInqzxCNlNRUIzlT+NAKOZjb7HZ8+OGHePutNxEMjr733q5dn8eGDXejsLCg/51PIA1dW1uHlpZWdA8it2qKVtXU8DfbTGLClYi3xtN0zqKv8+nvjCMxZRJOn15iBo4gXy2L/u4AFIRKSrLBMoRgGA9IM8o8fe/9PXj5lVdw8OABM087kZpRAsjcJwpg+bH1DfWmKLSivCKbhFlGegZy+NxXLF+BLz78EIXXbCOswrg6rouIwyE+PsE8CL2qpZskZXNTEy5cOG/MmdEOpK9+9Wt4/LFHsXzZkv53PoFI1mZ3mEEwOLqowdtKEqp1wFCmsAinKG8mB9NgiHwSJNnSdjSnJgt0DVXVtdi7bx9eePFF03RHLsJEknE0UBRZ88wP7ngQf/yH35l0bf0mK8aUiGOFtTRxHn74YWy+794pnWgsMqp57Ht79uKZp5/C+fPnTABsssNCi2LGrNn4Xz/6oZna0nxpGCNjyPWIE42jR47gxRdfojb4yPhMUxUy6woL8rF96xZ86dFHzYT6rTCoVeumzvTnPwyHw9n/bhgjYVISUQuTz549g/f37EFD4+SbU7uZkOmsCf9tD2zBF7/0KBYsXNz/yeSG1i9+dPAw2hyO/nfCGAmTkojyg9R8RqbYuzTLpnpdTfWpTElOxsa712Pz5vsxe+58REZMykf3MTR/fO78WTOfPBkzhSYbJu3TlH/U2tqKcxcuDBl8mWpQTZuiwnzcdec63L3hbmRk55j53MkK1dZpbWkxU2BaQB7GyBiRiJF8+Jb4eCTYbCY8fTPnhKQVQ8GQqZcSXuPYB/mHs2fNNJk8S5ctM9FpJT5MRuj5KcItIjqdrv53wxgOIz5FZZIUFhVh7oKFJuk3JSXVLPPRPJvC1JN1ENzOUOLEogXz8eDWbWaqaNIGb0jEnq4uUyncexs0GRpvjJhrGh0dZRaxLpw3H8uXLceKlSsxY+ZsJGsujj5KINiX5qSbPh5Qds200lLcu3GDWe0RRh9EPq1nrGtoQnNTo+lTMdnmF2U9aR65hM9vzuw5KMjP6/8kjKEwIhF1I7ViX2QspH+iOaEZM6abxN9lS5fgjrV3YOPdG8wEblZOLhJtSQhRCgYD/jEZGGEiDg09F1kryhRSVLK1rQ1ez+Rr7CqXIiUtHXPnzMEsjpswhseIE/pDQVMJ0oJ9W5dxyhsbm0w6m8PpRGtrCzwdbrS12k3ZRU1AKxWtsamJvoLDLB5WPqgiaT3dXeZ1KNKaDI1ppdi2Ywe+/4ffNSlmYXwC3bNAIICDh4/i2eefxzvv7EZbS8uki1AuWb4S3/3Ot/DQrp3974QxFK6ZiKNFA80mVYFTYeIuEray6jLq6+vQ2tJq0tM0iLTUR38PFRXNzMo05vD2bdtw57q1Ny3P81bE+x98iN8+8SQ+2PO+6T95LQn24435i5fgO9/8Jh75wuc+zuUN47MYNyIOBS2dqa9vRG1dvYmGqiPt5eoqdAzRL3/h3HnYcNedWLhwfv87YQwHWRlHj5/Av/zrv+GjvXvMouzJ4jOWzpyN3/vqV/Doww+ZxIQwhsZNJaIGh0xbbTKhlKitHvtDTU9oNYf8oHD2/tWh+9rWZse+/Qfxjz/6ES5dLDPlSiYDklPTsGP7Dnz5sUexYvnS/nfDuBI3df5BkTSZJyKYpkBUZkMZI6oSd+WWmJgYJuEoofuqlSWLFy3A+jvvMgWNJ8tkv9Yrqkh1xaXLxiKaLJp6siE8EXibQEJLFdbuv/cerFy5Gtk5OYiInPhFucobbmpuNkWVVakunO42NMJEvE0grWi1WLB86WKagtuwbNlyJCROfKTZmM2tLai4WI6amjoTaQ9rxc8iTMTbCCKj5n23bbkf27ZtRemMmWZl/UTDabfj3JkzOHz06GcWdIfRhzARb1PcuXYtvvLYY8grLJoUZGxobMCzzz2Hs+cumL78YXwaY1JOMYzJB4slzuQFJ8QnmFo+iqJO5LrOHv62GhWFunuQn5+H9LTUcDBuEMJEvE2h+jtWmqmpySmmKlxLS8uE5qTqd7VGUdlXkZHRpqBymIyfIEzE2xiaKkpQWcrYONN+vbWtdUL7V4qMauuntgyquidBYbXGw2K1IJL+7VRGmIi3MQbmbVOSk0xyuFrAOR1KgbvxYIkIrrlezQmLYNfyne1OFy5VXTaNceOtCcjPzTUrSpTMPlURJuJtDjOtQY1TVFBgWoNr6ZSimDeKxx57HF//+jewYuUqtFLDuUjw0fqgqsiuItHqflV28aKZZsnIyDA9QKYqGcNEnALoI6MVoVAnWppbcOlSxQ1rxXXr1uGOtWuxcMF8FBYWoo1aTlMToy0krX06u7rM8i1N+EuzqoCx+odMRYSJOEWg4E1UZBQ8Xi/OnD9vUs9GQ5jhsJKacPGiRSgtKUZWZibiSHQPSSUyKgl9VN/NfVR4WiUX3TzWEmcxHcWm4pK38DziFIKqmS9YMA+l02eO2ZIkEVy5wfdt2oitW7diydJlSElNM1p4NBBhA34fjh49gg/2fojyisr+T6YWwkScQpD5p8ayqq6gYmBjBfl1Gelp2HLfvdixYwcWLl4Cy6CmPqNBZzBotGl7h7v/namFMBGnGPJyc/DgtgdMXupYI42a8X5qxq9++XHMXbjomuYIU9IzsHr1Ktx1x9r+d6YWwkScYlAznoL8fGy69z5kZmX3vzs2kGZMSUnGurWr8YO/+HMsX7UaySkpw2pGdaaMiYlF8fTp+Nbv/z62b33ALIubiggTcYohMjLCtNLbsnmLKZUZHT22mS3yGdXKfe2qVaaj10qSMT0j8zPTEiaSm5BgEtM/t+tzeGDLZswgIVU5cCoiTMQpiFiajEsXL0RJSQkSSMrxgOYut23ebFbnL122HKlp6R+TUZrQGp9gSi3ee999+MKunZjOc1Hz16mKMBGnIKSN4q1WUzRaBBkP6DekeTffdw927nwQi5YuJfniDRmjaY4WFhVjw8ZN+PKXHsHM6aWGuFMZYSKGMa5QAEdFwB595BEsXrbSRFPzi4vwAP3BLz38BZRMKzbm7FRHmIhTEMpoOX+hHOfOnjG1UMcT0oDp6WlYs2olvv9Hf4C//a9/i//4l3+JXTu2Y5rxUcN99oWbWsUtjJsDpa8pY0U9Cn0+P9rb3ahvaIDX50OI76nLlprB7j+w37RWv550tz/8wz/CF6nl5s+b0//OyFAeqmrZBgJBE5CxWKxT2ie8EmEi3gZQdooGuurBiGgq0mR3OE0OZ211NVrb7LhYUQGXW4Wd/Wgi+Zrq625oofC1EjGMkREm4i0OaTM1clVWSlubAy0trSgrv4jzZWU4feY0Tp841r/n2CJMxLFFmIi3OFwuF06fPY9Dh4/i9PlzaKAJ2kxtp47LMgNVznA8ECbi2CIcrLlFIRNU5PvFr3+Hf/vZz/DMM0/jo70foOzsGTQ3N5mVEONFwjDGHmEi3mJQxFM9Q95651386je/xQsvPI+PPvoIlyor4GhrhdfTYWrD3MgSpzBuPsJEvMWgNnenTp/Br3/3BF597VUzBdG3Or6rf4/xR990QwRf+/4dxo0jTMRbCOpFqXZ3R44cxYH9H5lCTCpTeDMhEsZEx5qVFZGR4Yn4sUKYiLcQ1MSlrKICx06dhJeasfcGy11cD9TcJrsg39QmVQpbGGODMBFvIahIcCWJWHb+/ISRMCkp2dSqUTvuqbpkaTwQJuItBBV/cjoccNjb+t+5eYhPSDRLljZtugdb7rsPJSXTTN5oGGOD8DziLYSW1jY899xzeO311/vfuXnQKo1Zs+dgzapVWLxwvlkAPFZ1b8IIE/GWgvJH1RnY4XT1v3PzYImLM9XV1BA1nKg99jBE7P87jDDCmBAA/z8YW+7OAZQWHgAAAABJRU5ErkJggg==;" vertex="1" parent="1">
          <mxGeometry x="413.56" y="760" width="17.93" height="30" as="geometry" />
        </mxCell>
        <mxCell id="5R3xkIUj5otAu2-43yHS-35" value="Ofelia" style="text;html=1;align=center;verticalAlign=middle;whiteSpace=wrap;rounded=0;" vertex="1" parent="1">
          <mxGeometry x="420.56" y="750" width="60" height="30" as="geometry" />
        </mxCell>
        <mxCell id="5R3xkIUj5otAu2-43yHS-36" value="config.ini" style="whiteSpace=wrap;html=1;shape=mxgraph.basic.document;fillColor=#dae8fc;strokeColor=#6c8ebf;fontColor=#000066;" vertex="1" parent="1">
          <mxGeometry x="470.55999999999995" y="768" width="51" height="40" as="geometry" />
        </mxCell>
        <mxCell id="5R3xkIUj5otAu2-43yHS-37" value="addJob(),&amp;nbsp;&lt;div&gt;deleteJob()&lt;/div&gt;" style="edgeStyle=orthogonalEdgeStyle;rounded=0;orthogonalLoop=1;jettySize=auto;html=1;exitX=0.5;exitY=1;exitDx=0;exitDy=0;strokeColor=#FF0000;align=left;fontColor=#FF0000;" edge="1" parent="1" source="5R3xkIUj5otAu2-43yHS-39" target="5R3xkIUj5otAu2-43yHS-36">
          <mxGeometry x="0.2819" y="2" relative="1" as="geometry">
            <mxPoint as="offset" />
          </mxGeometry>
        </mxCell>
        <mxCell id="5R3xkIUj5otAu2-43yHS-39" value="Scheduler servers" style="rounded=0;whiteSpace=wrap;html=1;verticalAlign=bottom;fillColor=#dae8fc;strokeColor=#6c8ebf;" vertex="1" parent="1">
          <mxGeometry x="405" y="612" width="120" height="80" as="geometry" />
        </mxCell>
        <mxCell id="5R3xkIUj5otAu2-43yHS-40" value="Worker Cluster" style="ellipse;shape=cloud;whiteSpace=wrap;html=1;labelPosition=center;verticalLabelPosition=bottom;align=center;verticalAlign=top;fillColor=#b0e3e6;strokeColor=#0e8088;fontColor=#009999;fontSize=13;" vertex="1" parent="1">
          <mxGeometry x="308.31" y="840" width="340" height="226" as="geometry" />
        </mxCell>
        <mxCell id="5R3xkIUj5otAu2-43yHS-42" value="Worker&lt;br&gt;(Api Fetcher)" style="rounded=0;whiteSpace=wrap;html=1;fillColor=#f5f5f5;strokeColor=#666666;fontColor=#333333;verticalAlign=bottom;" vertex="1" parent="1">
          <mxGeometry x="364.51000000000005" y="912" width="71.9" height="60" as="geometry" />
        </mxCell>
        <mxCell id="5R3xkIUj5otAu2-43yHS-45" value="Worker&lt;br&gt;(Api Fetcher)" style="rounded=0;whiteSpace=wrap;html=1;fillColor=#f5f5f5;strokeColor=#666666;fontColor=#333333;verticalAlign=bottom;" vertex="1" parent="1">
          <mxGeometry x="449.48" y="944" width="71.9" height="60" as="geometry" />
        </mxCell>
        <mxCell id="5R3xkIUj5otAu2-43yHS-48" value="Worker&lt;br&gt;(Api Fetcher)" style="rounded=0;whiteSpace=wrap;html=1;fillColor=#f5f5f5;strokeColor=#666666;fontColor=#333333;verticalAlign=bottom;" vertex="1" parent="1">
          <mxGeometry x="538.31" y="944" width="71.9" height="60" as="geometry" />
        </mxCell>
        <mxCell id="5R3xkIUj5otAu2-43yHS-49" style="edgeStyle=orthogonalEdgeStyle;rounded=0;orthogonalLoop=1;jettySize=auto;html=1;exitX=0.5;exitY=1;exitDx=0;exitDy=0;" edge="1" parent="1" source="5R3xkIUj5otAu2-43yHS-33" target="5R3xkIUj5otAu2-43yHS-42">
          <mxGeometry relative="1" as="geometry" />
        </mxCell>
        <mxCell id="5R3xkIUj5otAu2-43yHS-50" style="edgeStyle=orthogonalEdgeStyle;rounded=0;orthogonalLoop=1;jettySize=auto;html=1;exitX=0.5;exitY=1;exitDx=0;exitDy=0;" edge="1" parent="1" source="5R3xkIUj5otAu2-43yHS-33" target="5R3xkIUj5otAu2-43yHS-45">
          <mxGeometry relative="1" as="geometry" />
        </mxCell>
        <mxCell id="5R3xkIUj5otAu2-43yHS-51" style="edgeStyle=orthogonalEdgeStyle;rounded=0;orthogonalLoop=1;jettySize=auto;html=1;exitX=0.5;exitY=1;exitDx=0;exitDy=0;" edge="1" parent="1" source="5R3xkIUj5otAu2-43yHS-33" target="5R3xkIUj5otAu2-43yHS-48">
          <mxGeometry relative="1" as="geometry" />
        </mxCell>
        <mxCell id="5R3xkIUj5otAu2-43yHS-52" value="" style="shape=image;html=1;verticalAlign=top;verticalLabelPosition=bottom;labelBackgroundColor=#ffffff;imageAspect=0;aspect=fixed;image=https://cdn4.iconfinder.com/data/icons/scripting-and-programming-languages/512/660277-Python_logo-128.png" vertex="1" parent="1">
          <mxGeometry x="544.26" y="930" width="60" height="60" as="geometry" />
        </mxCell>
        <mxCell id="5R3xkIUj5otAu2-43yHS-53" value="" style="shape=image;html=1;verticalAlign=top;verticalLabelPosition=bottom;labelBackgroundColor=#ffffff;imageAspect=0;aspect=fixed;image=https://cdn4.iconfinder.com/data/icons/scripting-and-programming-languages/512/660277-Python_logo-128.png" vertex="1" parent="1">
          <mxGeometry x="455.43000000000006" y="930" width="60" height="60" as="geometry" />
        </mxCell>
        <mxCell id="5R3xkIUj5otAu2-43yHS-55" value="" style="shape=image;html=1;verticalAlign=top;verticalLabelPosition=bottom;labelBackgroundColor=#ffffff;imageAspect=0;aspect=fixed;image=https://cdn4.iconfinder.com/data/icons/scripting-and-programming-languages/512/660277-Python_logo-128.png" vertex="1" parent="1">
          <mxGeometry x="371.48999999999995" y="900" width="60" height="60" as="geometry" />
        </mxCell>
        <mxCell id="5R3xkIUj5otAu2-43yHS-61" value="" style="group" vertex="1" connectable="0" parent="1">
          <mxGeometry x="414.48" y="615" width="30" height="60" as="geometry" />
        </mxCell>
        <mxCell id="5R3xkIUj5otAu2-43yHS-62" value="" style="rounded=1;whiteSpace=wrap;html=1;fillColor=#f9f7ed;strokeColor=#36393d;strokeWidth=1;perimeterSpacing=9;movable=0;resizable=0;rotatable=0;deletable=0;editable=0;locked=1;connectable=0;" vertex="1" parent="5R3xkIUj5otAu2-43yHS-61">
          <mxGeometry width="30" height="60" as="geometry" />
        </mxCell>
        <mxCell id="5R3xkIUj5otAu2-43yHS-63" value="" style="aspect=fixed;sketch=0;html=1;dashed=0;whitespace=wrap;fillColor=#dae8fc;strokeColor=#6c8ebf;points=[[0.005,0.63,0],[0.1,0.2,0],[0.9,0.2,0],[0.5,0,0],[0.995,0.63,0],[0.72,0.99,0],[0.5,1,0],[0.28,0.99,0]];shape=mxgraph.kubernetes.icon2;kubernetesLabel=1;prIcon=api;movable=1;resizable=1;rotatable=1;deletable=1;editable=1;locked=0;connectable=1;" vertex="1" parent="5R3xkIUj5otAu2-43yHS-61">
          <mxGeometry x="1.509999999999991" y="3.0399999999999636" width="27" height="25.91" as="geometry" />
        </mxCell>
        <mxCell id="5R3xkIUj5otAu2-43yHS-64" value="" style="shape=image;verticalLabelPosition=bottom;labelBackgroundColor=default;verticalAlign=top;aspect=fixed;imageAspect=0;image=https://static-00.iconduck.com/assets.00/flask-icon-1594x2048-84mjydzf.png;fillColor=#dae8fc;strokeColor=#6c8ebf;movable=0;resizable=0;rotatable=0;deletable=0;editable=0;locked=1;connectable=0;" vertex="1" parent="5R3xkIUj5otAu2-43yHS-61">
          <mxGeometry x="6.829999999999984" y="34" width="16.35" height="21" as="geometry" />
        </mxCell>
        <mxCell id="5R3xkIUj5otAu2-43yHS-65" value="" style="group" vertex="1" connectable="0" parent="1">
          <mxGeometry x="451.18" y="615" width="30" height="60" as="geometry" />
        </mxCell>
        <mxCell id="5R3xkIUj5otAu2-43yHS-66" value="" style="rounded=1;whiteSpace=wrap;html=1;fillColor=#f9f7ed;strokeColor=#36393d;strokeWidth=1;perimeterSpacing=9;movable=0;resizable=0;rotatable=0;deletable=0;editable=0;locked=1;connectable=0;" vertex="1" parent="5R3xkIUj5otAu2-43yHS-65">
          <mxGeometry width="30" height="60" as="geometry" />
        </mxCell>
        <mxCell id="5R3xkIUj5otAu2-43yHS-67" value="" style="aspect=fixed;sketch=0;html=1;dashed=0;whitespace=wrap;fillColor=#dae8fc;strokeColor=#6c8ebf;points=[[0.005,0.63,0],[0.1,0.2,0],[0.9,0.2,0],[0.5,0,0],[0.995,0.63,0],[0.72,0.99,0],[0.5,1,0],[0.28,0.99,0]];shape=mxgraph.kubernetes.icon2;kubernetesLabel=1;prIcon=api;movable=1;resizable=1;rotatable=1;deletable=1;editable=1;locked=0;connectable=1;" vertex="1" parent="5R3xkIUj5otAu2-43yHS-65">
          <mxGeometry x="1.509999999999991" y="3.0399999999999636" width="27" height="25.91" as="geometry" />
        </mxCell>
        <mxCell id="5R3xkIUj5otAu2-43yHS-68" value="" style="shape=image;verticalLabelPosition=bottom;labelBackgroundColor=default;verticalAlign=top;aspect=fixed;imageAspect=0;image=https://static-00.iconduck.com/assets.00/flask-icon-1594x2048-84mjydzf.png;fillColor=#dae8fc;strokeColor=#6c8ebf;movable=0;resizable=0;rotatable=0;deletable=0;editable=0;locked=1;connectable=0;" vertex="1" parent="5R3xkIUj5otAu2-43yHS-65">
          <mxGeometry x="6.829999999999984" y="34" width="16.35" height="21" as="geometry" />
        </mxCell>
        <mxCell id="5R3xkIUj5otAu2-43yHS-69" value="" style="group" vertex="1" connectable="0" parent="1">
          <mxGeometry x="486.56" y="615" width="30" height="60" as="geometry" />
        </mxCell>
        <mxCell id="5R3xkIUj5otAu2-43yHS-70" value="" style="rounded=1;whiteSpace=wrap;html=1;fillColor=#f9f7ed;strokeColor=#36393d;strokeWidth=1;perimeterSpacing=9;movable=0;resizable=0;rotatable=0;deletable=0;editable=0;locked=1;connectable=0;" vertex="1" parent="5R3xkIUj5otAu2-43yHS-69">
          <mxGeometry width="30" height="60" as="geometry" />
        </mxCell>
        <mxCell id="5R3xkIUj5otAu2-43yHS-71" value="" style="aspect=fixed;sketch=0;html=1;dashed=0;whitespace=wrap;fillColor=#dae8fc;strokeColor=#6c8ebf;points=[[0.005,0.63,0],[0.1,0.2,0],[0.9,0.2,0],[0.5,0,0],[0.995,0.63,0],[0.72,0.99,0],[0.5,1,0],[0.28,0.99,0]];shape=mxgraph.kubernetes.icon2;kubernetesLabel=1;prIcon=api;movable=1;resizable=1;rotatable=1;deletable=1;editable=1;locked=0;connectable=1;" vertex="1" parent="5R3xkIUj5otAu2-43yHS-69">
          <mxGeometry x="1.509999999999991" y="3.0399999999999636" width="27" height="25.91" as="geometry" />
        </mxCell>
        <mxCell id="5R3xkIUj5otAu2-43yHS-72" value="" style="shape=image;verticalLabelPosition=bottom;labelBackgroundColor=default;verticalAlign=top;aspect=fixed;imageAspect=0;image=https://static-00.iconduck.com/assets.00/flask-icon-1594x2048-84mjydzf.png;fillColor=#dae8fc;strokeColor=#6c8ebf;movable=0;resizable=0;rotatable=0;deletable=0;editable=0;locked=1;connectable=0;" vertex="1" parent="5R3xkIUj5otAu2-43yHS-69">
          <mxGeometry x="6.829999999999984" y="34" width="16.35" height="21" as="geometry" />
        </mxCell>
        <mxCell id="5R3xkIUj5otAu2-43yHS-81" style="edgeStyle=orthogonalEdgeStyle;rounded=0;orthogonalLoop=1;jettySize=auto;html=1;exitX=0.96;exitY=0.7;exitDx=0;exitDy=0;exitPerimeter=0;entryX=0.5;entryY=0;entryDx=0;entryDy=0;entryPerimeter=0;strokeWidth=3;fillColor=#e1d5e7;strokeColor=#9673a6;" edge="1" parent="1" source="5R3xkIUj5otAu2-43yHS-40" target="5R3xkIUj5otAu2-43yHS-67">
          <mxGeometry relative="1" as="geometry">
            <Array as="points">
              <mxPoint x="680" y="998" />
              <mxPoint x="680" y="560" />
              <mxPoint x="466" y="560" />
            </Array>
          </mxGeometry>
        </mxCell>
        <mxCell id="5R3xkIUj5otAu2-43yHS-85" value="" style="shape=image;html=1;verticalAlign=top;verticalLabelPosition=bottom;labelBackgroundColor=#ffffff;imageAspect=0;aspect=fixed;image=https://cdn0.iconfinder.com/data/icons/phosphor-bold-vol-3-1/256/heartbeat-duotone-128.png;imageBackground=none;" vertex="1" parent="1">
          <mxGeometry x="637" y="723.5" width="84.5" height="84.5" as="geometry" />
        </mxCell>
        <mxCell id="5R3xkIUj5otAu2-43yHS-86" value="1. Worker =&amp;gt; Scheduler&lt;div style=&quot;font-size: 16px;&quot;&gt;&amp;nbsp;Heartbeat all X seconds&lt;/div&gt;" style="text;html=1;align=left;verticalAlign=middle;whiteSpace=wrap;rounded=1;fontSize=16;fillColor=#e1d5e7;strokeColor=#9673a6;shadow=1;" vertex="1" parent="1">
          <mxGeometry x="724.5" y="735" width="185.5" height="60" as="geometry" />
        </mxCell>
        <mxCell id="5R3xkIUj5otAu2-43yHS-87" value="2. If in X*2 seconds no heartbeat was sent the worker is considered as dead an the jobs are rebalanced&amp;nbsp;" style="text;html=1;align=left;verticalAlign=middle;whiteSpace=wrap;rounded=1;fontSize=16;fillColor=#e1d5e7;strokeColor=#9673a6;fillStyle=solid;glass=0;shadow=1;" vertex="1" parent="1">
          <mxGeometry x="220" y="601" width="175.5" height="102" as="geometry" />
        </mxCell>
      </root>
    </mxGraphModel>
  </diagram>
</mxfile>
